<svg fill="currentColor" viewBox="0 0 232 200" xmlns="http://www.w3.org/2000/svg"><path d="M220 0h-72a43.86 43.86 0 0 0-32 13.85A43.86 43.86 0 0 0 84 0H12A12 12 0 0 0 0 12v144a12 12 0 0 0 12 12h72a20 20 0 0 1 20 20 12 12 0 0 0 24 0 20 20 0 0 1 20-20h72a12 12 0 0 0 12-12V12a12 12 0 0 0-12-12M84 144H24V24h60a20 20 0 0 1 20 20v104.81A43.8 43.8 0 0 0 84 144m124 0h-60a43.7 43.7 0 0 0-20 4.83V44a20 20 0 0 1 20-20h60zm-56-92h32a12 12 0 0 1 0 24h-32a12 12 0 0 1 0-24m44 52a12 12 0 0 1-12 12h-32a12 12 0 0 1 0-24h32a12 12 0 0 1 12 12"/></svg>
