<svg width="180" height="180" version="1.1" viewBox="0 0 180 180" xml:space="preserve" xmlns="http://www.w3.org/2000/svg"><g><path d="m5.7294 89.847q0.32978-23.085 11.213-42.212 11.213-19.127 30.999-30.999 20.117-11.213 42.212-11.213 22.095 0 42.212 11.213 19.787 11.872 30.999 30.999 10.883 19.127 11.213 42.212-0.32977 23.085-11.213 42.212-11.213 19.127-30.999 30.999-20.117 11.213-42.212 11.213-22.095 0-42.212-11.213-19.787-11.872-30.999-30.999-10.883-19.127-11.213-42.212z" fill="#e1e5e8" stroke="#e1e5e8" stroke-width="11.458"/><path d="m67.062 47.871q4.7203-2.1786 9.0775 0.3631l52.286 31.953q3.9941 2.5417 3.9941 7.262 0 4.7203-3.9941 7.6251l-52.286 31.953q-4.3572 2.1786-9.0775 0-4.3572-2.5417-4.3572-7.625v-63.905q0-5.0834 4.3572-7.6251z" fill="#1d6a54" stroke-width=".3631"/></g></svg>
