<svg id="a" width="180" height="180" version="1.1" viewBox="0 0 180 180" xml:space="preserve" xmlns="http://www.w3.org/2000/svg"><g id="b"><path id="c" d="m5.4221 89.847q0.32978-23.085 11.213-42.212 11.213-19.127 30.999-30.999 20.117-11.213 42.212-11.213 22.095 0 42.212 11.213 19.787 11.872 30.999 30.999 10.883 19.127 11.213 42.212-0.32977 23.085-11.213 42.212-11.213 19.127-30.999 30.999-20.117 11.213-42.212 11.213-22.095 0-42.212-11.213-19.787-11.872-30.999-30.999-10.883-19.127-11.213-42.212z" fill="#e1e5e8" stroke="#e1e5e8" stroke-width="11.458"/><path id="d" d="m27.198 54.039q4.0538-1.871 7.7957 0.31183l44.903 27.441q3.4301 2.1828 3.4301 6.2365 0 4.0538-3.4301 6.5484l-44.903 27.441q-3.7419 1.871-7.7957 0-3.7419-2.1828-3.7419-6.5484v-54.882q0-4.3656 3.7419-6.5484z" fill="#77aa5e" stroke-width=".31183"/><path id="e" d="m114.8 49.582c-8.9336 23.388-17.867 46.776-26.801 70.164h10.309c2.5467-7.1304 5.0939-14.26 7.6406-21.391h28.861c2.5063 7.1304 5.0133 14.26 7.5195 21.391h10.672c-8.9336-23.388-17.867-46.776-26.801-70.164zm5.3359 7.2734c1.5181 1.1461 1.3976 4.1889 2.3476 6.0254 3.0328 9.4962 6.5039 18.877 9.7793 28.309h-23.768c1.2531-3.5652 2.5047-7.1301 3.7578-10.695 2.8-7.8334 5.4038-15.722 7.8828-23.639z" fill="#3e3e3e" stroke="#3e3e3e" stroke-linecap="round" stroke-linejoin="round" stroke-width=".8"/></g></svg>
