<svg width="36.246cm" height="6.4734cm" version="1.1" viewBox="0 0 36.246 6.4734" xmlns="http://www.w3.org/2000/svg"><defs><clipPath id="clip_38"><path d="m52.801 47.77h4.199v4.23h-4.199z"/></clipPath></defs><g transform="translate(-62.005 -79.315)"><g stroke-width="3.9709"><path d="m66.248 80.725c0.11121 0 0.20949-0.0136 0.29484-0.0407 0.0854-0.0271 0.15687-0.0655 0.21443-0.11519 0.0576-0.0496 0.10097-0.10888 0.13009-0.17771 0.0291-0.0688 0.0437-0.14493 0.0437-0.22831 0-0.16941-0.0556-0.29713-0.16681-0.38317-0.11117-0.086-0.27793-0.12906-0.5003-0.12906h-0.42093v1.0741h0.40499m1.3144 1.4673h-0.3415c-0.0702 0-0.12178-0.0271-0.15487-0.0814l-0.7386-1.0166c-0.0225-0.0317-0.0467-0.0546-0.0725-0.0685s-0.0658-0.0208-0.12009-0.0208h-0.29187v1.1873h-0.38318v-2.8452h0.80411c0.17999 0 0.33551 0.01822 0.46655 0.05465 0.13104 0.03639 0.23923 0.089 0.32459 0.15785 0.0854 0.0688 0.14861 0.15188 0.18965 0.24915 0.041 0.0973 0.0616 0.20613 0.0616 0.32658 0 0.10062-0.0159 0.19462-0.0477 0.28199-0.0317 0.0873-0.0777 0.16576-0.13796 0.23528-0.0602 0.0695-0.13371 0.12871-0.22043 0.17771-0.0867 0.049-0.18495 0.086-0.29478 0.11113 0.049 0.0278 0.0913 0.0682 0.12706 0.12112z" fill="#373c44"/><path d="m68.335 82.192h-0.38518v-2.8452h0.38518z" fill="#373c44"/><path d="m69.111 81.011c0-0.10191 0.0195-0.19787 0.0585-0.28786 0.0391-0.09 0.0917-0.16847 0.15784-0.23528 0.0662-0.0669 0.14396-0.11979 0.23327-0.15881 0.0894-0.0391 0.18434-0.0586 0.28496-0.0586 0.10192 0 0.19753 0.0195 0.28684 0.0586 0.0893 0.039 0.16746 0.092 0.23431 0.15881 0.0669 0.0668 0.11979 0.14524 0.15881 0.23528 0.0391 0.09 0.0586 0.18595 0.0586 0.28786 0 0.10192-0.0195 0.19755-0.0586 0.2869-0.039 0.0894-0.092 0.16713-0.15881 0.23334-0.0668 0.0662-0.14496 0.11878-0.23431 0.15784-0.0893 0.039-0.18492 0.0585-0.28684 0.0585-0.10062 0-0.1956-0.0195-0.28496-0.0585-0.0893-0.0391-0.16707-0.0917-0.23327-0.15784-0.0662-0.0662-0.11878-0.14398-0.15784-0.23334-0.039-0.0894-0.0585-0.18498-0.0585-0.2869z" fill="#4d1a57"/><path d="m72.873 81.136-0.44674-1.1575c-0.0132-0.0344-0.0271-0.0744-0.0417-0.12009-0.0145-0.0457-0.0284-0.0943-0.0417-0.14596-0.0278 0.1072-0.0563 0.19653-0.0854 0.26799l-0.44674 1.1555h1.0622m0.80211 1.0563h-0.29781c-0.0344 0-0.0622-9e-3 -0.0834-0.0258-0.0212-0.0172-0.0371-0.039-0.0477-0.0655l-0.26605-0.68698h-1.2766l-0.26605 0.68698c-8e-3 0.0238-0.0232 0.045-0.0457 0.0635s-0.0503 0.0278-0.0834 0.0278h-0.29781l1.1377-2.8452h0.38912z" fill="#373c44"/></g><g fill="#646b79" stroke-width="1.9845"><path d="m63.412 84.738c0 0.10651-0.0169 0.20425-0.0506 0.29322-0.0337 0.089-0.0814 0.16554-0.1429 0.22972-0.0615 0.0641-0.13543 0.11393-0.22175 0.14934-0.0863 0.0354-0.18176 0.0531-0.28629 0.0531-0.10451 0-0.19977-0.0177-0.28577-0.0531s-0.15975-0.0852-0.22126-0.14934c-0.0615-0.0642-0.10915-0.14075-0.1429-0.22972-0.0337-0.089-0.0506-0.18671-0.0506-0.29322s0.0169-0.20425 0.0506-0.29322c0.0338-0.089 0.0814-0.1657 0.1429-0.2302s0.13526-0.1146 0.22126-0.15032c0.086-0.0357 0.18126-0.0536 0.28577-0.0536 0.10454 0 0.19996 0.0179 0.28629 0.0536 0.0863 0.0357 0.16024 0.0858 0.22175 0.15032 0.0615 0.0645 0.10916 0.14124 0.1429 0.2302 0.0337 0.089 0.0506 0.18671 0.0506 0.29322m-0.19744 0c0-0.0873-0.0119-0.1657-0.0357-0.23517-0.0238-0.0695-0.0576-0.12817-0.10123-0.17612-0.0436-0.048-0.0966-0.0848-0.15877-0.11064-0.0622-0.0258-0.13163-0.0387-0.20837-0.0387-0.0761 0-0.14519 0.0129-0.20737 0.0387-0.0622 0.0258-0.11526 0.0627-0.15925 0.11064-0.044 0.048-0.0779 0.10666-0.10171 0.17612-0.0238 0.0695-0.0357 0.14786-0.0357 0.23517 0 0.0873 0.0119 0.16554 0.0357 0.23468 0.0238 0.0691 0.0577 0.12767 0.10171 0.17564 0.044 0.0479 0.0971 0.0847 0.15925 0.11013 0.0622 0.0255 0.13131 0.0382 0.20737 0.0382 0.0767 0 0.14619-0.0127 0.20837-0.0382 0.0622-0.0255 0.11512-0.0622 0.15877-0.11013 0.0437-0.048 0.0774-0.10651 0.10123-0.17564 0.0238-0.0691 0.0357-0.14737 0.0357-0.23468z"/><path d="m63.806 85.206c0.0324 0.0436 0.0678 0.0744 0.10614 0.0923 0.0384 0.0179 0.0814 0.0268 0.12903 0.0268 0.0939 0 0.16603-0.0334 0.2163-0.10021 0.0503-0.0668 0.0754-0.16208 0.0754-0.2858 0-0.0655-6e-3 -0.12171-0.0174-0.16866-0.0116-0.047-0.0283-0.0855-0.0501-0.11562-0.0218-0.0301-0.0486-0.0521-0.0804-0.066s-0.0678-0.0208-0.10816-0.0208c-0.0575 0-0.10798 0.0132-0.15132 0.0397-0.0433 0.0264-0.0832 0.0638-0.11955 0.1121v0.48624m-9e-3 -0.60727c0.0423-0.0523 0.0913-0.0943 0.14683-0.12603 0.0556-0.0318 0.11909-0.0476 0.19053-0.0476 0.0582 0 0.11081 0.0111 0.15777 0.0332 0.047 0.0222 0.087 0.0549 0.12007 0.0982 0.0331 0.0433 0.0585 0.0971 0.0764 0.16125 0.0179 0.0641 0.0268 0.13791 0.0268 0.22126 0 0.0741-0.01 0.14306-0.0298 0.20689-0.0198 0.0638-0.0485 0.11908-0.0858 0.16573-0.0374 0.0466-0.083 0.0833-0.13693 0.11014-0.0539 0.0268-0.1146 0.0402-0.18208 0.0402-0.0615 0-0.11427-0.0104-0.15826-0.0312-0.044-0.0209-0.0829-0.0498-0.11658-0.0868v0.44454h-0.17763v-1.3455h0.10616c0.0252 0 0.0407 0.0122 0.0467 0.0367z"/><path d="m65.415 84.836c0-0.041-6e-3 -0.0785-0.0174-0.11261-0.0116-0.0341-0.0284-0.0635-0.0506-0.0883s-0.0491-0.044-0.0809-0.0576-0.0678-0.0204-0.10817-0.0204c-0.0847 0-0.15165 0.0247-0.20095 0.074s-0.0799 0.11757-0.0918 0.20488h0.5497m0.1429 0.47134c-0.0218 0.0265-0.048 0.0495-0.0784 0.069s-0.063 0.0355-0.0978 0.0481c-0.0347 0.0126-0.0706 0.022-0.10765 0.0282-0.037 6e-3 -0.0737 9e-3 -0.11013 9e-3 -0.0695 0-0.13347-0.0117-0.19202-0.0352-0.0585-0.0235-0.10915-0.0579-0.15183-0.1032-0.0427-0.0453-0.0759-0.10138-0.0997-0.16818s-0.0357-0.14357-0.0357-0.23023c0-0.0701 0.0108-0.1356 0.0323-0.19644 0.0215-0.0609 0.0524-0.11363 0.0927-0.15828 0.0404-0.0447 0.0897-0.0797 0.14787-0.10517 0.0582-0.0255 0.12371-0.0382 0.19646-0.0382 0.0602 0 0.11593 0.0101 0.16719 0.0303 0.0513 0.0202 0.0956 0.0493 0.13297 0.0873 0.0374 0.038 0.0667 0.085 0.0878 0.1409 0.0212 0.0559 0.0318 0.11957 0.0318 0.19101 0 0.0278-3e-3 0.0463-9e-3 0.0556-6e-3 9e-3 -0.0172 0.0139-0.0337 0.0139h-0.67177c2e-3 0.0635 0.0107 0.11875 0.0263 0.16573 0.0155 0.047 0.0372 0.0861 0.065 0.11759 0.0278 0.0314 0.0609 0.0549 0.0992 0.0704 0.0384 0.0155 0.0814 0.0233 0.129 0.0233 0.0443 0 0.0825-5e-3 0.11462-0.0154 0.0321-0.0103 0.0597-0.0213 0.0829-0.0332s0.0425-0.023 0.058-0.0333c0.0156-0.0103 0.0289-0.0154 0.0402-0.0154 0.0146 0 0.0258 6e-3 0.0337 0.0169z"/><path d="m65.956 84.589c0.0219-0.0245 0.045-0.0467 0.0695-0.0665s0.0504-0.0369 0.0779-0.0511 0.0566-0.0251 0.0873-0.0327c0.0308-8e-3 0.064-0.0114 0.0997-0.0114 0.0549 0 0.10336 9e-3 0.14536 0.0273 0.042 0.0182 0.0771 0.044 0.10519 0.0774 0.0281 0.0334 0.0494 0.0736 0.064 0.12059 0.0145 0.0469 0.0218 0.0989 0.0218 0.15577v0.64h-0.1776v-0.64c0-0.0761-0.0174-0.13513-0.0521-0.17712-0.0347-0.042-0.0875-0.063-0.15826-0.063-0.0522 0-0.10103 0.0126-0.14635 0.0377-0.0453 0.0251-0.0872 0.0592-0.12552 0.1022v0.74024h-0.17763v-1.0052h0.10617c0.0251 0 0.0407 0.0122 0.0467 0.0367z"/><path d="m66.757 85.448"/><path d="m67.841 84.715c0.0556 0 0.10469-7e-3 0.14735-0.0203 0.0427-0.0136 0.0784-0.0328 0.10717-0.0576 0.0288-0.0248 0.0505-0.0544 0.065-0.0888 0.0146-0.0344 0.0218-0.0724 0.0218-0.1141 0-0.0847-0.0278-0.14851-0.0834-0.19151s-0.1389-0.0645-0.25004-0.0645h-0.21036v0.53681h0.2024m0.6569 0.7333h-0.17067c-0.0351 0-0.0609-0.0136-0.0774-0.0407l-0.36913-0.50807c-0.0112-0.0159-0.0233-0.0273-0.0362-0.0342-0.0129-7e-3 -0.0329-0.0104-0.06-0.0104h-0.14586v0.59337h-0.1915v-1.4219h0.40186c0.09 0 0.16768 9e-3 0.23317 0.0273 0.0655 0.0182 0.11957 0.0445 0.16222 0.0789 0.0427 0.0344 0.0743 0.0759 0.0948 0.12452 0.0205 0.0486 0.0308 0.10302 0.0308 0.16322 0 0.0503-8e-3 0.0973-0.0238 0.14093-0.0159 0.0436-0.0388 0.0828-0.069 0.11758-0.0301 0.0347-0.0668 0.0643-0.11017 0.0888-0.0433 0.0245-0.0924 0.043-0.14732 0.0555 0.0245 0.0139 0.0456 0.0341 0.0635 0.0605z"/><path d="m69.178 84.996c-0.0814 3e-3 -0.15067 9e-3 -0.20789 0.0194-0.0572 0.0102-0.10384 0.0236-0.1399 0.0402-0.0361 0.0165-0.0622 0.0361-0.0784 0.0585-0.0162 0.0225-0.0243 0.0476-0.0243 0.0754 0 0.0264 4e-3 0.0493 0.0129 0.0685 9e-3 0.0192 0.0203 0.0349 0.0352 0.0471s0.0324 0.0212 0.0526 0.0268c0.0202 6e-3 0.0419 8e-3 0.065 8e-3 0.0311 0 0.0595-3e-3 0.0853-9e-3s0.0501-0.0154 0.0729-0.0273 0.0446-0.0261 0.0655-0.0427c0.0208-0.0165 0.0412-0.0354 0.061-0.0566v-0.20837m-0.57057-0.4108c0.0556-0.0536 0.11544-0.0936 0.1796-0.12007 0.0642-0.0265 0.13529-0.0397 0.21333-0.0397 0.0563 0 0.10619 9e-3 0.14984 0.0278 0.0437 0.0185 0.0804 0.0443 0.11013 0.0774 0.0298 0.0331 0.0523 0.0731 0.0675 0.12007 0.0152 0.047 0.0228 0.0985 0.0228 0.15477v0.643h-0.0784c-0.0172 0-0.0304-3e-3 -0.0397-8e-3 -9e-3 -6e-3 -0.0165-0.0167-0.0218-0.0333l-0.0198-0.0953c-0.0265 0.0245-0.0523 0.0461-0.0774 0.065s-0.0516 0.0347-0.0794 0.0476-0.0574 0.0228-0.0888 0.0298-0.0663 0.0104-0.10465 0.0104c-0.0391 0-0.0758-5e-3 -0.11017-0.0164-0.0344-0.0109-0.0643-0.0273-0.0898-0.0491s-0.0457-0.0495-0.0605-0.0828c-0.0149-0.0334-0.0223-0.0729-0.0223-0.11858 0-0.0397 0.0109-0.0779 0.0327-0.11462 0.0219-0.0367 0.0572-0.0693 0.10617-0.0978 0.049-0.0284 0.11279-0.0518 0.1915-0.07 0.0787-0.0182 0.17532-0.0286 0.28977-0.0312v-0.0784c0-0.0781-0.0169-0.13708-0.0506-0.17709-0.0337-0.04-0.083-0.0601-0.14787-0.0601-0.0436 0-0.0802 5e-3 -0.10965 0.0164-0.0294 0.0109-0.0549 0.0231-0.0764 0.0367s-0.04 0.0258-0.0556 0.0367c-0.0155 0.0109-0.0309 0.0164-0.0461 0.0164-0.0119 0-0.0222-3e-3 -0.0308-9e-3 -9e-3 -6e-3 -0.0159-0.0141-0.0218-0.0233z"/><path d="m70.165 84.996c-0.0814 3e-3 -0.15067 9e-3 -0.20788 0.0194-0.0572 0.0102-0.10385 0.0236-0.1399 0.0402-0.0361 0.0165-0.0622 0.0361-0.0784 0.0585-0.0162 0.0225-0.0243 0.0476-0.0243 0.0754 0 0.0264 4e-3 0.0493 0.0129 0.0685 9e-3 0.0192 0.0203 0.0349 0.0352 0.0471s0.0324 0.0212 0.0526 0.0268c0.0202 6e-3 0.0419 8e-3 0.065 8e-3 0.0311 0 0.0595-3e-3 0.0853-9e-3s0.0501-0.0154 0.0729-0.0273 0.0446-0.0261 0.0655-0.0427c0.0209-0.0165 0.0412-0.0354 0.061-0.0566v-0.20837m-0.57056-0.4108c0.0556-0.0536 0.11544-0.0936 0.1796-0.12007 0.0642-0.0265 0.13528-0.0397 0.21333-0.0397 0.0562 0 0.10619 9e-3 0.14983 0.0278 0.0437 0.0185 0.0804 0.0443 0.11014 0.0774 0.0298 0.0331 0.0523 0.0731 0.0675 0.12007 0.0152 0.047 0.0228 0.0985 0.0228 0.15477v0.643h-0.0784c-0.0172 0-0.0304-3e-3 -0.0397-8e-3 -9e-3 -6e-3 -0.0165-0.0167-0.0218-0.0333l-0.0198-0.0953c-0.0265 0.0245-0.0523 0.0461-0.0774 0.065s-0.0516 0.0347-0.0794 0.0476-0.0574 0.0228-0.0888 0.0298-0.0663 0.0104-0.10466 0.0104c-0.039 0-0.0758-5e-3 -0.11016-0.0164-0.0344-0.0109-0.0643-0.0273-0.0898-0.0491s-0.0457-0.0495-0.0605-0.0828c-0.0149-0.0334-0.0223-0.0729-0.0223-0.11858 0-0.0397 0.0109-0.0779 0.0327-0.11462 0.0218-0.0367 0.0572-0.0693 0.10617-0.0978 0.0489-0.0284 0.11279-0.0518 0.1915-0.07 0.0787-0.0182 0.17532-0.0286 0.28976-0.0312v-0.0784c0-0.0781-0.0169-0.13708-0.0506-0.17709-0.0337-0.04-0.083-0.0601-0.14786-0.0601-0.0436 0-0.0802 5e-3 -0.10965 0.0164-0.0294 0.0109-0.0549 0.0231-0.0764 0.0367s-0.04 0.0258-0.0556 0.0367-0.0309 0.0164-0.0461 0.0164c-0.0119 0-0.0222-3e-3 -0.0308-9e-3 -9e-3 -6e-3 -0.0159-0.0141-0.0218-0.0233z"/><path d="m71.261 84.682c-0.0331-0.0443-0.0688-0.0752-0.10717-0.0928-0.0384-0.0175-0.0814-0.0263-0.129-0.0263-0.0933 0-0.16505 0.0334-0.21533 0.10023-0.0503 0.0668-0.0754 0.16206-0.0754 0.28577 0 0.0655 6e-3 0.12155 0.0169 0.16818 0.0113 0.0466 0.0278 0.085 0.0496 0.1151 0.0219 0.0301 0.0486 0.0521 0.0804 0.066s0.0678 0.0208 0.10817 0.0208c0.0582 0 0.10896-0.0132 0.15228-0.0397 0.0434-0.0265 0.0832-0.0638 0.11959-0.11213v-0.48524m0.17663-0.69557v1.4616h-0.1052c-0.0251 0-0.041-0.0122-0.0476-0.0367l-0.0159-0.12207c-0.043 0.0516-0.092 0.0933-0.14687 0.12503-0.0549 0.0318-0.11839 0.0476-0.1905 0.0476-0.0576 0-0.10982-0.0111-0.1568-0.0332-0.0469-0.0222-0.087-0.0547-0.12003-0.0978-0.0331-0.043-0.0585-0.0966-0.0764-0.16074-0.0179-0.0642-0.0268-0.13793-0.0268-0.22126 0-0.0741 0.01-0.14305 0.0298-0.20689 0.0198-0.0639 0.0483-0.11926 0.0853-0.16621 0.037-0.047 0.0825-0.0839 0.13642-0.11065 0.0539-0.0268 0.11462-0.0402 0.18211-0.0402 0.0615 0 0.11426 0.0104 0.15825 0.0313 0.044 0.0208 0.0832 0.0498 0.11759 0.0868v-0.55667z"/><path d="m72.303 84.609c-8e-3 0.0146-0.0202 0.0218-0.0367 0.0218-0.01 0-0.0212-4e-3 -0.0338-0.0109-0.0126-7e-3 -0.0279-0.0154-0.0461-0.0243-0.0182-9e-3 -0.0399-0.0172-0.065-0.0248-0.0251-8e-3 -0.0549-0.0114-0.0893-0.0114-0.0298 0-0.0566 4e-3 -0.0804 0.0114-0.0238 8e-3 -0.0441 0.018-0.061 0.0312s-0.0298 0.0286-0.0387 0.0461c-9e-3 0.0175-0.0134 0.0365-0.0134 0.0571 0 0.0258 7e-3 0.0473 0.0223 0.0645 0.0149 0.0172 0.0346 0.0321 0.059 0.0447 0.0245 0.0126 0.0523 0.0236 0.0833 0.0332 0.0311 0.01 0.063 0.0199 0.0958 0.0308 0.0327 0.0109 0.0647 0.023 0.0958 0.0362s0.0589 0.0298 0.0833 0.0496c0.0245 0.0198 0.0442 0.0442 0.059 0.073 0.0149 0.0288 0.0223 0.0633 0.0223 0.10368 0 0.0463-8e-3 0.0892-0.0248 0.12852-0.0165 0.0393-0.041 0.0734-0.0734 0.1022s-0.0721 0.0514-0.11907 0.0679c-0.047 0.0165-0.10122 0.0248-0.16273 0.0248-0.0701 0-0.13362-0.0114-0.19051-0.0342-0.0569-0.0228-0.10518-0.0521-0.14489-0.0878l0.0417-0.0675c5e-3 -9e-3 0.0116-0.0152 0.0188-0.0198 7e-3 -5e-3 0.0165-7e-3 0.0278-7e-3 0.0119 0 0.0245 5e-3 0.0377 0.0139 0.0132 9e-3 0.0293 0.0195 0.0481 0.0307 0.0189 0.0113 0.0418 0.0215 0.069 0.0308 0.0271 9e-3 0.0609 0.0139 0.10123 0.0139 0.0344 0 0.0645-4e-3 0.0903-0.0134 0.0258-9e-3 0.0473-0.021 0.0645-0.0362s0.0299-0.0328 0.0382-0.0526c8e-3 -0.0198 0.0124-0.041 0.0124-0.0635 0-0.0278-7e-3 -0.0508-0.0224-0.069-0.0149-0.0182-0.0345-0.0337-0.059-0.0466s-0.0524-0.0241-0.0838-0.0337c-0.0314-0.01-0.0635-0.0197-0.0962-0.0302-0.0328-0.0106-0.0648-0.0227-0.0963-0.0362-0.0314-0.0136-0.0594-0.0306-0.0838-0.0511-0.0245-0.0205-0.0442-0.0458-0.059-0.0759-0.0149-0.0301-0.0223-0.0666-0.0223-0.10962 0-0.0384 8e-3 -0.0753 0.0238-0.11065 0.0159-0.0354 0.039-0.0665 0.0695-0.0933s0.0678-0.0481 0.11214-0.064c0.0443-0.0159 0.0949-0.0238 0.15183-0.0238 0.0661 0 0.1255 0.0104 0.17809 0.0312 0.0526 0.0208 0.0981 0.0494 0.13645 0.0858z"/><path d="m72.763 84.443v1.0052h-0.17664v-1.0052h0.17664m0.0377-0.31554c0 0.0172-3e-3 0.0332-0.0104 0.0481-7e-3 0.0149-0.0162 0.0281-0.0278 0.0397s-0.0251 0.0207-0.0407 0.0273c-0.0155 7e-3 -0.0319 0.01-0.0491 0.01s-0.0333-3e-3 -0.0481-0.01c-0.0149-7e-3 -0.0279-0.0157-0.0392-0.0273-0.0112-0.0116-0.0202-0.0248-0.0268-0.0397-7e-3 -0.0149-0.01-0.0309-0.01-0.0481s3e-3 -0.0336 0.01-0.0491c7e-3 -0.0156 0.0155-0.0291 0.0268-0.0407 0.0112-0.0116 0.0243-0.0207 0.0392-0.0273 0.0149-7e-3 0.0309-0.01 0.0481-0.01s0.0336 3e-3 0.0491 0.01 0.0291 0.0157 0.0407 0.0273 0.0209 0.0251 0.0278 0.0407c7e-3 0.0155 0.0104 0.0319 0.0104 0.0491z"/><path d="m73.22 84.589c0.0219-0.0245 0.045-0.0467 0.0695-0.0665s0.0504-0.0369 0.0779-0.0511 0.0566-0.0251 0.0873-0.0327c0.0308-8e-3 0.064-0.0114 0.0997-0.0114 0.0549 0 0.10336 9e-3 0.14536 0.0273 0.042 0.0182 0.0771 0.044 0.10519 0.0774 0.0281 0.0334 0.0494 0.0736 0.064 0.12059 0.0145 0.0469 0.0218 0.0989 0.0218 0.15577v0.64h-0.1776v-0.64c0-0.0761-0.0174-0.13513-0.0521-0.17712-0.0347-0.042-0.0875-0.063-0.15826-0.063-0.0522 0-0.10103 0.0126-0.14635 0.0377-0.0453 0.0251-0.0872 0.0592-0.12552 0.1022v0.74024h-0.17763v-1.0052h0.10617c0.0251 0 0.0407 0.0122 0.0467 0.0367z"/><path d="m74.21 85.448v-0.85434l-0.11114-0.0129c-0.0139-3e-3 -0.0253-8e-3 -0.0342-0.0154-9e-3 -7e-3 -0.0134-0.017-0.0134-0.0303v-0.0724h0.15877v-0.0972c0-0.0576 8e-3 -0.10865 0.0243-0.15329 0.0162-0.0447 0.0394-0.0824 0.0694-0.11313 0.0301-0.0308 0.0663-0.0541 0.10865-0.07 0.0423-0.0159 0.09-0.0238 0.1429-0.0238 0.045 0 0.0863 7e-3 0.12403 0.0199l-4e-3 0.0883c-1e-3 0.0159-0.0101 0.0245-0.0263 0.0258-0.0162 1e-3 -0.0379 2e-3 -0.065 2e-3 -0.0305 0-0.0581 4e-3 -0.0829 0.0119-0.0248 8e-3 -0.0461 0.0208-0.064 0.0387-0.0179 0.0178-0.0316 0.0413-0.0412 0.0704-0.01 0.0291-0.0144 0.0652-0.0144 0.10817v0.0923h0.28973v0.128h-0.2838v0.85733z"/><path d="m75.231 84.427c0.0734 0 0.13957 0.0123 0.19843 0.0367 0.0589 0.0245 0.10917 0.0592 0.15083 0.10417 0.0417 0.045 0.0736 0.0994 0.0958 0.16322 0.0222 0.0638 0.0332 0.13512 0.0332 0.21385 0 0.0794-0.0111 0.15082-0.0332 0.21433-0.0222 0.0635-0.0541 0.11774-0.0958 0.16274s-0.0919 0.0795-0.15083 0.10368c-0.0589 0.0242-0.12501 0.0362-0.19843 0.0362-0.0741 0-0.14074-0.0121-0.19995-0.0362-0.0592-0.0241-0.10963-0.0587-0.15132-0.10368-0.0417-0.045-0.0736-0.0992-0.0958-0.16274-0.0222-0.0635-0.0332-0.13495-0.0332-0.21433 0-0.0787 0.0111-0.15002 0.0332-0.21385 0.0222-0.0638 0.0541-0.11824 0.0958-0.16322 0.0417-0.045 0.0921-0.0797 0.15132-0.10417 0.0592-0.0245 0.12586-0.0367 0.19995-0.0367m0 0.89701c0.0992 0 0.17331-0.0332 0.22226-0.0997 0.049-0.0665 0.0734-0.15926 0.0734-0.27835 0-0.11973-0.0245-0.213-0.0734-0.2798s-0.12304-0.10024-0.22226-0.10024c-0.0503 0-0.0941 9e-3 -0.13149 0.0258-0.0374 0.0172-0.0684 0.042-0.0933 0.0744-0.0248 0.0324-0.0433 0.0722-0.0556 0.11955-0.0122 0.0473-0.0183 0.10071-0.0183 0.16025 0 0.11909 0.0246 0.21187 0.0739 0.27835 0.0493 0.0665 0.12419 0.0997 0.22475 0.0997z"/><path d="m76.1 84.644c0.0317-0.0688 0.0708-0.12255 0.11707-0.16125 0.0463-0.0387 0.10287-0.0581 0.1697-0.0581 0.0212 0 0.0415 2e-3 0.061 7e-3s0.0369 0.0119 0.0521 0.0218l-0.0129 0.132c-4e-3 0.0165-0.0139 0.0248-0.0298 0.0248-9e-3 0-0.0228-2e-3 -0.0407-6e-3s-0.038-6e-3 -0.0605-6e-3c-0.0318 0-0.06 5e-3 -0.0848 0.0139-0.0248 9e-3 -0.0469 0.023-0.0665 0.0412-0.0195 0.0182-0.0371 0.0407-0.0526 0.0675-0.0156 0.0268-0.0296 0.0574-0.0422 0.0918v0.63507h-0.17763v-1.0052h0.10123c0.0192 0 0.0324 4e-3 0.0397 0.0109 7e-3 7e-3 0.0122 0.0198 0.0149 0.0377z"/><path d="m76.655 85.448v-1.0052h0.10617c0.0252 0 0.0407 0.0122 0.0467 0.0367l0.0129 0.1032c0.0371-0.0456 0.0787-0.083 0.12501-0.1121 0.0463-0.0291 0.0999-0.0437 0.16076-0.0437 0.0675 0 0.12221 0.0189 0.16422 0.0566 0.042 0.0377 0.0723 0.0886 0.0908 0.1528 0.0146-0.0364 0.0332-0.0678 0.0561-0.0943 0.0228-0.0265 0.0485-0.0483 0.0769-0.0655s0.0587-0.0298 0.0908-0.0377c0.0321-8e-3 0.0647-0.0119 0.0977-0.0119 0.0529 0 0.10005 8e-3 0.14139 0.0253 0.0413 0.0169 0.0764 0.0415 0.10517 0.0739 0.0288 0.0324 0.0508 0.0723 0.066 0.11956 0.0152 0.0473 0.0228 0.10138 0.0228 0.16225v0.64h-0.17764v-0.64c0-0.0787-0.0172-0.13844-0.0516-0.17912-0.0344-0.0407-0.084-0.061-0.14883-0.061-0.0291 0-0.0567 5e-3 -0.0829 0.0154-0.0261 0.0102-0.0491 0.0253-0.069 0.0451s-0.0356 0.0448-0.0472 0.0749-0.0174 0.065-0.0174 0.10469v0.64h-0.1776v-0.64c0-0.0807-0.0162-0.14091-0.0486-0.1806-0.0324-0.0397-0.0797-0.0595-0.14187-0.0595-0.0437 0-0.084 0.0117-0.12107 0.0352-0.037 0.0235-0.0711 0.0554-0.1022 0.0957v0.74917z"/><path d="m78.833 84.996c-0.0814 3e-3 -0.15067 9e-3 -0.20788 0.0194-0.0572 0.0102-0.10385 0.0236-0.1399 0.0402-0.0361 0.0165-0.0622 0.0361-0.0784 0.0585-0.0162 0.0225-0.0243 0.0476-0.0243 0.0754 0 0.0264 4e-3 0.0493 0.0129 0.0685 9e-3 0.0192 0.0204 0.0349 0.0352 0.0471 0.0149 0.0122 0.0324 0.0212 0.0526 0.0268 0.0202 6e-3 0.0419 8e-3 0.065 8e-3 0.0311 0 0.0595-3e-3 0.0853-9e-3s0.0501-0.0154 0.0729-0.0273 0.0446-0.0261 0.0655-0.0427c0.0208-0.0165 0.0412-0.0354 0.061-0.0566v-0.20837m-0.57057-0.4108c0.0556-0.0536 0.11545-0.0936 0.1796-0.12007 0.0642-0.0265 0.13529-0.0397 0.21334-0.0397 0.0562 0 0.10619 9e-3 0.14983 0.0278 0.0437 0.0185 0.0804 0.0443 0.11014 0.0774 0.0298 0.0331 0.0523 0.0731 0.0675 0.12007 0.0152 0.047 0.0228 0.0985 0.0228 0.15477v0.643h-0.0784c-0.0172 0-0.0304-3e-3 -0.0397-8e-3 -9e-3 -6e-3 -0.0165-0.0167-0.0218-0.0333l-0.0198-0.0953c-0.0265 0.0245-0.0523 0.0461-0.0774 0.065s-0.0516 0.0347-0.0794 0.0476-0.0574 0.0228-0.0888 0.0298-0.0663 0.0104-0.10465 0.0104c-0.039 0-0.0758-5e-3 -0.11016-0.0164-0.0344-0.0109-0.0643-0.0273-0.0898-0.0491s-0.0456-0.0495-0.0605-0.0828c-0.0149-0.0334-0.0223-0.0729-0.0223-0.11858 0-0.0397 0.0109-0.0779 0.0327-0.11462 0.0219-0.0367 0.0572-0.0693 0.10617-0.0978 0.0489-0.0284 0.11279-0.0518 0.1915-0.07 0.0787-0.0182 0.17532-0.0286 0.28977-0.0312v-0.0784c0-0.0781-0.0169-0.13708-0.0506-0.17709-0.0337-0.04-0.083-0.0601-0.14787-0.0601-0.0436 0-0.0802 5e-3 -0.10965 0.0164-0.0294 0.0109-0.0549 0.0231-0.0764 0.0367s-0.04 0.0258-0.0556 0.0367c-0.0155 0.0109-0.0309 0.0164-0.0461 0.0164-0.0119 0-0.0222-3e-3 -0.0308-9e-3 -9e-3 -6e-3 -0.0159-0.0141-0.0218-0.0233z"/><path d="m80.197 85.448h-0.1766v-0.85734h-0.51797v0.60331c0 0.0423 0.0102 0.0738 0.0307 0.0943s0.047 0.0307 0.0794 0.0307c0.0185 0 0.0345-2e-3 0.0481-7e-3s0.0253-0.0104 0.0352-0.0164c0.01-6e-3 0.0184-0.0114 0.0253-0.0164 7e-3 -5e-3 0.0131-7e-3 0.0184-7e-3 9e-3 0 0.0175 6e-3 0.0248 0.0169l0.0516 0.0844c-0.0304 0.0284-0.0671 0.0508-0.11013 0.067-0.043 0.0162-0.0873 0.0243-0.13297 0.0243-0.0794 0-0.1404-0.0222-0.18308-0.0665-0.0427-0.0443-0.064-0.10817-0.064-0.1915v-0.61523h-0.12106c-0.0106 0-0.0195-3e-3 -0.0268-9e-3 -7e-3 -6e-3 -0.0109-0.016-0.0109-0.0293v-0.0704l0.16473-0.0218 0.0407-0.3096c2e-3 -0.01 6e-3 -0.018 0.0134-0.0243 7e-3 -6e-3 0.016-9e-3 0.0273-9e-3h0.0893v0.3463h0.69457v0.98534m0.0437-1.3277c0 0.0172-3e-3 0.0333-0.0104 0.0482-7e-3 0.0149-0.0162 0.0279-0.0278 0.0392-0.0116 0.0112-0.025 0.0202-0.0402 0.0268-0.0152 7e-3 -0.0314 0.01-0.0486 0.01s-0.0332-3e-3 -0.0481-0.01-0.0279-0.0156-0.0392-0.0268-0.0202-0.0243-0.0268-0.0392c-7e-3 -0.0149-0.01-0.031-0.01-0.0482s3e-3 -0.0336 0.01-0.0491 0.0155-0.0291 0.0268-0.0407c0.0112-0.0116 0.0243-0.0207 0.0392-0.0273 0.0149-7e-3 0.0309-0.01 0.0481-0.01s0.0334 3e-3 0.0486 0.01 0.0286 0.0157 0.0402 0.0273 0.0208 0.0251 0.0278 0.0407c7e-3 0.0155 0.0104 0.0319 0.0104 0.0491z"/><path d="m81.16 84.836c0-0.041-6e-3 -0.0785-0.0174-0.11261-0.0116-0.0341-0.0284-0.0635-0.0506-0.0883-0.0221-0.0248-0.0491-0.044-0.0808-0.0576-0.0318-0.0136-0.0678-0.0204-0.10817-0.0204-0.0847 0-0.15165 0.0247-0.20094 0.074-0.0493 0.0493-0.0799 0.11757-0.0918 0.20488h0.5497m0.14291 0.47134c-0.0219 0.0265-0.048 0.0495-0.0784 0.069s-0.063 0.0355-0.0977 0.0481-0.0706 0.022-0.10765 0.0282c-0.037 6e-3 -0.0738 9e-3 -0.11014 9e-3 -0.0695 0-0.13347-0.0117-0.19202-0.0352-0.0585-0.0235-0.10915-0.0579-0.15183-0.1032-0.0426-0.0453-0.0759-0.10138-0.0997-0.16818s-0.0357-0.14357-0.0357-0.23023c0-0.0701 0.0108-0.1356 0.0322-0.19644 0.0215-0.0609 0.0524-0.11363 0.0928-0.15828 0.0403-0.0447 0.0896-0.0797 0.14786-0.10517 0.0582-0.0255 0.12371-0.0382 0.19647-0.0382 0.0602 0 0.11593 0.0101 0.16718 0.0303 0.0513 0.0202 0.0956 0.0493 0.13297 0.0873 0.0374 0.038 0.0667 0.085 0.0878 0.1409 0.0212 0.0559 0.0318 0.11957 0.0318 0.19101 0 0.0278-3e-3 0.0463-9e-3 0.0556-6e-3 9e-3 -0.0172 0.0139-0.0337 0.0139h-0.67177c2e-3 0.0635 0.0107 0.11875 0.0263 0.16573 0.0156 0.047 0.0372 0.0861 0.065 0.11759 0.0278 0.0314 0.0609 0.0549 0.0992 0.0704 0.0384 0.0155 0.0814 0.0233 0.129 0.0233 0.0443 0 0.0825-5e-3 0.11461-0.0154 0.0321-0.0103 0.0597-0.0213 0.0829-0.0332s0.0425-0.023 0.0581-0.0333 0.0289-0.0154 0.0402-0.0154c0.0145 0 0.0258 6e-3 0.0337 0.0169z"/><path d="m81.395 85.448"/></g><path d="m82.104 84.858c0-0.0509 0.01-0.0989 0.0293-0.14387 0.0195-0.045 0.0458-0.0842 0.0789-0.11758 0.0331-0.0334 0.0719-0.0599 0.11659-0.0794 0.0446-0.0195 0.0921-0.0293 0.14241-0.0293 0.0509 0 0.0987 0.01 0.14336 0.0293 0.0447 0.0195 0.0837 0.046 0.1171 0.0794s0.0599 0.0726 0.0794 0.11758c0.0195 0.045 0.0293 0.0929 0.0293 0.14387 0 0.0509-0.01 0.0987-0.0293 0.14338-0.0195 0.0447-0.046 0.0835-0.0794 0.11662-0.0334 0.0331-0.0725 0.0594-0.1171 0.0789s-0.0924 0.0293-0.14336 0.0293c-0.0503 0-0.0978-0.01-0.14241-0.0293-0.0446-0.0195-0.0835-0.0458-0.11659-0.0789-0.0331-0.0331-0.0594-0.072-0.0789-0.11662-0.0195-0.0447-0.0293-0.0924-0.0293-0.14338z" fill="#4d1a57" stroke-width="1.9845"/><g fill="#646b79" stroke-width="1.9845"><path d="m83.048 85.448"/><path d="m84.493 84.92-0.22327-0.57847c-7e-3 -0.0172-0.0135-0.0372-0.0208-0.06-7e-3 -0.0228-0.0142-0.0472-0.0208-0.073-0.0139 0.0536-0.0281 0.0982-0.0427 0.13394l-0.22327 0.5775h0.53087m0.40087 0.5279h-0.14883c-0.0172 0-0.0311-4e-3 -0.0417-0.0129-0.0106-9e-3 -0.0185-0.0195-0.0238-0.0327l-0.13297-0.34333h-0.638l-0.13297 0.34333c-4e-3 0.0119-0.0116 0.0225-0.0228 0.0317-0.0112 9e-3 -0.0251 0.0139-0.0417 0.0139h-0.14883l0.56856-1.4219h0.19447z"/><path d="m85.207 84.644c0.0318-0.0688 0.0708-0.12255 0.11707-0.16125 0.0463-0.0387 0.10288-0.0581 0.1697-0.0581 0.0212 0 0.0415 2e-3 0.061 7e-3s0.0369 0.0119 0.0521 0.0218l-0.0129 0.132c-4e-3 0.0165-0.0139 0.0248-0.0298 0.0248-9e-3 0-0.0228-2e-3 -0.0407-6e-3s-0.038-6e-3 -0.0605-6e-3c-0.0318 0-0.06 5e-3 -0.0848 0.0139-0.0248 9e-3 -0.047 0.023-0.0665 0.0412s-0.037 0.0407-0.0526 0.0675c-0.0155 0.0268-0.0296 0.0574-0.0421 0.0918v0.63507h-0.17763v-1.0052h0.10123c0.0192 0 0.0324 4e-3 0.0397 0.0109 7e-3 7e-3 0.0122 0.0198 0.0149 0.0377z"/><path d="m86.418 84.621c-5e-3 7e-3 -0.0106 0.0129-0.0159 0.0169-5e-3 4e-3 -0.0126 6e-3 -0.0218 6e-3 -0.01 0-0.0208-4e-3 -0.0328-0.0124-0.0119-8e-3 -0.0266-0.0174-0.0442-0.0273-0.0175-0.01-0.039-0.019-0.0645-0.0273-0.0255-8e-3 -0.0567-0.0124-0.0938-0.0124-0.0496 0-0.0933 9e-3 -0.13099 0.0263-0.0377 0.0175-0.0693 0.0428-0.0948 0.0759s-0.0446 0.0731-0.0575 0.12006c-0.0129 0.047-0.0193 0.0995-0.0193 0.15777 0 0.0609 7e-3 0.11492 0.0209 0.16222s0.0336 0.087 0.059 0.1191c0.0255 0.0321 0.0562 0.0565 0.0923 0.0734s0.0766 0.0253 0.12158 0.0253c0.043 0 0.0784-5e-3 0.10617-0.0154 0.0278-0.0102 0.0508-0.0217 0.069-0.0342 0.0182-0.0126 0.0334-0.024 0.0456-0.0343s0.0243-0.0154 0.0362-0.0154c0.0145 0 0.0258 6e-3 0.0337 0.0169l0.0496 0.0645c-0.0218 0.0271-0.0466 0.0503-0.0744 0.0695s-0.0577 0.0352-0.0898 0.0481-0.0657 0.0223-0.10072 0.0283c-0.0351 6e-3 -0.0708 9e-3 -0.10716 9e-3 -0.0628 0-0.12123-0.0116-0.17515-0.0347-0.0539-0.0232-0.1007-0.0567-0.14039-0.10072-0.0397-0.044-0.0708-0.0981-0.0933-0.16222-0.0225-0.0642-0.0337-0.13728-0.0337-0.2193 0-0.0747 0.0104-0.14389 0.0312-0.2074 0.0208-0.0635 0.0513-0.11825 0.0913-0.16422 0.04-0.046 0.0893-0.0819 0.14787-0.10765 0.0585-0.0258 0.12585-0.0387 0.20191-0.0387 0.0708 0 0.13312 0.0114 0.18702 0.0343 0.0539 0.0228 0.10173 0.0551 0.14342 0.0967z"/><path d="m86.845 84.577c0.043-0.0457 0.0906-0.082 0.14287-0.10914 0.0523-0.0271 0.11246-0.0407 0.1806-0.0407 0.0549 0 0.10336 9e-3 0.14535 0.0273 0.042 0.0182 0.0771 0.044 0.1052 0.0774s0.0495 0.0736 0.064 0.12058c0.0145 0.0469 0.0218 0.0989 0.0218 0.15577v0.64h-0.1776v-0.64c0-0.0761-0.0174-0.13513-0.0521-0.17712-0.0347-0.042-0.0875-0.063-0.15825-0.063-0.0522 0-0.10103 0.0126-0.14635 0.0377-0.0453 0.0251-0.0872 0.0592-0.12552 0.1022v0.74024h-0.17763v-1.4616h0.17763z"/><path d="m87.961 84.443v1.0052h-0.17663v-1.0052h0.17663m0.0377-0.31554c0 0.0172-3e-3 0.0332-0.0104 0.0481-7e-3 0.0149-0.0162 0.0281-0.0278 0.0397s-0.0251 0.0207-0.0407 0.0273c-0.0155 7e-3 -0.0319 0.01-0.0491 0.01s-0.0333-3e-3 -0.0481-0.01c-0.0149-7e-3 -0.0279-0.0157-0.0392-0.0273-0.0112-0.0116-0.0202-0.0248-0.0268-0.0397-7e-3 -0.0149-0.01-0.0309-0.01-0.0481s3e-3 -0.0336 0.01-0.0491c7e-3 -0.0156 0.0156-0.0291 0.0268-0.0407s0.0243-0.0207 0.0392-0.0273c0.0149-7e-3 0.0309-0.01 0.0481-0.01s0.0336 3e-3 0.0491 0.01c0.0156 7e-3 0.0291 0.0157 0.0407 0.0273s0.0208 0.0251 0.0278 0.0407c7e-3 0.0155 0.0104 0.0319 0.0104 0.0491z"/><path d="m88.923 84.836c0-0.041-6e-3 -0.0785-0.0174-0.11261-0.0116-0.0341-0.0284-0.0635-0.0506-0.0883-0.0221-0.0248-0.0491-0.044-0.0808-0.0576s-0.0678-0.0204-0.10817-0.0204c-0.0847 0-0.15165 0.0247-0.20094 0.074-0.0493 0.0493-0.0799 0.11757-0.0918 0.20488h0.54971m0.1429 0.47134c-0.0219 0.0265-0.048 0.0495-0.0784 0.069s-0.063 0.0355-0.0978 0.0481c-0.0347 0.0126-0.0706 0.022-0.10765 0.0282-0.037 6e-3 -0.0738 9e-3 -0.11014 9e-3 -0.0695 0-0.13347-0.0117-0.19201-0.0352-0.0585-0.0235-0.10916-0.0579-0.15184-0.1032-0.0427-0.0453-0.0759-0.10138-0.0997-0.16818s-0.0357-0.14357-0.0357-0.23023c0-0.0701 0.0108-0.1356 0.0323-0.19644 0.0215-0.0609 0.0524-0.11363 0.0928-0.15828 0.0403-0.0447 0.0896-0.0797 0.14786-0.10517 0.0582-0.0255 0.12371-0.0382 0.19647-0.0382 0.0602 0 0.11593 0.0101 0.16718 0.0303 0.0513 0.0202 0.0956 0.0493 0.13297 0.0873 0.0374 0.038 0.0667 0.085 0.0878 0.1409 0.0212 0.0559 0.0318 0.11957 0.0318 0.19101 0 0.0278-3e-3 0.0463-9e-3 0.0556-6e-3 9e-3 -0.0172 0.0139-0.0337 0.0139h-0.67177c2e-3 0.0635 0.0107 0.11875 0.0263 0.16573 0.0156 0.047 0.0372 0.0861 0.065 0.11759 0.0278 0.0314 0.0609 0.0549 0.0992 0.0704 0.0384 0.0155 0.0814 0.0233 0.129 0.0233 0.0443 0 0.0825-5e-3 0.11461-0.0154 0.0321-0.0103 0.0597-0.0213 0.0829-0.0332s0.0425-0.023 0.0581-0.0333c0.0155-0.0103 0.0289-0.0154 0.0402-0.0154 0.0146 0 0.0258 6e-3 0.0337 0.0169z"/><path d="m89.356 85.448v-0.85434l-0.11114-0.0129c-0.0139-3e-3 -0.0253-8e-3 -0.0342-0.0154-9e-3 -7e-3 -0.0134-0.017-0.0134-0.0303v-0.0724h0.15877v-0.0972c0-0.0576 8e-3 -0.10865 0.0243-0.15329 0.0162-0.0447 0.0394-0.0824 0.0694-0.11313 0.0301-0.0308 0.0663-0.0541 0.10864-0.07 0.0424-0.0159 0.09-0.0238 0.14291-0.0238 0.045 0 0.0863 7e-3 0.12403 0.0199l-4e-3 0.0883c-1e-3 0.0159-0.0101 0.0245-0.0263 0.0258-0.0162 1e-3 -0.0379 2e-3 -0.065 2e-3 -0.0304 0-0.0581 4e-3 -0.0829 0.0119-0.0248 8e-3 -0.0461 0.0208-0.064 0.0387-0.0179 0.0178-0.0316 0.0413-0.0412 0.0704-0.01 0.0291-0.0144 0.0652-0.0144 0.10817v0.0923h0.28973v0.128h-0.2838v0.85733z"/><path d="m90.573 84.609c-8e-3 0.0146-0.0202 0.0218-0.0367 0.0218-0.01 0-0.0212-4e-3 -0.0338-0.0109-0.0126-7e-3 -0.0279-0.0154-0.0461-0.0243-0.0182-9e-3 -0.0399-0.0172-0.065-0.0248-0.0251-8e-3 -0.0549-0.0114-0.0893-0.0114-0.0298 0-0.0566 4e-3 -0.0804 0.0114-0.0238 8e-3 -0.0441 0.018-0.061 0.0312s-0.0298 0.0286-0.0387 0.0461c-9e-3 0.0175-0.0134 0.0365-0.0134 0.0571 0 0.0258 7e-3 0.0473 0.0223 0.0645 0.0149 0.0172 0.0346 0.0321 0.059 0.0447 0.0245 0.0126 0.0522 0.0236 0.0833 0.0332 0.0311 0.01 0.063 0.0199 0.0958 0.0308 0.0327 0.0109 0.0647 0.023 0.0958 0.0362s0.0589 0.0298 0.0833 0.0496c0.0245 0.0198 0.0442 0.0442 0.0591 0.073s0.0223 0.0633 0.0223 0.10368c0 0.0463-8e-3 0.0892-0.0248 0.12852-0.0165 0.0393-0.041 0.0734-0.0734 0.1022s-0.0721 0.0514-0.11906 0.0679c-0.047 0.0165-0.10123 0.0248-0.16274 0.0248-0.0701 0-0.13361-0.0114-0.1905-0.0342-0.0569-0.0228-0.10519-0.0521-0.1449-0.0878l0.0417-0.0675c5e-3 -9e-3 0.0116-0.0152 0.0188-0.0198 7e-3 -5e-3 0.0166-7e-3 0.0278-7e-3 0.0119 0 0.0245 5e-3 0.0377 0.0139 0.0132 9e-3 0.0293 0.0195 0.0481 0.0307 0.0189 0.0113 0.0418 0.0215 0.069 0.0308 0.0271 9e-3 0.0609 0.0139 0.10123 0.0139 0.0344 0 0.0645-4e-3 0.0903-0.0134 0.0258-9e-3 0.0473-0.021 0.0645-0.0362s0.0299-0.0328 0.0382-0.0526c8e-3 -0.0198 0.0124-0.041 0.0124-0.0635 0-0.0278-7e-3 -0.0508-0.0224-0.069-0.0149-0.0182-0.0346-0.0337-0.059-0.0466-0.0245-0.0129-0.0524-0.0241-0.0839-0.0337-0.0314-0.01-0.0635-0.0197-0.0962-0.0302-0.0327-0.0106-0.0648-0.0227-0.0963-0.0362-0.0314-0.0136-0.0594-0.0306-0.0839-0.0511s-0.0442-0.0458-0.059-0.0759c-0.0149-0.0301-0.0223-0.0666-0.0223-0.10962 0-0.0384 8e-3 -0.0753 0.0238-0.11065 0.0159-0.0354 0.039-0.0665 0.0695-0.0933s0.0678-0.0481 0.11214-0.064c0.0443-0.0159 0.0949-0.0238 0.15183-0.0238 0.0661 0 0.1255 0.0104 0.17809 0.0312 0.0526 0.0208 0.0981 0.0494 0.13645 0.0858z"/><path d="m91.155 85.464c-0.0794 0-0.14041-0.0222-0.18308-0.0665-0.0427-0.0443-0.064-0.10817-0.064-0.1915v-0.61524h-0.12107c-0.0106 0-0.0195-3e-3 -0.0268-9e-3 -7e-3 -6e-3 -0.0109-0.016-0.0109-0.0293v-0.0704l0.16474-0.0208 0.0407-0.3106c2e-3 -0.01 6e-3 -0.018 0.0134-0.0243 7e-3 -6e-3 0.016-9e-3 0.0273-9e-3h0.0893v0.3463h0.29073v0.12801h-0.29073v0.6033c0 0.0423 0.0102 0.0738 0.0307 0.0943s0.047 0.0307 0.0794 0.0307c0.0185 0 0.0346-2e-3 0.0481-7e-3 0.0136-5e-3 0.0253-0.0104 0.0352-0.0164 0.01-6e-3 0.0184-0.0114 0.0253-0.0164 7e-3 -5e-3 0.0131-7e-3 0.0184-7e-3 9e-3 0 0.0175 6e-3 0.0248 0.0169l0.0516 0.0844c-0.0304 0.0284-0.0671 0.0508-0.11014 0.067-0.043 0.0162-0.0873 0.0243-0.13297 0.0243z"/><path d="m92.104 84.996c-0.0814 3e-3 -0.15067 9e-3 -0.20788 0.0194-0.0572 0.0102-0.10385 0.0236-0.1399 0.0402-0.0361 0.0165-0.0622 0.0361-0.0784 0.0585-0.0162 0.0225-0.0243 0.0476-0.0243 0.0754 0 0.0264 4e-3 0.0493 0.0129 0.0685 9e-3 0.0192 0.0203 0.0349 0.0352 0.0471s0.0324 0.0212 0.0526 0.0268c0.0202 6e-3 0.0419 8e-3 0.065 8e-3 0.0311 0 0.0595-3e-3 0.0853-9e-3s0.0501-0.0154 0.0729-0.0273 0.0446-0.0261 0.0655-0.0427c0.0208-0.0165 0.0412-0.0354 0.061-0.0566v-0.20837m-0.57057-0.4108c0.0556-0.0536 0.11544-0.0936 0.1796-0.12007 0.0642-0.0265 0.13529-0.0397 0.21334-0.0397 0.0562 0 0.10618 9e-3 0.14983 0.0278 0.0437 0.0185 0.0804 0.0443 0.11013 0.0774 0.0298 0.0331 0.0523 0.0731 0.0675 0.12007 0.0152 0.047 0.0228 0.0985 0.0228 0.15477v0.643h-0.0784c-0.0172 0-0.0304-3e-3 -0.0397-8e-3 -9e-3 -6e-3 -0.0165-0.0167-0.0218-0.0333l-0.0198-0.0953c-0.0265 0.0245-0.0523 0.0461-0.0774 0.065s-0.0516 0.0347-0.0794 0.0476-0.0574 0.0228-0.0888 0.0298-0.0663 0.0104-0.10465 0.0104c-0.0391 0-0.0758-5e-3 -0.11017-0.0164-0.0344-0.0109-0.0643-0.0273-0.0898-0.0491s-0.0457-0.0495-0.0605-0.0828c-0.0149-0.0334-0.0223-0.0729-0.0223-0.11858 0-0.0397 0.0109-0.0779 0.0327-0.11462 0.0219-0.0367 0.0572-0.0693 0.10616-0.0978 0.049-0.0284 0.11279-0.0518 0.19151-0.07 0.0787-0.0182 0.17532-0.0286 0.28976-0.0312v-0.0784c0-0.0781-0.0169-0.13708-0.0506-0.17709-0.0337-0.04-0.083-0.0601-0.14786-0.0601-0.0437 0-0.0802 5e-3 -0.10965 0.0164-0.0294 0.0109-0.0549 0.0231-0.0764 0.0367s-0.04 0.0258-0.0556 0.0367-0.0309 0.0164-0.0461 0.0164c-0.0119 0-0.0222-3e-3 -0.0308-9e-3 -9e-3 -6e-3 -0.0159-0.0141-0.0218-0.0233z"/><path d="m92.712 84.589c0.0219-0.0245 0.045-0.0467 0.0695-0.0665s0.0504-0.0369 0.0779-0.0511c0.0274-0.0142 0.0566-0.0251 0.0873-0.0327 0.0308-8e-3 0.064-0.0114 0.0997-0.0114 0.0549 0 0.10336 9e-3 0.14535 0.0273 0.042 0.0182 0.0771 0.044 0.1052 0.0774s0.0495 0.0736 0.064 0.12059c0.0145 0.0469 0.0218 0.0989 0.0218 0.15577v0.64h-0.1776v-0.64c0-0.0761-0.0174-0.13513-0.0521-0.17712-0.0347-0.042-0.0875-0.063-0.15825-0.063-0.0523 0-0.10103 0.0126-0.14635 0.0377-0.0453 0.0251-0.0872 0.0592-0.12552 0.1022v0.74024h-0.17763v-1.0052h0.10616c0.0252 0 0.0407 0.0122 0.0467 0.0367z"/><path d="m94.308 84.682c-0.0331-0.0443-0.0688-0.0752-0.10717-0.0928-0.0384-0.0175-0.0814-0.0263-0.129-0.0263-0.0933 0-0.16504 0.0334-0.21533 0.10023-0.0503 0.0668-0.0754 0.16206-0.0754 0.28577 0 0.0655 6e-3 0.12155 0.0169 0.16818 0.0112 0.0466 0.0278 0.085 0.0496 0.1151 0.0219 0.0301 0.0487 0.0521 0.0804 0.066 0.0318 0.0139 0.0678 0.0208 0.10817 0.0208 0.0582 0 0.10896-0.0132 0.15228-0.0397 0.0434-0.0265 0.0832-0.0638 0.11959-0.11213v-0.48524m0.17663-0.69557v1.4616h-0.1052c-0.0251 0-0.041-0.0122-0.0476-0.0367l-0.0159-0.12207c-0.043 0.0516-0.092 0.0933-0.14687 0.12503-0.0549 0.0318-0.11839 0.0476-0.1905 0.0476-0.0576 0-0.10983-0.0111-0.1568-0.0332-0.047-0.0222-0.087-0.0547-0.12004-0.0978-0.0331-0.043-0.0585-0.0966-0.0764-0.16074-0.0179-0.0642-0.0268-0.13793-0.0268-0.22126 0-0.0741 0.01-0.14305 0.0298-0.20689 0.0198-0.0639 0.0483-0.11926 0.0853-0.16621 0.037-0.047 0.0825-0.0839 0.13642-0.11065 0.0539-0.0268 0.11463-0.0402 0.18211-0.0402 0.0615 0 0.11427 0.0104 0.15826 0.0313 0.044 0.0208 0.0832 0.0498 0.11758 0.0868v-0.55667z"/><path d="m95.309 84.996c-0.0814 3e-3 -0.15067 9e-3 -0.20789 0.0194-0.0572 0.0102-0.10384 0.0236-0.1399 0.0402-0.036 0.0165-0.0622 0.0361-0.0784 0.0585-0.0162 0.0225-0.0243 0.0476-0.0243 0.0754 0 0.0264 4e-3 0.0493 0.0129 0.0685 9e-3 0.0192 0.0203 0.0349 0.0352 0.0471s0.0324 0.0212 0.0526 0.0268c0.0202 6e-3 0.0419 8e-3 0.065 8e-3 0.0311 0 0.0595-3e-3 0.0853-9e-3s0.0501-0.0154 0.0729-0.0273 0.0446-0.0261 0.0655-0.0427c0.0208-0.0165 0.0412-0.0354 0.061-0.0566v-0.20837m-0.57056-0.4108c0.0556-0.0536 0.11544-0.0936 0.1796-0.12007 0.0642-0.0265 0.13529-0.0397 0.21333-0.0397 0.0562 0 0.10619 9e-3 0.14984 0.0278 0.0437 0.0185 0.0804 0.0443 0.11013 0.0774 0.0298 0.0331 0.0523 0.0731 0.0675 0.12007 0.0152 0.047 0.0228 0.0985 0.0228 0.15477v0.643h-0.0784c-0.0172 0-0.0304-3e-3 -0.0397-8e-3 -9e-3 -6e-3 -0.0165-0.0167-0.0218-0.0333l-0.0199-0.0953c-0.0265 0.0245-0.0523 0.0461-0.0774 0.065s-0.0516 0.0347-0.0794 0.0476-0.0574 0.0228-0.0888 0.0298-0.0663 0.0104-0.10466 0.0104c-0.039 0-0.0758-5e-3 -0.11016-0.0164-0.0344-0.0109-0.0643-0.0273-0.0898-0.0491s-0.0456-0.0495-0.0605-0.0828c-0.0149-0.0334-0.0223-0.0729-0.0223-0.11858 0-0.0397 0.0109-0.0779 0.0327-0.11462 0.0219-0.0367 0.0572-0.0693 0.10617-0.0978 0.049-0.0284 0.11279-0.0518 0.1915-0.07 0.0787-0.0182 0.17532-0.0286 0.28977-0.0312v-0.0784c0-0.0781-0.0169-0.13708-0.0506-0.17709-0.0337-0.04-0.083-0.0601-0.14787-0.0601-0.0436 0-0.0802 5e-3 -0.10965 0.0164-0.0294 0.0109-0.0549 0.0231-0.0764 0.0367s-0.04 0.0258-0.0556 0.0367-0.0309 0.0164-0.0461 0.0164c-0.0119 0-0.0222-3e-3 -0.0308-9e-3 -9e-3 -6e-3 -0.0159-0.0141-0.0218-0.0233z"/><path d="m96.295 84.996c-0.0814 3e-3 -0.15067 9e-3 -0.20788 0.0194-0.0572 0.0102-0.10385 0.0236-0.1399 0.0402-0.0361 0.0165-0.0622 0.0361-0.0784 0.0585-0.0162 0.0225-0.0243 0.0476-0.0243 0.0754 0 0.0264 4e-3 0.0493 0.0129 0.0685 9e-3 0.0192 0.0203 0.0349 0.0352 0.0471s0.0324 0.0212 0.0526 0.0268c0.0202 6e-3 0.0419 8e-3 0.065 8e-3 0.0311 0 0.0595-3e-3 0.0853-9e-3s0.0501-0.0154 0.0729-0.0273 0.0446-0.0261 0.0655-0.0427c0.0208-0.0165 0.0412-0.0354 0.061-0.0566v-0.20837m-0.57057-0.4108c0.0556-0.0536 0.11544-0.0936 0.1796-0.12007 0.0642-0.0265 0.13529-0.0397 0.21334-0.0397 0.0562 0 0.10618 9e-3 0.14983 0.0278 0.0437 0.0185 0.0804 0.0443 0.11013 0.0774 0.0298 0.0331 0.0523 0.0731 0.0675 0.12007 0.0152 0.047 0.0228 0.0985 0.0228 0.15477v0.643h-0.0784c-0.0172 0-0.0304-3e-3 -0.0397-8e-3 -9e-3 -6e-3 -0.0165-0.0167-0.0218-0.0333l-0.0198-0.0953c-0.0265 0.0245-0.0523 0.0461-0.0774 0.065s-0.0516 0.0347-0.0794 0.0476-0.0574 0.0228-0.0888 0.0298-0.0663 0.0104-0.10465 0.0104c-0.0391 0-0.0758-5e-3 -0.11017-0.0164-0.0344-0.0109-0.0643-0.0273-0.0898-0.0491s-0.0457-0.0495-0.0605-0.0828c-0.0149-0.0334-0.0223-0.0729-0.0223-0.11858 0-0.0397 0.0109-0.0779 0.0327-0.11462 0.0219-0.0367 0.0572-0.0693 0.10616-0.0978 0.049-0.0284 0.11279-0.0518 0.19151-0.07 0.0787-0.0182 0.17532-0.0286 0.28976-0.0312v-0.0784c0-0.0781-0.0169-0.13708-0.0506-0.17709-0.0337-0.04-0.083-0.0601-0.14786-0.0601-0.0437 0-0.0802 5e-3 -0.10966 0.0164-0.0294 0.0109-0.0549 0.0231-0.0764 0.0367s-0.04 0.0258-0.0556 0.0367-0.0309 0.0164-0.0461 0.0164c-0.0119 0-0.0222-3e-3 -0.0308-9e-3 -9e-3 -6e-3 -0.0159-0.0141-0.0218-0.0233z"/><path d="m96.904 84.644c0.0317-0.0688 0.0708-0.12255 0.11706-0.16125 0.0463-0.0387 0.10288-0.0581 0.1697-0.0581 0.0212 0 0.0415 2e-3 0.061 7e-3s0.0369 0.0119 0.0521 0.0218l-0.0129 0.132c-4e-3 0.0165-0.0139 0.0248-0.0298 0.0248-9e-3 0-0.0228-2e-3 -0.0407-6e-3s-0.038-6e-3 -0.0605-6e-3c-0.0317 0-0.06 5e-3 -0.0848 0.0139-0.0248 9e-3 -0.0469 0.023-0.0665 0.0412-0.0195 0.0182-0.0371 0.0407-0.0526 0.0675-0.0156 0.0268-0.0296 0.0574-0.0421 0.0918v0.63507h-0.17764v-1.0052h0.10123c0.0192 0 0.0324 4e-3 0.0397 0.0109 7e-3 7e-3 0.0123 0.0198 0.0149 0.0377z"/><path d="m98.074 84.682c-0.0331-0.0443-0.0688-0.0752-0.10717-0.0928-0.0384-0.0175-0.0814-0.0263-0.129-0.0263-0.0933 0-0.16504 0.0334-0.21533 0.10023-0.0503 0.0668-0.0754 0.16206-0.0754 0.28577 0 0.0655 6e-3 0.12155 0.0169 0.16818 0.0112 0.0466 0.0278 0.085 0.0496 0.1151 0.0219 0.0301 0.0486 0.0521 0.0804 0.066s0.0678 0.0208 0.10816 0.0208c0.0582 0 0.10897-0.0132 0.15229-0.0397 0.0433-0.0265 0.0832-0.0638 0.11958-0.11213v-0.48524m0.17664-0.69557v1.4616h-0.1052c-0.0251 0-0.041-0.0122-0.0476-0.0367l-0.0159-0.12207c-0.043 0.0516-0.0919 0.0933-0.14686 0.12503-0.0549 0.0318-0.11839 0.0476-0.19051 0.0476-0.0575 0-0.10982-0.0111-0.15679-0.0332-0.047-0.0222-0.087-0.0547-0.12004-0.0978-0.0331-0.043-0.0585-0.0966-0.0764-0.16074-0.0179-0.0642-0.0268-0.13793-0.0268-0.22126 0-0.0741 0.01-0.14305 0.0298-0.20689 0.0198-0.0639 0.0483-0.11926 0.0853-0.16621 0.037-0.047 0.0825-0.0839 0.13642-0.11065 0.0539-0.0268 0.11463-0.0402 0.18211-0.0402 0.0615 0 0.11427 0.0104 0.15826 0.0313 0.044 0.0208 0.0832 0.0498 0.11758 0.0868v-0.55667z"/></g><path d="m65.007 80.77c0 0.21312-0.0361 0.40869-0.10833 0.5867-0.0722 0.17802-0.17421 0.33124-0.30594 0.45965-0.1317 0.12837-0.28996 0.22798-0.47477 0.29883-0.18482 0.0708-0.38913 0.10622-0.61293 0.10622-0.22376 0-0.4277-0.0354-0.61182-0.10622-0.18413-0.0709-0.34204-0.17046-0.47374-0.29883-0.13169-0.12841-0.23367-0.28163-0.30594-0.45965-0.0722-0.17801-0.10833-0.37358-0.10833-0.5867s0.0361-0.40869 0.10833-0.5867c0.0723-0.17802 0.17425-0.33156 0.30594-0.46062 0.1317-0.12906 0.28961-0.22931 0.47374-0.30077 0.18412-0.0715 0.38806-0.10725 0.61182-0.10725 0.2238 0 0.42811 0.03575 0.61293 0.10725 0.18481 0.0715 0.34307 0.17171 0.47477 0.30077 0.13173 0.12906 0.23372 0.2826 0.30594 0.46062 0.0722 0.17801 0.10833 0.37358 0.10833 0.5867m-0.4227 0c0-0.1747-0.0255-0.33155-0.0765-0.47055s-0.12324-0.25646-0.21673-0.3524c-0.0934-0.096-0.20675-0.16977-0.33992-0.2214-0.13312-0.0516-0.28182-0.0774-0.44611-0.0774-0.16286 0-0.31085 0.0258-0.44397 0.0774-0.13313 0.0516-0.24678 0.12543-0.34096 0.2214-0.0942 0.0959-0.16677 0.2134-0.21777 0.3524s-0.0765 0.29585-0.0765 0.47055c0 0.17471 0.0255 0.33123 0.0765 0.46958 0.051 0.13831 0.12359 0.25545 0.21777 0.35143 0.0942 0.0959 0.20783 0.16939 0.34096 0.22037 0.13312 0.0509 0.28111 0.0764 0.44397 0.0764 0.16429 0 0.31299-0.0255 0.44611-0.0764 0.13317-0.051 0.24647-0.12443 0.33992-0.22037 0.0935-0.096 0.16573-0.21312 0.21673-0.35143 0.051-0.13835 0.0765-0.29487 0.0765-0.46958z" fill="#373c44" stroke-width="4.1075"/><g transform="matrix(.26458 0 0 .26458 49.118 67.586)" clip-path="url(#clip_38)"><path d="m53.039 47.816c0.191-0.097 0.418-0.039 0.586 0.075 0.914 0.523 1.828 1.043 2.742 1.57 0.285 0.172 0.231 0.617-0.066 0.754-0.926 0.527-1.848 1.058-2.774 1.586-0.265 0.14-0.672 4e-3 -0.715-0.293-0.019-0.32-3e-3 -0.645-7e-3 -0.965 0-0.789-4e-3 -1.582 0-2.375 4e-3 -0.145 0.093-0.281 0.234-0.352z" fill="#1d6a54"/></g></g></svg>
