<svg id="svg1" width="35.724mm" height="6.3732mm" version="1.1" viewBox="0 0 35.724 6.3732" xmlns="http://www.w3.org/2000/svg"><defs id="defs1"><clipPath id="clip_38"><path id="path28" d="m52.801 47.77h4.199v4.23h-4.199z"/></clipPath></defs><g id="layer1" transform="translate(-63.265 -33.73)"><path id="use72" d="m67.507 35.139c0.11121 0 0.20949-0.01355 0.29484-0.04066 0.0854-0.02714 0.15687-0.06554 0.21443-0.11518 0.0576-0.04964 0.10097-0.10888 0.13009-0.17771 0.0291-0.06883 0.0437-0.14493 0.0437-0.22831 0-0.16941-0.0556-0.29714-0.16681-0.38318-0.11117-0.08604-0.27793-0.12906-0.5003-0.12906h-0.42093v1.0741h0.40499m1.3144 1.4673h-0.3415c-0.0702 0-0.12178-0.02712-0.15487-0.08137l-0.7386-1.0166c-0.0225-0.03175-0.0467-0.05457-0.0725-0.06847-0.0258-0.01389-0.0658-0.02084-0.12009-0.02084h-0.29187v1.1873h-0.38318v-2.8452h0.80411c0.17999 0 0.33551 0.01822 0.46655 0.05465 0.13104 0.03639 0.23923 0.08901 0.32459 0.15784 0.0854 0.06883 0.14861 0.15188 0.18965 0.24915 0.041 0.09727 0.0616 0.20613 0.0616 0.32659 0 0.10062-0.0159 0.19462-0.0477 0.28199-0.0317 0.08733-0.0777 0.16576-0.13796 0.23528-0.0602 0.06948-0.13371 0.12872-0.22043 0.17771-0.0867 0.04896-0.18495 0.086-0.29478 0.11112 0.049 0.02779 0.0913 0.06816 0.12706 0.12112z" fill="#373c44" stroke-width="3.9709"/><path id="use73" d="m69.594 36.607h-0.38518v-2.8452h0.38518z" fill="#373c44" stroke-width="3.9709"/><path id="use74" d="m70.371 35.425c0-0.10192 0.0195-0.19787 0.0585-0.28787 0.0391-0.09004 0.0917-0.16846 0.15784-0.23528 0.0662-0.06685 0.14396-0.11979 0.23327-0.15881 0.0894-0.03906 0.18434-0.05859 0.28496-0.05859 0.10192 0 0.19753 0.01953 0.28684 0.05859 0.0893 0.03902 0.16746 0.09196 0.23431 0.15881 0.0669 0.06681 0.11979 0.14524 0.15881 0.23528 0.0391 0.09 0.0586 0.18595 0.0586 0.28787 0 0.10191-0.0195 0.19755-0.0586 0.2869-0.039 0.08935-0.092 0.16713-0.15881 0.23334-0.0668 0.06616-0.14496 0.11878-0.23431 0.15784-0.0893 0.03902-0.18492 0.05853-0.28684 0.05853-0.10062 0-0.1956-0.01951-0.28496-0.05853-0.0893-0.03906-0.16707-0.09168-0.23327-0.15784-0.0662-0.06621-0.11878-0.14398-0.15784-0.23334-0.039-0.08935-0.0585-0.18498-0.0585-0.2869z" fill="#4d1a57" stroke-width="3.9709"/><path id="use75" d="m74.133 35.55-0.44674-1.1575c-0.0132-0.03442-0.0271-0.07445-0.0417-0.12009-0.0146-0.04569-0.0284-0.09434-0.0417-0.14596-0.0278 0.10721-0.0563 0.19654-0.0854 0.26799l-0.44674 1.1555h1.0622m0.80211 1.0563h-0.29781c-0.0344 0-0.0622-0.0086-0.0834-0.02581s-0.0371-0.03904-0.0477-0.0655l-0.26605-0.68698h-1.2766l-0.26605 0.68698c-8e-3 0.02379-0.0232 0.04496-0.0457 0.0635s-0.0503 0.02781-0.0834 0.02781h-0.29781l1.1377-2.8452h0.38912z" fill="#373c44" stroke-width="3.9709"/><path id="use76" d="m64.672 39.052c0 0.10651-0.0169 0.20425-0.0506 0.29322-0.0337 0.08897-0.0814 0.16554-0.1429 0.22972-0.0615 0.06416-0.13543 0.11394-0.22175 0.14935-0.0863 0.03539-0.18176 0.05308-0.28629 0.05308-0.10451 0-0.19977-0.0177-0.28577-0.05308-0.086-0.03541-0.15975-0.08519-0.22126-0.14935-0.0615-0.06418-0.10915-0.14075-0.1429-0.22972-0.0337-0.08897-0.0506-0.18671-0.0506-0.29322s0.0169-0.20425 0.0506-0.29322c0.0337-0.08897 0.0814-0.1657 0.1429-0.2302s0.13526-0.11461 0.22126-0.15032c0.086-0.03573 0.18126-0.0536 0.28577-0.0536 0.10454 0 0.19996 0.01787 0.28629 0.0536 0.0863 0.03571 0.16024 0.08582 0.22175 0.15032 0.0615 0.0645 0.10916 0.14123 0.1429 0.2302 0.0337 0.08897 0.0506 0.18671 0.0506 0.29322m-0.19744 0c0-0.08731-0.0119-0.1657-0.0357-0.23517-0.0238-0.06947-0.0576-0.12817-0.10123-0.17612-0.0437-0.04797-0.0966-0.08485-0.15877-0.11065-0.0622-0.0258-0.13163-0.0387-0.20837-0.0387-0.0761 0-0.14519 0.0129-0.20737 0.0387-0.0622 0.0258-0.11526 0.06268-0.15925 0.11065-0.044 0.04795-0.0779 0.10665-0.10171 0.17612-0.0238 0.06947-0.0357 0.14786-0.0357 0.23517 0 0.08731 0.0119 0.16554 0.0357 0.23468 0.0238 0.06912 0.0577 0.12767 0.10171 0.17563 0.044 0.04794 0.0971 0.08466 0.15925 0.11013 0.0622 0.02546 0.13131 0.03819 0.20737 0.03819 0.0767 0 0.14619-0.01273 0.20837-0.03819 0.0622-0.02548 0.11512-0.06219 0.15877-0.11013 0.0437-0.04797 0.0774-0.10651 0.10123-0.17563 0.0238-0.06914 0.0357-0.14737 0.0357-0.23468z" fill="#646b79" stroke-width="1.9845"/><path id="use77" d="m65.066 39.521c0.0324 0.04365 0.0678 0.0744 0.10614 0.09227 0.0384 0.01787 0.0814 0.0268 0.12903 0.0268 0.0939 0 0.16603-0.0334 0.2163-0.1002 0.0503-0.06682 0.0754-0.16209 0.0754-0.2858 0-0.06549-6e-3 -0.12171-0.0174-0.16867-0.0116-0.04698-0.0283-0.08552-0.0501-0.11562-0.0218-0.0301-0.0486-0.0521-0.0804-0.06598-0.0317-0.01389-0.0678-0.02083-0.10816-0.02083-0.0575 0-0.10798 0.01323-0.15132 0.0397-0.0433 0.02645-0.0832 0.06381-0.11955 0.1121v0.48623m-9e-3 -0.60727c0.0423-0.05227 0.0913-0.09428 0.14683-0.12603 0.0556-0.03176 0.11909-0.04763 0.19053-0.04763 0.0582 0 0.11081 0.01108 0.15777 0.03325 0.047 0.02217 0.087 0.05491 0.12007 0.09823 0.0331 0.04332 0.0585 0.09707 0.0764 0.16125 0.0179 0.06416 0.0268 0.13791 0.0268 0.22127 0 0.07409-0.01 0.14305-0.0298 0.20688-0.0198 0.06383-0.0485 0.11908-0.0859 0.16573-0.0374 0.04663-0.083 0.08334-0.13693 0.11014-0.0539 0.02679-0.1146 0.04018-0.18208 0.04018-0.0615 0-0.11427-0.01042-0.15826-0.03125-0.044-0.02085-0.0829-0.0498-0.11658-0.08685v0.44454h-0.17763v-1.3455h0.10616c0.0252 0 0.0407 0.01223 0.0467 0.0367z" fill="#646b79" stroke-width="1.9845"/><path id="use78" d="m66.674 39.15c0-0.041-6e-3 -0.07854-0.0174-0.11262-0.0116-0.03408-0.0284-0.06351-0.0506-0.0883-0.0221-0.02481-0.0491-0.044-0.0808-0.05757-0.0318-0.01356-0.0678-0.02035-0.10817-0.02035-0.0847 0-0.15165 0.02465-0.20095 0.07395-0.0493 0.04928-0.0799 0.11757-0.0918 0.20489h0.5497m0.1429 0.47133c-0.0218 0.02647-0.048 0.04946-0.0784 0.06898-0.0304 0.0195-0.063 0.03554-0.0977 0.04812-0.0347 0.01256-0.0706 0.02197-0.10765 0.02825-0.037 0.0063-0.0738 0.0094-0.11013 0.0094-0.0695 0-0.13347-0.01174-0.19202-0.03522-0.0585-0.0235-0.10915-0.0579-0.15183-0.1032-0.0427-0.04532-0.0759-0.10138-0.0997-0.16818-0.0238-0.06682-0.0357-0.14356-0.0357-0.23023 0-0.07011 0.0108-0.13559 0.0323-0.19644 0.0215-0.06087 0.0524-0.11363 0.0927-0.15828 0.0404-0.04465 0.0897-0.07971 0.14787-0.10517 0.0582-0.02548 0.12371-0.03822 0.19646-0.03822 0.0602 0 0.11593 0.01009 0.16719 0.03028 0.0513 0.02017 0.0956 0.04927 0.13297 0.0873 0.0374 0.03803 0.0667 0.085 0.0878 0.1409 0.0212 0.0559 0.0318 0.11957 0.0318 0.19102 0 0.02778-3e-3 0.0463-9e-3 0.05557-6e-3 0.0092-0.0172 0.01387-0.0337 0.01387h-0.67177c2e-3 0.06351 0.0107 0.11875 0.0263 0.16573 0.0155 0.04696 0.0372 0.08615 0.065 0.11758 0.0278 0.03141 0.0609 0.05489 0.0992 0.07043 0.0384 0.01555 0.0814 0.02332 0.129 0.02332 0.0443 0 0.0825-0.0051 0.11462-0.01538 0.0321-0.01026 0.0597-0.02133 0.0828-0.03322 0.0232-0.01191 0.0425-0.023 0.0581-0.03325 0.0155-0.01026 0.0289-0.01538 0.0402-0.01538 0.0146 0 0.0258 0.0056 0.0337 0.01687z" fill="#646b79" stroke-width="1.9845"/><path id="use79" d="m67.216 38.903c0.0219-0.02449 0.045-0.04665 0.0695-0.0665s0.0504-0.03687 0.0779-0.05109c0.0275-0.01423 0.0566-0.02514 0.0873-0.03273 0.0308-0.0076 0.064-0.01142 0.0997-0.01142 0.0549 0 0.10336 0.0091 0.14536 0.02728 0.042 0.01819 0.0771 0.04399 0.10519 0.0774 0.0281 0.03341 0.0495 0.0736 0.064 0.12058 0.0146 0.04696 0.0218 0.09888 0.0218 0.15577v0.64h-0.1776v-0.64c0-0.07609-0.0174-0.13513-0.0521-0.17712-0.0347-0.04201-0.0875-0.06302-0.15826-0.06302-0.0522 0-0.10103 0.01256-0.14635 0.0377-0.0453 0.02513-0.0872 0.0592-0.12552 0.1022v0.74024h-0.17763v-1.0052h0.10617c0.0251 0 0.0407 0.01223 0.0467 0.0367z" fill="#646b79" stroke-width="1.9845"/><path id="use80" d="m68.017 39.763" fill="#646b79" stroke-width="1.9845"/><path id="use81" d="m68.832 38.959c0.0317-0.0688 0.0708-0.12255 0.11707-0.16125 0.0463-0.0387 0.10287-0.05805 0.1697-0.05805 0.0212 0 0.0415 0.0023 0.061 7e-3 0.0195 0.0046 0.0369 0.01189 0.0521 0.0218l-0.0129 0.132c-4e-3 0.01653-0.0139 0.0248-0.0298 0.0248-9e-3 0-0.0228-2e-3 -0.0407-0.0059-0.0179-4e-3 -0.038-6e-3 -0.0605-6e-3 -0.0318 0-0.06 0.0046-0.0849 0.0139-0.0248 0.0092-0.047 0.02296-0.0665 0.04115s-0.037 0.04069-0.0526 0.0675c-0.0155 0.02679-0.0296 0.05737-0.0421 0.09175v0.63507h-0.17763v-1.0052h0.10123c0.0192 0 0.0324 0.0036 0.0397 0.01093 7e-3 0.0073 0.0122 0.01983 0.0149 0.0377z" fill="#646b79" stroke-width="1.9845"/><path id="use82" d="m69.914 39.31c-0.0814 0.0026-0.15067 0.0091-0.20789 0.01935-0.0572 0.01026-0.10384 0.02365-0.1399 0.04018-0.0361 0.01653-0.0622 0.03605-0.0784 0.05853-0.0162 0.02249-0.0243 0.04763-0.0243 0.07543 0 0.02645 4e-3 0.04927 0.0129 0.06847 9e-3 0.01918 0.0203 0.03488 0.0352 0.04712 0.0149 0.01223 0.0324 0.02117 0.0526 0.0268 0.0202 0.0056 0.0419 0.0084 0.065 0.0084 0.0311 0 0.0595-0.0031 0.0853-0.0094s0.0501-0.01537 0.0729-0.02728 0.0446-0.02613 0.0655-0.04267c0.0208-0.01653 0.0412-0.03539 0.061-0.05657v-0.20837m-0.57057-0.4108c0.0556-0.05358 0.11544-0.0936 0.1796-0.12007 0.0642-0.02647 0.13529-0.0397 0.21333-0.0397 0.0563 0 0.10619 0.0093 0.14984 0.0278 0.0437 0.01851 0.0804 0.04431 0.11013 0.0774 0.0298 0.03307 0.0523 0.07309 0.0675 0.12007 0.0152 0.04696 0.0228 0.09855 0.0228 0.15477v0.643h-0.0784c-0.0172 0-0.0304-0.0028-0.0397-0.0084-9e-3 -0.0056-0.0165-0.01672-0.0218-0.03325l-0.0198-0.09527c-0.0265 0.02447-0.0523 0.04613-0.0774 0.06498s-0.0516 0.03473-0.0794 0.04763-0.0574 0.02282-0.0888 0.02977c-0.0314 0.0069-0.0663 0.01042-0.10465 0.01042-0.0391 0-0.0758-0.0055-0.11017-0.01635-0.0344-0.01092-0.0643-0.02729-0.0898-0.04912-0.0255-0.02184-0.0457-0.04946-0.0605-0.08285-0.0149-0.03341-0.0223-0.07294-0.0223-0.11858 0-0.03969 0.0109-0.0779 0.0327-0.11462 0.0219-0.03672 0.0572-0.0693 0.10617-0.09775 0.049-0.02844 0.11279-0.05176 0.1915-0.06995 0.0787-0.01819 0.17532-0.02861 0.28977-0.03125v-0.0784c0-0.07805-0.0169-0.13708-0.0506-0.17709-0.0337-0.04003-0.083-0.06005-0.14787-0.06005-0.0437 0-0.0802 0.0055-0.10965 0.01638-0.0294 0.0109-0.0549 0.02314-0.0764 0.0367-0.0215 0.01357-0.04 0.02581-0.0556 0.03673-0.0155 0.0109-0.0309 0.01635-0.0461 0.01635-0.0119 0-0.0222-0.0031-0.0308-0.0094-9e-3 -0.0063-0.0159-0.01407-0.0218-0.02332z" fill="#646b79" stroke-width="1.9845"/><path id="use83" d="m70.9 39.31c-0.0814 0.0026-0.15067 0.0091-0.20788 0.01935-0.0572 0.01026-0.10385 0.02365-0.1399 0.04018-0.0361 0.01653-0.0622 0.03605-0.0784 0.05853-0.0162 0.02249-0.0243 0.04763-0.0243 0.07543 0 0.02645 4e-3 0.04927 0.0129 0.06847 9e-3 0.01918 0.0203 0.03488 0.0352 0.04712 0.0149 0.01223 0.0324 0.02117 0.0526 0.0268 0.0202 0.0056 0.0419 0.0084 0.065 0.0084 0.0311 0 0.0595-0.0031 0.0853-0.0094s0.0501-0.01537 0.0729-0.02728 0.0446-0.02613 0.0655-0.04267c0.0209-0.01653 0.0412-0.03539 0.061-0.05657v-0.20837m-0.57056-0.4108c0.0556-0.05358 0.11544-0.0936 0.1796-0.12007 0.0642-0.02647 0.13528-0.0397 0.21333-0.0397 0.0562 0 0.10619 0.0093 0.14983 0.0278 0.0437 0.01851 0.0804 0.04431 0.11014 0.0774 0.0298 0.03307 0.0523 0.07309 0.0675 0.12007 0.0152 0.04696 0.0228 0.09855 0.0228 0.15477v0.643h-0.0784c-0.0172 0-0.0304-0.0028-0.0397-0.0084-9e-3 -0.0056-0.0165-0.01672-0.0218-0.03325l-0.0198-0.09527c-0.0265 0.02447-0.0523 0.04613-0.0774 0.06498s-0.0516 0.03473-0.0794 0.04763-0.0574 0.02282-0.0888 0.02977c-0.0314 0.0069-0.0663 0.01042-0.10466 0.01042-0.039 0-0.0758-0.0055-0.11016-0.01635-0.0344-0.01092-0.0643-0.02729-0.0898-0.04912-0.0255-0.02184-0.0456-0.04946-0.0605-0.08285-0.0149-0.03341-0.0223-0.07294-0.0223-0.11858 0-0.03969 0.0109-0.0779 0.0327-0.11462 0.0218-0.03672 0.0572-0.0693 0.10617-0.09775 0.0489-0.02844 0.11279-0.05176 0.1915-0.06995 0.0787-0.01819 0.17532-0.02861 0.28976-0.03125v-0.0784c0-0.07805-0.0169-0.13708-0.0506-0.17709-0.0337-0.04003-0.083-0.06005-0.14786-0.06005-0.0437 0-0.0802 0.0055-0.10965 0.01638-0.0294 0.0109-0.0549 0.02314-0.0764 0.0367-0.0215 0.01357-0.04 0.02581-0.0556 0.03673-0.0155 0.0109-0.0309 0.01635-0.0461 0.01635-0.0119 0-0.0222-0.0031-0.0308-0.0094-9e-3 -0.0063-0.0159-0.01407-0.0218-0.02332z" fill="#646b79" stroke-width="1.9845"/><path id="use84" d="m71.997 38.997c-0.0331-0.04431-0.0688-0.07523-0.10717-0.09275-0.0384-0.01754-0.0814-0.02631-0.129-0.02631-0.0933 0-0.16505 0.03341-0.21533 0.10023-0.0503 0.0668-0.0754 0.16206-0.0754 0.28577 0 0.06549 6e-3 0.12155 0.0169 0.16818 0.0113 0.04663 0.0278 0.085 0.0496 0.1151 0.0219 0.0301 0.0487 0.05209 0.0804 0.06598 0.0318 0.01389 0.0678 0.02083 0.10817 0.02083 0.0582 0 0.10896-0.01322 0.15228-0.03967 0.0434-0.02647 0.0832-0.06384 0.11959-0.11213v-0.48523m0.17663-0.69557v1.4616h-0.1052c-0.0251 0-0.041-0.01224-0.0476-0.0367l-0.0159-0.12206c-0.043 0.0516-0.092 0.09328-0.14687 0.12503-0.0549 0.03176-0.11839 0.04763-0.1905 0.04763-0.0575 0-0.10982-0.01108-0.1568-0.03325-0.0469-0.02217-0.087-0.05475-0.12003-0.09775-0.0331-0.043-0.0585-0.09658-0.0764-0.16074-0.0179-0.06418-0.0268-0.13793-0.0268-0.22127 0-0.07409 0.01-0.14305 0.0298-0.20688 0.0198-0.06385 0.0483-0.11926 0.0853-0.16622 0.037-0.04698 0.0825-0.08386 0.13642-0.11065 0.0539-0.02679 0.11462-0.04018 0.18211-0.04018 0.0615 0 0.11426 0.01043 0.15825 0.03128 0.044 0.02083 0.0832 0.04977 0.11759 0.08682v-0.55667z" fill="#646b79" stroke-width="1.9845"/><path id="use85" d="m73.038 38.923c-8e-3 0.01455-0.0202 0.02183-0.0367 0.02183-0.01 0-0.0212-0.0036-0.0338-0.0109-0.0125-0.0073-0.0279-0.01539-0.0461-0.02432-0.0182-0.0089-0.0399-0.01719-0.065-0.0248-0.0251-0.0076-0.0549-0.01142-0.0893-0.01142-0.0298 0-0.0566 0.0038-0.0804 0.01142-0.0238 0.0076-0.0441 0.01803-0.061 0.03125s-0.0298 0.02861-0.0387 0.04615c-9e-3 0.01752-0.0134 0.03654-0.0134 0.05705 0 0.0258 7e-3 0.0473 0.0223 0.0645 0.0149 0.0172 0.0346 0.03209 0.0591 0.04467 0.0245 0.01256 0.0522 0.02363 0.0833 0.03322 0.0311 0.0096 0.063 0.01985 0.0958 0.03077 0.0327 0.0109 0.0647 0.02297 0.0958 0.03622 0.0311 0.01322 0.0589 0.02976 0.0833 0.0496 0.0245 0.01985 0.0442 0.04416 0.0591 0.07295 0.0149 0.02877 0.0223 0.06333 0.0223 0.10368 0 0.04631-8e-3 0.08915-0.0248 0.12852-0.0165 0.03934-0.041 0.07341-0.0734 0.1022-0.0324 0.02877-0.0721 0.05142-0.11907 0.06795-0.047 0.01653-0.10122 0.0248-0.16274 0.0248-0.0701 0-0.13361-0.01141-0.1905-0.03422-0.0569-0.02283-0.10519-0.0521-0.1449-0.08782l0.0417-0.06747c5e-3 -0.0086 0.0116-0.01521 0.0188-0.01984 7e-3 -0.0046 0.0165-7e-3 0.0278-7e-3 0.0119 0 0.0245 0.0046 0.0377 0.0139 0.0132 0.0092 0.0293 0.01949 0.0481 0.03073 0.0189 0.01125 0.0418 0.0215 0.069 0.03077 0.0271 0.0093 0.0609 0.0139 0.10123 0.0139 0.0344 0 0.0645-0.0045 0.0903-0.01338 0.0258-0.0089 0.0473-0.02102 0.0645-0.03622 0.0172-0.01522 0.0299-0.03276 0.0382-0.0526 8e-3 -0.01985 0.0124-0.04101 0.0124-0.0635 0-0.0278-7e-3 -0.05079-0.0223-0.06898-0.0149-0.01819-0.0345-0.03373-0.059-0.04663s-0.0524-0.02414-0.0839-0.03373c-0.0314-0.0096-0.0635-0.01967-0.0962-0.03025-0.0327-0.0106-0.0648-0.02267-0.0963-0.03622-0.0314-0.01356-0.0594-0.0306-0.0838-0.05112-0.0245-0.02051-0.0442-0.04582-0.0591-0.07592s-0.0223-0.06664-0.0223-0.10962c0-0.03838 8e-3 -0.07526 0.0238-0.11065 0.0159-0.03539 0.039-0.06648 0.0695-0.09327s0.0678-0.04812 0.11214-0.06399c0.0443-0.01589 0.0949-0.02383 0.15183-0.02383 0.0661 0 0.12549 0.01042 0.17808 0.03125 0.0526 0.02083 0.0981 0.04944 0.13645 0.08582z" fill="#646b79" stroke-width="1.9845"/><path id="use86" d="m73.499 38.757v1.0052h-0.17664v-1.0052h0.17664m0.0377-0.31554c0 0.0172-3e-3 0.03324-0.0104 0.04812-7e-3 0.01488-0.0162 0.02811-0.0278 0.0397-0.0116 0.01157-0.0251 0.02066-0.0407 0.02728-0.0155 0.0066-0.0319 0.0099-0.0491 0.0099s-0.0333-0.0033-0.0482-0.0099-0.0279-0.01572-0.0392-0.02728c-0.0112-0.01159-0.0202-0.02482-0.0268-0.0397-7e-3 -0.01488-0.01-0.03092-0.01-0.04812s3e-3 -0.03357 0.01-0.04912c7e-3 -0.01554 0.0156-0.0291 0.0268-0.04067 0.0112-0.01159 0.0243-0.02069 0.0392-0.02731 0.0149-0.0066 0.031-0.0099 0.0482-0.0099s0.0336 0.0033 0.0491 0.0099c0.0156 0.0066 0.0291 0.01573 0.0407 0.02731 0.0116 0.01157 0.0209 0.02513 0.0278 0.04067 7e-3 0.01554 0.0104 0.03192 0.0104 0.04912z" fill="#646b79" stroke-width="1.9845"/><path id="use87" d="m73.955 38.903c0.0218-0.02449 0.045-0.04665 0.0695-0.0665s0.0504-0.03687 0.0779-0.05109c0.0275-0.01423 0.0566-0.02514 0.0873-0.03273 0.0308-0.0076 0.064-0.01142 0.0997-0.01142 0.0549 0 0.10336 0.0091 0.14535 0.02728 0.042 0.01819 0.0771 0.04399 0.1052 0.0774s0.0495 0.0736 0.064 0.12058c0.0145 0.04696 0.0218 0.09888 0.0218 0.15577v0.64h-0.1776v-0.64c0-0.07609-0.0174-0.13513-0.0521-0.17712-0.0347-0.04201-0.0875-0.06302-0.15825-0.06302-0.0522 0-0.10103 0.01256-0.14635 0.0377-0.0453 0.02513-0.0872 0.0592-0.12552 0.1022v0.74024h-0.17763v-1.0052h0.10617c0.0251 0 0.0407 0.01223 0.0467 0.0367z" fill="#646b79" stroke-width="1.9845"/><path id="use88" d="m74.948 39.763v-0.85434l-0.11113-0.0129c-0.0139-0.0033-0.0253-0.0084-0.0342-0.01538-9e-3 -0.0069-0.0134-0.01704-0.0134-0.03028v-0.07243h0.15877v-0.09723c0-0.05756 8e-3 -0.10865 0.0243-0.15329 0.0162-0.04466 0.0393-0.08237 0.0694-0.11313 0.0301-0.03077 0.0663-0.05408 0.10865-0.06995 0.0424-0.01589 0.09-0.02383 0.1429-0.02383 0.045 0 0.0863 0.0066 0.12404 0.01986l-4e-3 0.0883c-1e-3 0.01587-0.0101 0.02447-0.0263 0.0258-0.0162 0.0013-0.0379 2e-3 -0.065 2e-3 -0.0304 0-0.0581 4e-3 -0.0829 0.0119s-0.0461 0.02083-0.064 0.0387c-0.0179 0.01784-0.0316 0.04132-0.0412 0.07043-0.01 0.02911-0.0144 0.06517-0.0144 0.10817v0.09227h0.28973v0.128h-0.2838v0.85734z" fill="#646b79" stroke-width="1.9845"/><path id="use89" d="m75.969 38.742c0.0734 0 0.13957 0.01225 0.19844 0.03673 0.0589 0.02447 0.10916 0.05919 0.15083 0.10417 0.0417 0.04498 0.0736 0.09939 0.0957 0.16322 0.0222 0.06383 0.0333 0.13512 0.0333 0.21385 0 0.07938-0.0111 0.15082-0.0333 0.21433-0.0221 0.06349-0.0541 0.11774-0.0957 0.16273-0.0417 0.04498-0.092 0.07954-0.15083 0.10368-0.0589 0.02415-0.12502 0.03622-0.19844 0.03622-0.0741 0-0.14074-0.01207-0.19995-0.03622-0.0592-0.02414-0.10963-0.05871-0.15132-0.10368-0.0417-0.045-0.0736-0.09924-0.0957-0.16273-0.0221-0.06351-0.0332-0.13496-0.0332-0.21433 0-0.07873 0.0111-0.15002 0.0332-0.21385 0.0222-0.06383 0.0541-0.11824 0.0957-0.16322 0.0417-0.04498 0.0921-0.0797 0.15132-0.10417 0.0592-0.02449 0.12586-0.03673 0.19995-0.03673m0 0.897c0.0992 0 0.17331-0.03324 0.22227-0.09972 0.0489-0.06648 0.0734-0.15926 0.0734-0.27835 0-0.11973-0.0245-0.213-0.0734-0.2798-0.049-0.06682-0.12305-0.10023-0.22227-0.10023-0.0503 0-0.0941 0.0086-0.13148 0.0258-0.0374 0.0172-0.0685 0.04201-0.0933 0.07443-0.0248 0.0324-0.0433 0.07225-0.0556 0.11955-0.0122 0.0473-0.0183 0.10072-0.0183 0.16025 0 0.11909 0.0246 0.21187 0.0739 0.27835 0.0493 0.06648 0.1242 0.09972 0.22475 0.09972z" fill="#646b79" stroke-width="1.9845"/><path id="use90" d="m76.838 38.959c0.0318-0.0688 0.0708-0.12255 0.11707-0.16125 0.0463-0.0387 0.10288-0.05805 0.1697-0.05805 0.0212 0 0.0415 0.0023 0.061 7e-3 0.0195 0.0046 0.0369 0.01189 0.0521 0.0218l-0.0129 0.132c-4e-3 0.01653-0.0139 0.0248-0.0298 0.0248-9e-3 0-0.0228-2e-3 -0.0407-0.0059-0.0179-4e-3 -0.038-6e-3 -0.0605-6e-3 -0.0318 0-0.06 0.0046-0.0848 0.0139-0.0248 0.0092-0.047 0.02296-0.0665 0.04115s-0.037 0.04069-0.0526 0.0675c-0.0156 0.02679-0.0296 0.05737-0.0421 0.09175v0.63507h-0.17765v-1.0052h0.10123c0.0192 0 0.0324 0.0036 0.0397 0.01093 7e-3 0.0073 0.0123 0.01983 0.0149 0.0377z" fill="#646b79" stroke-width="1.9845"/><path id="use91" d="m77.393 39.763v-1.0052h0.10616c0.0252 0 0.0407 0.01223 0.0467 0.0367l0.0129 0.1032c0.037-0.04565 0.0787-0.08301 0.125-0.1121 0.0463-0.02911 0.0999-0.04367 0.16077-0.04367 0.0675 0 0.1222 0.01885 0.16421 0.05657 0.042 0.03769 0.0723 0.08863 0.0908 0.1528 0.0145-0.03638 0.0332-0.0678 0.056-0.09427s0.0485-0.0483 0.0769-0.0655 0.0587-0.02977 0.0908-0.0377c0.0321-0.0079 0.0647-0.0119 0.0977-0.0119 0.0529 0 0.10004 0.0084 0.14138 0.02531 0.0413 0.01686 0.0764 0.0415 0.10517 0.07392 0.0288 0.0324 0.0508 0.07225 0.066 0.11955 0.0152 0.0473 0.0228 0.10138 0.0228 0.16225v0.64h-0.17763v-0.64c0-0.07873-0.0172-0.13844-0.0516-0.17912-0.0344-0.04068-0.084-0.06102-0.14884-0.06102-0.0291 0-0.0567 0.0051-0.0829 0.01538-0.0261 0.01026-0.0491 0.02531-0.069 0.04515-0.0198 0.01985-0.0356 0.04482-0.0471 0.07492-0.0116 0.0301-0.0174 0.06499-0.0174 0.10468v0.64h-0.1776v-0.64c0-0.08071-0.0162-0.14091-0.0486-0.1806-0.0324-0.03969-0.0797-0.05953-0.14187-0.05953-0.0437 0-0.084 0.01174-0.12106 0.03522-0.037 0.02348-0.0711 0.05539-0.10221 0.09575v0.74917z" fill="#646b79" stroke-width="1.9845"/><path id="use92" d="m79.571 39.31c-0.0814 0.0026-0.15067 0.0091-0.20788 0.01935-0.0572 0.01026-0.10385 0.02365-0.13991 0.04018-0.0361 0.01653-0.0622 0.03605-0.0784 0.05853-0.0162 0.02249-0.0243 0.04763-0.0243 0.07543 0 0.02645 4e-3 0.04927 0.0129 0.06847 9e-3 0.01918 0.0203 0.03488 0.0352 0.04712 0.0149 0.01223 0.0324 0.02117 0.0526 0.0268 0.0202 0.0056 0.0419 0.0084 0.065 0.0084 0.0311 0 0.0595-0.0031 0.0853-0.0094s0.0501-0.01537 0.0729-0.02728 0.0446-0.02613 0.0655-0.04267c0.0208-0.01653 0.0412-0.03539 0.061-0.05657v-0.20837m-0.57056-0.4108c0.0556-0.05358 0.11544-0.0936 0.1796-0.12007 0.0642-0.02647 0.13529-0.0397 0.21333-0.0397 0.0562 0 0.10619 0.0093 0.14984 0.0278 0.0437 0.01851 0.0804 0.04431 0.11013 0.0774 0.0298 0.03307 0.0523 0.07309 0.0675 0.12007 0.0152 0.04696 0.0228 0.09855 0.0228 0.15477v0.643h-0.0784c-0.0172 0-0.0304-0.0028-0.0397-0.0084-9e-3 -0.0056-0.0165-0.01672-0.0218-0.03325l-0.0198-0.09527c-0.0265 0.02447-0.0523 0.04613-0.0774 0.06498s-0.0516 0.03473-0.0794 0.04763-0.0574 0.02282-0.0888 0.02977c-0.0314 0.0069-0.0663 0.01042-0.10466 0.01042-0.039 0-0.0758-0.0055-0.11016-0.01635-0.0344-0.01092-0.0643-0.02729-0.0898-0.04912-0.0255-0.02184-0.0457-0.04946-0.0605-0.08285-0.0149-0.03341-0.0223-0.07294-0.0223-0.11858 0-0.03969 0.0109-0.0779 0.0327-0.11462 0.0219-0.03672 0.0572-0.0693 0.10616-0.09775 0.049-0.02844 0.11279-0.05176 0.19151-0.06995 0.0787-0.01819 0.17532-0.02861 0.28976-0.03125v-0.0784c0-0.07805-0.0169-0.13708-0.0506-0.17709-0.0337-0.04003-0.083-0.06005-0.14786-0.06005-0.0436 0-0.0802 0.0055-0.10966 0.01638-0.0294 0.0109-0.0549 0.02314-0.0764 0.0367-0.0215 0.01357-0.04 0.02581-0.0556 0.03673-0.0156 0.0109-0.0309 0.01635-0.0461 0.01635-0.0119 0-0.0222-0.0031-0.0308-0.0094-9e-3 -0.0063-0.0159-0.01407-0.0218-0.02332z" fill="#646b79" stroke-width="1.9845"/><path id="use93" d="m80.933 39.763h-0.1766v-0.85734h-0.51797v0.6033c0 0.04235 0.0102 0.07379 0.0307 0.0943 0.0205 0.02049 0.047 0.03074 0.0794 0.03074 0.0185 0 0.0345-0.0025 0.0481-0.0074 0.0136-5e-3 0.0253-0.01043 0.0352-0.01638 0.01-6e-3 0.0184-0.01142 0.0253-0.01638 7e-3 -5e-3 0.0131-0.0074 0.0184-0.0074 9e-3 0 0.0175 0.0056 0.0248 0.01687l0.0516 0.08436c-0.0304 0.02844-0.0671 0.05077-0.11013 0.06698-0.043 0.01619-0.0873 0.02429-0.13297 0.02429-0.0794 0-0.1404-0.02216-0.18308-0.06647-0.0427-0.04433-0.064-0.10817-0.064-0.1915v-0.61523h-0.12106c-0.0106 0-0.0195-0.0031-0.0268-0.0094-7e-3 -0.0063-0.0109-0.01604-0.0109-0.02928v-0.07044l0.16473-0.02183 0.0407-0.3096c2e-3 -0.0099 6e-3 -0.01801 0.0134-0.02429 7e-3 -0.0063 0.016-0.0094 0.0273-0.0094h0.0893v0.3463h0.69457v0.98534m0.0437-1.3277c0 0.0172-3e-3 0.03325-0.0104 0.04815-7e-3 0.01488-0.0162 0.02794-0.0278 0.03918-0.0116 0.01125-0.025 0.02018-0.0402 0.0268-0.0152 0.0066-0.0314 0.0099-0.0486 0.0099s-0.0332-0.0033-0.0481-0.0099-0.0279-0.01555-0.0392-0.0268c-0.0113-0.01124-0.0202-0.02431-0.0268-0.03918-7e-3 -0.0149-0.01-0.03095-0.01-0.04815s3e-3 -0.03357 0.01-0.04912c7e-3 -0.01554 0.0155-0.0291 0.0268-0.04067 0.0112-0.01159 0.0243-0.02068 0.0392-0.02728s0.0309-0.0099 0.0481-0.0099 0.0334 0.0033 0.0486 0.0099 0.0286 0.0157 0.0402 0.02728c0.0116 0.01157 0.0208 0.02512 0.0278 0.04067 7e-3 0.01554 0.0104 0.03192 0.0104 0.04912z" fill="#646b79" stroke-width="1.9845"/><path id="use94" d="m81.895 39.15c0-0.041-6e-3 -0.07854-0.0174-0.11262-0.0116-0.03408-0.0284-0.06351-0.0506-0.0883-0.0221-0.02481-0.0491-0.044-0.0808-0.05757-0.0318-0.01356-0.0678-0.02035-0.10817-0.02035-0.0847 0-0.15165 0.02465-0.20094 0.07395-0.0493 0.04928-0.0799 0.11757-0.0918 0.20489h0.5497m0.14291 0.47133c-0.0219 0.02647-0.048 0.04946-0.0784 0.06898-0.0304 0.0195-0.063 0.03554-0.0977 0.04812-0.0347 0.01256-0.0706 0.02197-0.10765 0.02825-0.037 0.0063-0.0738 0.0094-0.11014 0.0094-0.0695 0-0.13347-0.01174-0.19202-0.03522-0.0585-0.0235-0.10915-0.0579-0.15183-0.1032-0.0427-0.04532-0.0759-0.10138-0.0997-0.16818-0.0238-0.06682-0.0357-0.14356-0.0357-0.23023 0-0.07011 0.0108-0.13559 0.0323-0.19644 0.0215-0.06087 0.0524-0.11363 0.0928-0.15828 0.0404-0.04465 0.0896-0.07971 0.14786-0.10517 0.0582-0.02548 0.12371-0.03822 0.19647-0.03822 0.0602 0 0.11593 0.01009 0.16718 0.03028 0.0513 0.02017 0.0956 0.04927 0.13297 0.0873 0.0374 0.03803 0.0667 0.085 0.0878 0.1409 0.0212 0.0559 0.0318 0.11957 0.0318 0.19102 0 0.02778-3e-3 0.0463-9e-3 0.05557-6e-3 0.0092-0.0172 0.01387-0.0337 0.01387h-0.67177c2e-3 0.06351 0.0107 0.11875 0.0263 0.16573 0.0156 0.04696 0.0372 0.08615 0.065 0.11758 0.0278 0.03141 0.0609 0.05489 0.0992 0.07043 0.0384 0.01555 0.0814 0.02332 0.129 0.02332 0.0443 0 0.0825-0.0051 0.11461-0.01538 0.0321-0.01026 0.0597-0.02133 0.0829-0.03322 0.0232-0.01191 0.0425-0.023 0.0581-0.03325 0.0156-0.01026 0.0289-0.01538 0.0402-0.01538 0.0145 0 0.0258 0.0056 0.0337 0.01687z" fill="#646b79" stroke-width="1.9845"/><path id="use95" d="m82.131 39.763" fill="#646b79" stroke-width="1.9845"/><path id="use96" d="m82.842 39.172c0-0.05093 0.01-0.09889 0.0293-0.14387 0.0195-0.045 0.0458-0.08419 0.0789-0.11758 0.0331-0.03341 0.0719-0.05987 0.11658-0.07937 0.0447-0.01952 0.0921-0.02928 0.14242-0.02928 0.0509 0 0.0987 0.0098 0.14335 0.02928 0.0447 0.0195 0.0837 0.04596 0.1171 0.07937 0.0334 0.03339 0.0599 0.07259 0.0794 0.11758 0.0195 0.04498 0.0293 0.09293 0.0293 0.14387 0 0.05093-0.01 0.09873-0.0293 0.14338-0.0195 0.04466-0.046 0.08353-0.0794 0.11662-0.0334 0.03307-0.0725 0.05936-0.1171 0.07888-0.0446 0.0195-0.0924 0.02925-0.14335 0.02925-0.0503 0-0.0978-0.0097-0.14242-0.02925-0.0446-0.01952-0.0835-0.04582-0.11658-0.07888-0.0331-0.03309-0.0594-0.07196-0.0789-0.11662-0.0195-0.04465-0.0293-0.09245-0.0293-0.14338z" fill="#4d1a57" stroke-width="1.9845"/><path id="use97" d="m83.786 39.763" fill="#646b79" stroke-width="1.9845"/><path id="use98" d="m85.23 39.235-0.22327-0.57847c-7e-3 -0.0172-0.0136-0.03721-0.0208-0.06002-7e-3 -0.02283-0.0142-0.04715-0.0208-0.07295-0.0139 0.05358-0.0281 0.09822-0.0427 0.13394l-0.22326 0.5775h0.53087m0.40086 0.5279h-0.14883c-0.0172 0-0.0311-0.0043-0.0417-0.0129s-0.0185-0.01951-0.0238-0.03273l-0.13296-0.34333h-0.63801l-0.13297 0.34333c-4e-3 0.01189-0.0116 0.02247-0.0228 0.03174-0.0112 0.0093-0.0251 0.0139-0.0417 0.0139h-0.14883l0.56857-1.4219h0.19447z" fill="#646b79" stroke-width="1.9845"/><path id="use99" d="m85.945 38.959c0.0317-0.0688 0.0708-0.12255 0.11707-0.16125 0.0463-0.0387 0.10287-0.05805 0.16969-0.05805 0.0212 0 0.0415 0.0023 0.061 7e-3 0.0195 0.0046 0.0369 0.01189 0.0521 0.0218l-0.0129 0.132c-4e-3 0.01653-0.0139 0.0248-0.0298 0.0248-9e-3 0-0.0228-2e-3 -0.0407-0.0059-0.0179-4e-3 -0.038-6e-3 -0.0605-6e-3 -0.0318 0-0.06 0.0046-0.0849 0.0139-0.0248 0.0092-0.0469 0.02296-0.0665 0.04115-0.0195 0.01819-0.0371 0.04069-0.0526 0.0675-0.0156 0.02679-0.0296 0.05737-0.0422 0.09175v0.63507h-0.17763v-1.0052h0.10123c0.0192 0 0.0324 0.0036 0.0397 0.01093 7e-3 0.0073 0.0122 0.01983 0.0149 0.0377z" fill="#646b79" stroke-width="1.9845"/><path id="use100" d="m87.155 38.936c-5e-3 0.0073-0.0106 0.01292-0.0159 0.0169-5e-3 4e-3 -0.0126 0.0059-0.0218 0.0059-0.01 0-0.0208-0.0041-0.0328-0.01239-0.0119-0.0083-0.0266-0.01737-0.0442-0.02728-0.0175-0.0099-0.039-0.01904-0.0645-0.02731-0.0254-0.0083-0.0567-0.01242-0.0937-0.01242-0.0496 0-0.0933 0.0088-0.131 0.02632s-0.0693 0.04283-0.0948 0.07592c-0.0255 0.03307-0.0446 0.07309-0.0575 0.12007-0.0129 0.04696-0.0193 0.09955-0.0193 0.15777 0 0.06085 7e-3 0.11492 0.0208 0.16222 0.0139 0.0473 0.0336 0.087 0.059 0.1191 0.0255 0.03208 0.0562 0.05656 0.0923 0.07343 0.0361 0.01686 0.0766 0.02529 0.12158 0.02529 0.043 0 0.0784-0.0051 0.10617-0.01538 0.0278-0.01026 0.0508-0.02166 0.069-0.03422 0.0182-0.01257 0.0334-0.02399 0.0456-0.03425s0.0243-0.01538 0.0362-0.01538c0.0145 0 0.0258 0.0056 0.0337 0.01687l0.0496 0.0645c-0.0218 0.02711-0.0466 0.05027-0.0744 0.06947-0.0278 0.01918-0.0577 0.03522-0.0898 0.04812s-0.0657 0.02233-0.10072 0.02828c-0.0351 6e-3 -0.0708 0.0089-0.10716 0.0089-0.0628 0-0.12123-0.01158-0.17515-0.03473-0.0539-0.02316-0.1007-0.05673-0.14039-0.10072-0.0397-0.04399-0.0708-0.09806-0.0933-0.16222-0.0225-0.06418-0.0337-0.13728-0.0337-0.2193 0-0.07476 0.0104-0.14389 0.0312-0.2074 0.0208-0.06351 0.0513-0.11825 0.0913-0.16422 0.04-0.04597 0.0893-0.08185 0.14786-0.10765 0.0585-0.0258 0.12586-0.0387 0.20192-0.0387 0.0708 0 0.13312 0.01142 0.18702 0.03425 0.0539 0.02281 0.10173 0.05505 0.14342 0.09672z" fill="#646b79" stroke-width="1.9845"/><path id="use101" d="m87.582 38.891c0.043-0.04564 0.0906-0.08202 0.14287-0.10914 0.0523-0.02713 0.11247-0.0407 0.1806-0.0407 0.0549 0 0.10336 0.0091 0.14535 0.02728 0.042 0.01819 0.0771 0.04399 0.1052 0.0774s0.0495 0.0736 0.064 0.12058c0.0145 0.04696 0.0218 0.09888 0.0218 0.15577v0.64h-0.1776v-0.64c0-0.07609-0.0174-0.13513-0.0521-0.17712-0.0347-0.04201-0.0875-0.06302-0.15825-0.06302-0.0523 0-0.10103 0.01256-0.14636 0.0377-0.0453 0.02513-0.0872 0.0592-0.12551 0.1022v0.74024h-0.17763v-1.4616h0.17763z" fill="#646b79" stroke-width="1.9845"/><path id="use102" d="m88.698 38.757v1.0052h-0.17664v-1.0052h0.17664m0.0377-0.31554c0 0.0172-3e-3 0.03324-0.0104 0.04812-7e-3 0.01488-0.0162 0.02811-0.0278 0.0397-0.0116 0.01157-0.0251 0.02066-0.0407 0.02728-0.0156 0.0066-0.0319 0.0099-0.0491 0.0099s-0.0333-0.0033-0.0482-0.0099-0.0279-0.01572-0.0392-0.02728c-0.0113-0.01159-0.0202-0.02482-0.0268-0.0397-7e-3 -0.01488-0.01-0.03092-0.01-0.04812s3e-3 -0.03357 0.01-0.04912c7e-3 -0.01554 0.0156-0.0291 0.0268-0.04067 0.0112-0.01159 0.0243-0.02069 0.0392-0.02731 0.0149-0.0066 0.031-0.0099 0.0482-0.0099s0.0336 0.0033 0.0491 0.0099 0.0291 0.01573 0.0407 0.02731c0.0116 0.01157 0.0208 0.02513 0.0278 0.04067s0.0104 0.03192 0.0104 0.04912z" fill="#646b79" stroke-width="1.9845"/><path id="use103" d="m89.661 39.15c0-0.041-6e-3 -0.07854-0.0174-0.11262-0.0116-0.03408-0.0284-0.06351-0.0506-0.0883-0.0221-0.02481-0.0491-0.044-0.0808-0.05757-0.0318-0.01356-0.0678-0.02035-0.10817-0.02035-0.0847 0-0.15165 0.02465-0.20095 0.07395-0.0493 0.04928-0.0799 0.11757-0.0917 0.20489h0.5497m0.1429 0.47133c-0.0219 0.02647-0.048 0.04946-0.0784 0.06898-0.0304 0.0195-0.063 0.03554-0.0977 0.04812-0.0347 0.01256-0.0706 0.02197-0.10766 0.02825-0.037 0.0063-0.0737 0.0094-0.11013 0.0094-0.0695 0-0.13347-0.01174-0.19202-0.03522-0.0585-0.0235-0.10915-0.0579-0.15183-0.1032-0.0426-0.04532-0.0759-0.10138-0.0997-0.16818-0.0238-0.06682-0.0357-0.14356-0.0357-0.23023 0-0.07011 0.0108-0.13559 0.0323-0.19644 0.0215-0.06087 0.0524-0.11363 0.0928-0.15828 0.0403-0.04465 0.0896-0.07971 0.14786-0.10517 0.0582-0.02548 0.12371-0.03822 0.19647-0.03822 0.0602 0 0.11593 0.01009 0.16718 0.03028 0.0513 0.02017 0.0956 0.04927 0.13297 0.0873 0.0374 0.03803 0.0667 0.085 0.0878 0.1409 0.0212 0.0559 0.0318 0.11957 0.0318 0.19102 0 0.02778-3e-3 0.0463-9e-3 0.05557-6e-3 0.0092-0.0172 0.01387-0.0337 0.01387h-0.67176c2e-3 0.06351 0.0107 0.11875 0.0263 0.16573 0.0156 0.04696 0.0372 0.08615 0.065 0.11758 0.0278 0.03141 0.0609 0.05489 0.0992 0.07043 0.0384 0.01555 0.0814 0.02332 0.129 0.02332 0.0443 0 0.0825-0.0051 0.11461-0.01538 0.0321-0.01026 0.0597-0.02133 0.0828-0.03322 0.0232-0.01191 0.0425-0.023 0.0581-0.03325 0.0156-0.01026 0.0289-0.01538 0.0402-0.01538 0.0146 0 0.0258 0.0056 0.0337 0.01687z" fill="#646b79" stroke-width="1.9845"/><path id="use104" d="m90.094 39.763v-0.85434l-0.11113-0.0129c-0.0139-0.0033-0.0253-0.0084-0.0342-0.01538-9e-3 -0.0069-0.0134-0.01704-0.0134-0.03028v-0.07243h0.15877v-0.09723c0-0.05756 8e-3 -0.10865 0.0243-0.15329 0.0162-0.04466 0.0393-0.08237 0.0694-0.11313 0.0301-0.03077 0.0663-0.05408 0.10865-0.06995 0.0424-0.01589 0.09-0.02383 0.1429-0.02383 0.045 0 0.0863 0.0066 0.12404 0.01986l-4e-3 0.0883c-1e-3 0.01587-0.0101 0.02447-0.0263 0.0258-0.0162 0.0013-0.0379 2e-3 -0.065 2e-3 -0.0304 0-0.0581 4e-3 -0.0829 0.0119s-0.0461 0.02083-0.064 0.0387c-0.0179 0.01784-0.0316 0.04132-0.0412 0.07043-0.01 0.02911-0.0144 0.06517-0.0144 0.10817v0.09227h0.28973v0.128h-0.2838v0.85734z" fill="#646b79" stroke-width="1.9845"/><path id="use105" d="m91.31 38.923c-8e-3 0.01455-0.0202 0.02183-0.0367 0.02183-0.01 0-0.0212-0.0036-0.0338-0.0109s-0.0279-0.01539-0.0461-0.02432c-0.0182-0.0089-0.0399-0.01719-0.065-0.0248-0.0251-0.0076-0.0549-0.01142-0.0893-0.01142-0.0298 0-0.0566 0.0038-0.0804 0.01142-0.0238 0.0076-0.0441 0.01803-0.061 0.03125s-0.0298 0.02861-0.0387 0.04615c-9e-3 0.01752-0.0134 0.03654-0.0134 0.05705 0 0.0258 7e-3 0.0473 0.0223 0.0645 0.0149 0.0172 0.0346 0.03209 0.059 0.04467 0.0245 0.01256 0.0523 0.02363 0.0833 0.03322 0.0311 0.0096 0.063 0.01985 0.0958 0.03077 0.0327 0.0109 0.0647 0.02297 0.0958 0.03622 0.0311 0.01322 0.0589 0.02976 0.0833 0.0496 0.0245 0.01985 0.0442 0.04416 0.0591 0.07295 0.0149 0.02877 0.0223 0.06333 0.0223 0.10368 0 0.04631-8e-3 0.08915-0.0248 0.12852-0.0165 0.03934-0.041 0.07341-0.0734 0.1022-0.0324 0.02877-0.0721 0.05142-0.11907 0.06795-0.047 0.01653-0.10122 0.0248-0.16273 0.0248-0.0701 0-0.13362-0.01141-0.19051-0.03422-0.0569-0.02283-0.10518-0.0521-0.14489-0.08782l0.0417-0.06747c5e-3 -0.0086 0.0116-0.01521 0.0188-0.01984 7e-3 -0.0046 0.0166-7e-3 0.0278-7e-3 0.0119 0 0.0245 0.0046 0.0377 0.0139 0.0132 0.0092 0.0293 0.01949 0.0481 0.03073 0.0189 0.01125 0.0418 0.0215 0.069 0.03077 0.0271 0.0093 0.0609 0.0139 0.10123 0.0139 0.0344 0 0.0645-0.0045 0.0903-0.01338 0.0258-0.0089 0.0473-0.02102 0.0645-0.03622 0.0172-0.01522 0.0299-0.03276 0.0382-0.0526 8e-3 -0.01985 0.0124-0.04101 0.0124-0.0635 0-0.0278-7e-3 -0.05079-0.0224-0.06898-0.0149-0.01819-0.0345-0.03373-0.059-0.04663s-0.0524-0.02414-0.0839-0.03373c-0.0314-0.0096-0.0635-0.01967-0.0962-0.03025-0.0328-0.0106-0.0648-0.02267-0.0963-0.03622-0.0314-0.01356-0.0594-0.0306-0.0839-0.05112-0.0245-0.02051-0.0442-0.04582-0.059-0.07592-0.0149-0.0301-0.0223-0.06664-0.0223-0.10962 0-0.03838 8e-3 -0.07526 0.0238-0.11065 0.0159-0.03539 0.039-0.06648 0.0695-0.09327s0.0678-0.04812 0.11214-0.06399c0.0443-0.01589 0.0949-0.02383 0.15183-0.02383 0.0661 0 0.1255 0.01042 0.17809 0.03125 0.0526 0.02083 0.0981 0.04944 0.13645 0.08582z" fill="#646b79" stroke-width="1.9845"/><path id="use106" d="m91.893 39.778c-0.0794 0-0.14041-0.02216-0.18309-0.06647-0.0427-0.04433-0.064-0.10817-0.064-0.1915v-0.61523h-0.12107c-0.0106 0-0.0195-0.0031-0.0268-0.0094-7e-3 -0.0063-0.0109-0.01604-0.0109-0.02928v-0.07044l0.16473-0.02083 0.0407-0.3106c2e-3 -0.0099 6e-3 -0.01801 0.0134-0.02429 7e-3 -0.0063 0.016-0.0094 0.0273-0.0094h0.0893v0.3463h0.29073v0.128h-0.29073v0.6033c0 0.04235 0.0102 0.07379 0.0307 0.0943 0.0205 0.02049 0.047 0.03074 0.0794 0.03074 0.0185 0 0.0345-0.0025 0.0481-0.0074 0.0136-5e-3 0.0253-0.01043 0.0352-0.01638 0.01-6e-3 0.0184-0.01142 0.0253-0.01638 7e-3 -5e-3 0.0131-0.0074 0.0184-0.0074 9e-3 0 0.0175 0.0056 0.0248 0.01687l0.0516 0.08436c-0.0304 0.02844-0.0671 0.05077-0.11013 0.06698-0.043 0.01619-0.0873 0.02429-0.13297 0.02429z" fill="#646b79" stroke-width="1.9845"/><path id="use107" d="m92.841 39.31c-0.0814 0.0026-0.15067 0.0091-0.20788 0.01935-0.0572 0.01026-0.10385 0.02365-0.13991 0.04018-0.036 0.01653-0.0622 0.03605-0.0784 0.05853-0.0162 0.02249-0.0243 0.04763-0.0243 0.07543 0 0.02645 4e-3 0.04927 0.0129 0.06847 9e-3 0.01918 0.0204 0.03488 0.0352 0.04712 0.0149 0.01223 0.0324 0.02117 0.0526 0.0268 0.0202 0.0056 0.0419 0.0084 0.065 0.0084 0.0311 0 0.0595-0.0031 0.0853-0.0094s0.0501-0.01537 0.0729-0.02728 0.0446-0.02613 0.0655-0.04267c0.0208-0.01653 0.0412-0.03539 0.061-0.05657v-0.20837m-0.57056-0.4108c0.0556-0.05358 0.11544-0.0936 0.1796-0.12007 0.0642-0.02647 0.13528-0.0397 0.21333-0.0397 0.0562 0 0.10619 0.0093 0.14983 0.0278 0.0437 0.01851 0.0804 0.04431 0.11014 0.0774 0.0298 0.03307 0.0523 0.07309 0.0675 0.12007 0.0152 0.04696 0.0228 0.09855 0.0228 0.15477v0.643h-0.0784c-0.0172 0-0.0304-0.0028-0.0397-0.0084-9e-3 -0.0056-0.0165-0.01672-0.0218-0.03325l-0.0198-0.09527c-0.0265 0.02447-0.0523 0.04613-0.0774 0.06498s-0.0516 0.03473-0.0794 0.04763-0.0574 0.02282-0.0888 0.02977c-0.0314 0.0069-0.0663 0.01042-0.10466 0.01042-0.039 0-0.0758-0.0055-0.11016-0.01635-0.0344-0.01092-0.0643-0.02729-0.0898-0.04912-0.0255-0.02184-0.0456-0.04946-0.0605-0.08285-0.0149-0.03341-0.0223-0.07294-0.0223-0.11858 0-0.03969 0.0109-0.0779 0.0327-0.11462 0.0219-0.03672 0.0572-0.0693 0.10617-0.09775 0.049-0.02844 0.11279-0.05176 0.1915-0.06995 0.0787-0.01819 0.17532-0.02861 0.28977-0.03125v-0.0784c0-0.07805-0.0169-0.13708-0.0506-0.17709-0.0337-0.04003-0.083-0.06005-0.14787-0.06005-0.0436 0-0.0802 0.0055-0.10965 0.01638-0.0294 0.0109-0.0549 0.02314-0.0764 0.0367-0.0215 0.01357-0.04 0.02581-0.0556 0.03673-0.0155 0.0109-0.0309 0.01635-0.0461 0.01635-0.0119 0-0.0222-0.0031-0.0308-0.0094-9e-3 -0.0063-0.0159-0.01407-0.0218-0.02332z" fill="#646b79" stroke-width="1.9845"/><path id="use108" d="m93.449 38.903c0.0219-0.02449 0.045-0.04665 0.0695-0.0665s0.0504-0.03687 0.0779-0.05109c0.0275-0.01423 0.0566-0.02514 0.0873-0.03273 0.0308-0.0076 0.064-0.01142 0.0997-0.01142 0.0549 0 0.10337 0.0091 0.14536 0.02728 0.042 0.01819 0.0771 0.04399 0.10519 0.0774 0.0281 0.03341 0.0495 0.0736 0.064 0.12058 0.0145 0.04696 0.0218 0.09888 0.0218 0.15577v0.64h-0.17761v-0.64c0-0.07609-0.0174-0.13513-0.0521-0.17712-0.0347-0.04201-0.0875-0.06302-0.15825-0.06302-0.0523 0-0.10103 0.01256-0.14635 0.0377-0.0453 0.02513-0.0872 0.0592-0.12552 0.1022v0.74024h-0.17763v-1.0052h0.10616c0.0252 0 0.0407 0.01223 0.0467 0.0367z" fill="#646b79" stroke-width="1.9845"/><path id="use109" d="m95.045 38.997c-0.0331-0.04431-0.0688-0.07523-0.10717-0.09275-0.0384-0.01754-0.0814-0.02631-0.129-0.02631-0.0933 0-0.16504 0.03341-0.21533 0.10023-0.0503 0.0668-0.0754 0.16206-0.0754 0.28577 0 0.06549 6e-3 0.12155 0.0169 0.16818 0.0112 0.04663 0.0278 0.085 0.0496 0.1151 0.0219 0.0301 0.0486 0.05209 0.0804 0.06598 0.0317 0.01389 0.0678 0.02083 0.10816 0.02083 0.0582 0 0.10897-0.01322 0.15229-0.03967 0.0433-0.02647 0.0832-0.06384 0.11958-0.11213v-0.48523m0.17664-0.69557v1.4616h-0.1052c-0.0251 0-0.041-0.01224-0.0476-0.0367l-0.0159-0.12206c-0.043 0.0516-0.0919 0.09328-0.14686 0.12503-0.0549 0.03176-0.11839 0.04763-0.19051 0.04763-0.0575 0-0.10982-0.01108-0.15679-0.03325-0.047-0.02217-0.087-0.05475-0.12004-0.09775-0.0331-0.043-0.0585-0.09658-0.0764-0.16074-0.0179-0.06418-0.0268-0.13793-0.0268-0.22127 0-0.07409 0.01-0.14305 0.0298-0.20688 0.0198-0.06385 0.0483-0.11926 0.0853-0.16622 0.037-0.04698 0.0825-0.08386 0.13642-0.11065 0.0539-0.02679 0.11463-0.04018 0.18211-0.04018 0.0615 0 0.11427 0.01043 0.15826 0.03128 0.044 0.02083 0.0832 0.04977 0.11758 0.08682v-0.55667z" fill="#646b79" stroke-width="1.9845"/><path id="use110" d="m96.046 39.31c-0.0814 0.0026-0.15067 0.0091-0.20788 0.01935-0.0572 0.01026-0.10385 0.02365-0.1399 0.04018-0.036 0.01653-0.0622 0.03605-0.0784 0.05853-0.0162 0.02249-0.0243 0.04763-0.0243 0.07543 0 0.02645 4e-3 0.04927 0.0129 0.06847 9e-3 0.01918 0.0203 0.03488 0.0352 0.04712 0.0149 0.01223 0.0324 0.02117 0.0526 0.0268 0.0202 0.0056 0.0419 0.0084 0.065 0.0084 0.0311 0 0.0595-0.0031 0.0853-0.0094s0.0501-0.01537 0.0729-0.02728 0.0446-0.02613 0.0655-0.04267c0.0208-0.01653 0.0412-0.03539 0.061-0.05657v-0.20837m-0.57057-0.4108c0.0556-0.05358 0.11544-0.0936 0.1796-0.12007 0.0642-0.02647 0.13529-0.0397 0.21334-0.0397 0.0562 0 0.10618 0.0093 0.14983 0.0278 0.0437 0.01851 0.0804 0.04431 0.11014 0.0774 0.0298 0.03307 0.0523 0.07309 0.0675 0.12007 0.0152 0.04696 0.0228 0.09855 0.0228 0.15477v0.643h-0.0784c-0.0172 0-0.0304-0.0028-0.0397-0.0084-9e-3 -0.0056-0.0165-0.01672-0.0218-0.03325l-0.0198-0.09527c-0.0265 0.02447-0.0523 0.04613-0.0774 0.06498s-0.0516 0.03473-0.0794 0.04763-0.0574 0.02282-0.0888 0.02977c-0.0314 0.0069-0.0663 0.01042-0.10465 0.01042-0.039 0-0.0758-0.0055-0.11017-0.01635-0.0344-0.01092-0.0643-0.02729-0.0898-0.04912-0.0255-0.02184-0.0457-0.04946-0.0605-0.08285-0.0149-0.03341-0.0223-0.07294-0.0223-0.11858 0-0.03969 0.0109-0.0779 0.0327-0.11462 0.0219-0.03672 0.0572-0.0693 0.10617-0.09775 0.0489-0.02844 0.11278-0.05176 0.1915-0.06995 0.0787-0.01819 0.17532-0.02861 0.28976-0.03125v-0.0784c0-0.07805-0.0169-0.13708-0.0506-0.17709-0.0337-0.04003-0.083-0.06005-0.14786-0.06005-0.0437 0-0.0802 0.0055-0.10965 0.01638-0.0294 0.0109-0.0549 0.02314-0.0764 0.0367-0.0215 0.01357-0.04 0.02581-0.0556 0.03673-0.0156 0.0109-0.0309 0.01635-0.0461 0.01635-0.0119 0-0.0222-0.0031-0.0308-0.0094-9e-3 -0.0063-0.0159-0.01407-0.0218-0.02332z" fill="#646b79" stroke-width="1.9845"/><path id="use111" d="m97.032 39.31c-0.0814 0.0026-0.15067 0.0091-0.20788 0.01935-0.0572 0.01026-0.10385 0.02365-0.1399 0.04018-0.0361 0.01653-0.0622 0.03605-0.0784 0.05853-0.0162 0.02249-0.0243 0.04763-0.0243 0.07543 0 0.02645 4e-3 0.04927 0.0129 0.06847 9e-3 0.01918 0.0204 0.03488 0.0352 0.04712 0.0149 0.01223 0.0324 0.02117 0.0526 0.0268 0.0202 0.0056 0.0419 0.0084 0.065 0.0084 0.0311 0 0.0595-0.0031 0.0853-0.0094s0.0501-0.01537 0.0729-0.02728 0.0446-0.02613 0.0655-0.04267c0.0208-0.01653 0.0412-0.03539 0.061-0.05657v-0.20837m-0.57056-0.4108c0.0556-0.05358 0.11544-0.0936 0.1796-0.12007 0.0642-0.02647 0.13529-0.0397 0.21333-0.0397 0.0563 0 0.10619 0.0093 0.14984 0.0278 0.0437 0.01851 0.0804 0.04431 0.11013 0.0774 0.0298 0.03307 0.0523 0.07309 0.0675 0.12007 0.0152 0.04696 0.0228 0.09855 0.0228 0.15477v0.643h-0.0784c-0.0172 0-0.0304-0.0028-0.0397-0.0084-9e-3 -0.0056-0.0165-0.01672-0.0218-0.03325l-0.0198-0.09527c-0.0265 0.02447-0.0523 0.04613-0.0774 0.06498s-0.0516 0.03473-0.0794 0.04763-0.0574 0.02282-0.0888 0.02977c-0.0314 0.0069-0.0663 0.01042-0.10466 0.01042-0.039 0-0.0758-0.0055-0.11016-0.01635-0.0344-0.01092-0.0643-0.02729-0.0898-0.04912-0.0255-0.02184-0.0457-0.04946-0.0605-0.08285-0.0149-0.03341-0.0223-0.07294-0.0223-0.11858 0-0.03969 0.0109-0.0779 0.0327-0.11462 0.0219-0.03672 0.0572-0.0693 0.10617-0.09775 0.049-0.02844 0.11279-0.05176 0.1915-0.06995 0.0787-0.01819 0.17533-0.02861 0.28977-0.03125v-0.0784c0-0.07805-0.0169-0.13708-0.0506-0.17709-0.0337-0.04003-0.083-0.06005-0.14787-0.06005-0.0436 0-0.0802 0.0055-0.10965 0.01638-0.0294 0.0109-0.0549 0.02314-0.0764 0.0367-0.0215 0.01357-0.04 0.02581-0.0556 0.03673-0.0156 0.0109-0.0309 0.01635-0.0461 0.01635-0.0119 0-0.0222-0.0031-0.0308-0.0094-9e-3 -0.0063-0.0159-0.01407-0.0218-0.02332z" fill="#646b79" stroke-width="1.9845"/><path id="use112" d="m97.642 38.959c0.0318-0.0688 0.0708-0.12255 0.11707-0.16125 0.0463-0.0387 0.10288-0.05805 0.1697-0.05805 0.0212 0 0.0415 0.0023 0.061 7e-3 0.0195 0.0046 0.0369 0.01189 0.0521 0.0218l-0.0129 0.132c-4e-3 0.01653-0.0139 0.0248-0.0298 0.0248-9e-3 0-0.0228-2e-3 -0.0407-0.0059-0.0179-4e-3 -0.038-6e-3 -0.0605-6e-3 -0.0318 0-0.06 0.0046-0.0848 0.0139-0.0248 0.0092-0.047 0.02296-0.0665 0.04115s-0.037 0.04069-0.0526 0.0675c-0.0155 0.02679-0.0296 0.05737-0.0421 0.09175v0.63507h-0.17762v-1.0052h0.10123c0.0192 0 0.0324 0.0036 0.0397 0.01093 7e-3 0.0073 0.0122 0.01983 0.0149 0.0377z" fill="#646b79" stroke-width="1.9845"/><path id="use113" d="m98.812 38.997c-0.0331-0.04431-0.0688-0.07523-0.10717-0.09275-0.0384-0.01754-0.0814-0.02631-0.129-0.02631-0.0933 0-0.16505 0.03341-0.21534 0.10023-0.0503 0.0668-0.0754 0.16206-0.0754 0.28577 0 0.06549 6e-3 0.12155 0.0169 0.16818 0.0112 0.04663 0.0278 0.085 0.0496 0.1151 0.0219 0.0301 0.0486 0.05209 0.0804 0.06598 0.0317 0.01389 0.0678 0.02083 0.10816 0.02083 0.0582 0 0.10897-0.01322 0.15229-0.03967 0.0433-0.02647 0.0832-0.06384 0.11958-0.11213v-0.48523m0.17664-0.69557v1.4616h-0.1052c-0.0251 0-0.041-0.01224-0.0476-0.0367l-0.0159-0.12206c-0.043 0.0516-0.0919 0.09328-0.14687 0.12503-0.0549 0.03176-0.11839 0.04763-0.1905 0.04763-0.0575 0-0.10982-0.01108-0.1568-0.03325-0.047-0.02217-0.087-0.05475-0.12003-0.09775-0.0331-0.043-0.0585-0.09658-0.0764-0.16074-0.0179-0.06418-0.0268-0.13793-0.0268-0.22127 0-0.07409 0.01-0.14305 0.0298-0.20688 0.0198-0.06385 0.0483-0.11926 0.0853-0.16622 0.037-0.04698 0.0825-0.08386 0.13642-0.11065 0.0539-0.02679 0.11462-0.04018 0.18211-0.04018 0.0615 0 0.11426 0.01043 0.15825 0.03128 0.044 0.02083 0.0832 0.04977 0.11759 0.08682v-0.55667z" fill="#646b79" stroke-width="1.9845"/><path id="use1767" d="m66.266 35.185c0 0.21312-0.0361 0.40869-0.10833 0.5867-0.0722 0.17802-0.17421 0.33123-0.30594 0.45964-0.1317 0.12837-0.28996 0.22798-0.47477 0.29884-0.18482 0.07081-0.38913 0.10622-0.61293 0.10622-0.22376 0-0.4277-0.03541-0.61182-0.10622-0.18413-0.07085-0.34204-0.17046-0.47374-0.29884-0.13169-0.12841-0.23367-0.28163-0.30594-0.45964-0.0722-0.17802-0.10833-0.37358-0.10833-0.5867s0.0361-0.40869 0.10833-0.5867c0.0723-0.17802 0.17425-0.33156 0.30594-0.46061 0.1317-0.12906 0.28961-0.22932 0.47374-0.30077 0.18412-0.0715 0.38806-0.10725 0.61182-0.10725 0.2238 0 0.42811 0.03575 0.61293 0.10725 0.18481 0.07146 0.34307 0.17172 0.47477 0.30077 0.13173 0.12906 0.23372 0.2826 0.30594 0.46061 0.0722 0.17802 0.10833 0.37358 0.10833 0.5867m-0.4227 0c0-0.1747-0.0255-0.33156-0.0765-0.47055s-0.12324-0.25646-0.21673-0.3524c-0.0934-0.09598-0.20675-0.16978-0.33992-0.2214-0.13312-0.05162-0.28182-0.07744-0.44611-0.07744-0.16286 0-0.31085 0.02581-0.44397 0.07744-0.13313 0.05162-0.24678 0.12542-0.34096 0.2214-0.0942 0.09594-0.16677 0.2134-0.21777 0.3524s-0.0765 0.29585-0.0765 0.47055c0 0.1747 0.0255 0.33123 0.0765 0.46958 0.051 0.13831 0.12359 0.25545 0.21777 0.35143 0.0942 0.09593 0.20783 0.16939 0.34096 0.22037 0.13312 0.05094 0.28111 0.0764 0.44397 0.0764 0.16429 0 0.31299-0.02547 0.44611-0.0764 0.13317-0.05098 0.24647-0.12443 0.33992-0.22037 0.0935-0.09598 0.16573-0.21312 0.21673-0.35143 0.051-0.13835 0.0765-0.29488 0.0765-0.46958z" fill="#373c44" stroke-width="4.1075"/><g id="g1767" transform="matrix(.26458 0 0 .26458 50.377 22.001)" clip-path="url(#clip_38)"><path id="path1767" d="m53.039 47.816c0.191-0.097 0.418-0.039 0.586 0.075 0.914 0.523 1.828 1.043 2.742 1.57 0.285 0.172 0.231 0.617-0.066 0.754-0.926 0.527-1.848 1.058-2.774 1.586-0.265 0.14-0.672 4e-3 -0.715-0.293-0.019-0.32-3e-3 -0.645-7e-3 -0.965 0-0.789-4e-3 -1.582 0-2.375 4e-3 -0.145 0.093-0.281 0.234-0.352z" fill="#1d6a54"/></g></g></svg>
