<svg width="914.32" height="491.44" version="1.1" viewBox="0 0 914.32 491.44" xml:space="preserve" xmlns="http://www.w3.org/2000/svg"><defs><clipPath id="clip_38"><path d="m52.801 47.77h4.199v4.23h-4.199z"/></clipPath></defs><g transform="translate(-31.697 -32.345)"><rect x="32.779" y="124.29" width="441.78" height="351.3" ry="19.62" fill="none" stroke="#373c44" stroke-linecap="round" stroke-linejoin="round" stroke-miterlimit="6" stroke-width="2.1638" style="paint-order:fill markers stroke"/><g transform="matrix(.13399 0 0 .13399 78.118 150.99)"><rect x="-21.261" y="166.74" width="169.94" height="169.94" rx="7.7247" fill="none" stroke="#000" stroke-linecap="round" stroke-linejoin="round" stroke-width="15.199"/><line x1="115" x2="115" y1="151" y2="183" fill="none" stroke="#000" stroke-linecap="round" stroke-linejoin="round" stroke-width="15.199"/><line x1="19" x2="19" y1="151" y2="183" fill="none" stroke="#000" stroke-linecap="round" stroke-linejoin="round" stroke-width="15.199"/><line x1="-21" x2="155" y1="215" y2="215" fill="none" stroke="#000" stroke-linecap="round" stroke-linejoin="round" stroke-width="15.199"/><g transform="matrix(1.8367 0 0 1.8367 -125.26 -47.273)" stroke-width="8.2751"><line x1="86.374" x2="124.24" y1="160.22" y2="160.22" fill="none" stroke="#000" stroke-linecap="round" stroke-linejoin="round" stroke-width="8.2751"/><line x1="86.374" x2="124.24" y1="176.2" y2="176.2" fill="none" stroke="#000" stroke-linecap="round" stroke-linejoin="round" stroke-width="8.2751"/><line x1="86.374" x2="124.24" y1="192.18" y2="192.18" fill="none" stroke="#000" stroke-linecap="round" stroke-linejoin="round" stroke-width="8.2751"/><circle cx="73.676" cy="159.79" r="4.3839" stroke-width="8.2751"/><circle cx="73.676" cy="176.05" r="4.3839" stroke-width="8.2751"/><circle cx="73.676" cy="192.03" r="4.3839"/></g></g><g transform="matrix(.12414 0 0 .12414 111.02 221.59)" fill="none" stroke="#000" stroke-linecap="round" stroke-linejoin="round" stroke-width="19.244"><circle cx="-234" cy="147" r="60"/><path d="m-318 247c20.55-24.45 49.56-40 84-40s63.45 15.55 84 40"/><path d="m-142 107.74a100.33 100.33 0 0 1 0 78.52"/><path d="m-112.64 95a132.39 132.39 0 0 1 0 104"/></g><g transform="matrix(.13339 0 0 .13339 12.898 251.99)" fill="none" stroke="#000" stroke-linecap="round" stroke-linejoin="round" stroke-width="17.26"><rect transform="rotate(-45)" x="57.772" y="597.99" width="106.51" height="38.63" rx="8"/><rect transform="rotate(-45)" x="57.772" y="722.45" width="106.51" height="38.63" rx="8"/><line x1="556.66" x2="617.34" y1="343.66" y2="404.34"/><line x1="500.66" x2="561.34" y1="399.66" y2="460.34"/><path d="m543 442-71 71a17 17 0 0 1-24 0 17 17 0 0 1 0-24l71-71"/></g><g transform="matrix(.15162 0 0 .15162 50.365 307.93)" fill="none" stroke="#000" stroke-linecap="round" stroke-linejoin="round" stroke-width="17.46"><path d="m274 371a59.91 59.91 0 0 1 48 24"/><path d="m98 395a59.91 59.91 0 0 1 48-24"/><circle cx="210" cy="395" r="40"/><path d="m154 467a65 65 0 0 1 112 0"/><path d="m243 331a32 32 0 1 1 31 40"/><path d="m146 371a32 32 0 1 1 31-40"/></g><g transform="matrix(.14354 0 0 .14549 23.742 366.52)" fill="none" stroke="currentColor" stroke-linecap="round" stroke-linejoin="round" stroke-width="15.97"><line x1="452" x2="492" y1="391" y2="391"/><line x1="452" x2="492" y1="423" y2="423"/><rect x="332" y="327" width="192" height="160" rx="8"/><circle cx="396" cy="399" r="24"/><path d="m364 447c3.55-13.8 17.09-24 32-24s28.46 10.19 32 24"/></g><text x="118.459" y="180.28064" fill="#000000" fill-rule="evenodd" font-family="Sans" font-size="18.667px" font-weight="bold" letter-spacing=".1381px" stroke-linecap="round" stroke-linejoin="round" stroke-miterlimit="6" stroke-width="3.3236" word-spacing="0px" style="font-variant-caps:normal;font-variant-east-asian:normal;font-variant-ligatures:normal;font-variant-numeric:normal;line-height:1.8;paint-order:markers stroke fill" xml:space="preserve"><tspan x="118.459" y="180.28064" font-family="Sans" font-size="18.667px" font-weight="bold" stroke-width="3.3236" style="font-variant-caps:normal;font-variant-east-asian:normal;font-variant-ligatures:normal;font-variant-numeric:normal">Agendapunten</tspan></text><text x="117.03416" y="202.28064" fill="#707070" fill-rule="evenodd" font-family="Lato" font-size="18.667px" font-weight="600" letter-spacing=".1381px" stroke-linecap="round" stroke-linejoin="round" stroke-miterlimit="6" stroke-width="3.3236" word-spacing="0px" style="font-variant-caps:normal;font-variant-east-asian:normal;font-variant-ligatures:normal;font-variant-numeric:normal;line-height:1.8;paint-order:markers stroke fill" xml:space="preserve"><tspan x="117.03416" y="202.28064" fill="#707070" font-family="Lato" font-size="18.667px" font-weight="600" stroke-width="3.3236" style="font-variant-caps:normal;font-variant-east-asian:normal;font-variant-ligatures:normal;font-variant-numeric:normal">Zoals volgnummer &amp; begintijd</tspan></text><text x="117.60034" y="242.28064" fill="#000000" fill-rule="evenodd" font-family="Sans" font-size="18.667px" font-weight="bold" letter-spacing=".1381px" stroke-linecap="round" stroke-linejoin="round" stroke-miterlimit="6" stroke-width="3.3236" word-spacing="0px" style="font-variant-caps:normal;font-variant-east-asian:normal;font-variant-ligatures:normal;font-variant-numeric:normal;line-height:1.8;paint-order:markers stroke fill" xml:space="preserve"><tspan x="117.60034" y="242.28064" font-family="Sans" font-size="18.667px" font-weight="bold" stroke-width="3.3236" style="font-variant-caps:normal;font-variant-east-asian:normal;font-variant-ligatures:normal;font-variant-numeric:normal">Sprekersinformatie</tspan></text><text x="118.24435" y="264.20786" fill="#707070" fill-rule="evenodd" font-family="Lato" font-size="18.667px" font-weight="600" letter-spacing=".1381px" stroke-linecap="round" stroke-linejoin="round" stroke-miterlimit="6" stroke-width="3.3236" word-spacing="0px" style="font-variant-caps:normal;font-variant-east-asian:normal;font-variant-ligatures:normal;font-variant-numeric:normal;line-height:1.8;paint-order:markers stroke fill" xml:space="preserve"><tspan x="118.24435" y="264.20786" fill="#707070" font-family="Lato" font-size="18.667px" font-weight="600" stroke-width="3.3236" style="font-variant-caps:normal;font-variant-east-asian:normal;font-variant-ligatures:normal;font-variant-numeric:normal">Wie sprak wanneer?</tspan></text><text x="116.87217" y="304.57419" fill="#000000" fill-rule="evenodd" font-family="Sans" font-size="18.667px" font-weight="bold" letter-spacing=".1381px" stroke-linecap="round" stroke-linejoin="round" stroke-miterlimit="6" stroke-width="3.3236" word-spacing="0px" style="font-variant-caps:normal;font-variant-east-asian:normal;font-variant-ligatures:normal;font-variant-numeric:normal;line-height:1.8;paint-order:markers stroke fill" xml:space="preserve"><tspan x="116.87217" y="304.57419" font-family="Sans" font-size="18.667px" font-weight="bold" stroke-width="3.3236" style="font-variant-caps:normal;font-variant-east-asian:normal;font-variant-ligatures:normal;font-variant-numeric:normal">Besluiten</tspan></text><text x="116.86298" y="325.81335" fill="#707070" fill-rule="evenodd" font-family="Lato" font-size="18.667px" font-weight="600" letter-spacing=".1381px" stroke-linecap="round" stroke-linejoin="round" stroke-miterlimit="6" stroke-width="3.3236" word-spacing="0px" style="font-variant-caps:normal;font-variant-east-asian:normal;font-variant-ligatures:normal;font-variant-numeric:normal;line-height:1.8;paint-order:markers stroke fill" xml:space="preserve"><tspan x="116.86298" y="325.81335" fill="#707070" font-family="Lato" font-size="18.667px" font-weight="600" stroke-width="3.3236" style="font-variant-caps:normal;font-variant-east-asian:normal;font-variant-ligatures:normal;font-variant-numeric:normal">Inclusief stemmingen &amp; toezeggingen </tspan></text><text x="116.77899" y="362.31735" fill="#000000" fill-rule="evenodd" font-family="Sans" font-size="18.667px" font-weight="bold" letter-spacing=".1381px" stroke-linecap="round" stroke-linejoin="round" stroke-miterlimit="6" stroke-width="3.3236" word-spacing="0px" style="font-variant-caps:normal;font-variant-east-asian:normal;font-variant-ligatures:normal;font-variant-numeric:normal;line-height:1.8;paint-order:markers stroke fill" xml:space="preserve"><tspan x="116.77899" y="362.31735" font-family="Sans" font-size="18.667px" font-weight="bold" stroke-width="3.3236" style="font-variant-caps:normal;font-variant-east-asian:normal;font-variant-ligatures:normal;font-variant-numeric:normal">Fracties</tspan></text><text x="116.86298" y="383.92535" fill="#707070" fill-rule="evenodd" font-family="Lato" font-size="18.667px" font-weight="600" letter-spacing=".1381px" stroke-linecap="round" stroke-linejoin="round" stroke-miterlimit="6" stroke-width="3.3236" word-spacing="0px" style="font-variant-caps:normal;font-variant-east-asian:normal;font-variant-ligatures:normal;font-variant-numeric:normal;line-height:1.8;paint-order:markers stroke fill" xml:space="preserve"><tspan x="116.86298" y="383.92535" fill="#707070" font-family="Lato" font-size="18.667px" font-weight="600" stroke-width="3.3236" style="font-variant-caps:normal;font-variant-east-asian:normal;font-variant-ligatures:normal;font-variant-numeric:normal">Handelingen van een fractie</tspan></text><text x="116.87217" y="421.81354" fill="#000000" fill-rule="evenodd" font-family="Sans" font-size="18.667px" font-weight="bold" letter-spacing=".1381px" stroke-linecap="round" stroke-linejoin="round" stroke-miterlimit="6" stroke-width="3.3236" word-spacing="0px" style="font-variant-caps:normal;font-variant-east-asian:normal;font-variant-ligatures:normal;font-variant-numeric:normal;line-height:1.8;paint-order:markers stroke fill" xml:space="preserve"><tspan x="116.87217" y="421.81354" font-family="Sans" font-size="18.667px" font-weight="bold" stroke-width="3.3236" style="font-variant-caps:normal;font-variant-east-asian:normal;font-variant-ligatures:normal;font-variant-numeric:normal">Lidmaatschappen</tspan></text><text x="116.86298" y="442.81335" fill="#707070" fill-rule="evenodd" font-family="Lato" font-size="18.667px" font-weight="600" letter-spacing=".1381px" stroke-linecap="round" stroke-linejoin="round" stroke-miterlimit="6" stroke-width="3.3236" word-spacing="0px" style="font-variant-caps:normal;font-variant-east-asian:normal;font-variant-ligatures:normal;font-variant-numeric:normal;line-height:1.8;paint-order:markers stroke fill" xml:space="preserve"><tspan x="116.86298" y="442.81335" fill="#707070" font-family="Lato" font-size="18.667px" font-weight="600" stroke-width="3.3236" style="font-variant-caps:normal;font-variant-east-asian:normal;font-variant-ligatures:normal;font-variant-numeric:normal">Bestuur- en fractielidmaatschappen</tspan></text><rect x="57.018" y="109.92" width="155.36" height="32.611" ry="16.305" fill="#e4ebf2" fill-rule="evenodd" style="paint-order:markers stroke fill"/><text x="73.735878" y="131.32384" fill="#37669c" fill-rule="evenodd" font-family="Lato" font-size="16.411px" font-weight="bold" letter-spacing=".08294px" stroke-linecap="round" stroke-linejoin="round" stroke-miterlimit="6" stroke-width=".92155" word-spacing="0px" style="font-variant-caps:normal;font-variant-east-asian:normal;font-variant-ligatures:normal;font-variant-numeric:normal;line-height:1.8;paint-order:markers stroke fill" xml:space="preserve"><tspan x="73.735878" y="131.32384" font-family="Lato" font-size="16.411px" font-weight="bold" stroke-width=".92155" style="font-variant-caps:normal;font-variant-east-asian:normal;font-variant-ligatures:normal;font-variant-numeric:normal">Raadsinformatie</tspan></text><rect x="503.09" y="125.16" width="441.76" height="350.58" ry="19.58" fill="none" stroke="#373c44" stroke-linecap="round" stroke-linejoin="round" stroke-miterlimit="6" stroke-width="2.3388" style="paint-order:fill markers stroke"/><text x="587" y="180.20535" fill="#000000" fill-rule="evenodd" font-family="Sans" font-size="18.667px" font-weight="bold" letter-spacing=".1381px" stroke-linecap="round" stroke-linejoin="round" stroke-miterlimit="6" stroke-width="3.3236" word-spacing="0px" style="font-variant-caps:normal;font-variant-east-asian:normal;font-variant-ligatures:normal;font-variant-numeric:normal;line-height:1.8;paint-order:markers stroke fill" xml:space="preserve"><tspan x="587" y="180.20535" font-family="Sans" font-size="18.667px" font-weight="bold" stroke-width="3.3236" style="font-variant-caps:normal;font-variant-east-asian:normal;font-variant-ligatures:normal;font-variant-numeric:normal">Videotulen</tspan></text><text x="587.02802" y="202.28035" fill="#707070" fill-rule="evenodd" font-family="Lato" font-size="18.667px" font-weight="600" letter-spacing=".1381px" stroke-linecap="round" stroke-linejoin="round" stroke-miterlimit="6" stroke-width="3.3236" word-spacing="0px" style="font-variant-caps:normal;font-variant-east-asian:normal;font-variant-ligatures:normal;font-variant-numeric:normal;line-height:1.8;paint-order:markers stroke fill" xml:space="preserve"><tspan x="587.02802" y="202.28035" fill="#707070" font-family="Lato" font-size="18.667px" font-weight="600" stroke-width="3.3236" style="font-variant-caps:normal;font-variant-east-asian:normal;font-variant-ligatures:normal;font-variant-numeric:normal">Video-opnames van vergaderingen </tspan></text><text x="587" y="242.20636" fill="#000000" fill-rule="evenodd" font-family="Sans" font-size="18.667px" font-weight="bold" letter-spacing=".1381px" stroke-linecap="round" stroke-linejoin="round" stroke-miterlimit="6" stroke-width="3.3236" word-spacing="0px" style="font-variant-caps:normal;font-variant-east-asian:normal;font-variant-ligatures:normal;font-variant-numeric:normal;line-height:1.8;paint-order:markers stroke fill" xml:space="preserve"><tspan x="587" y="242.20636" font-family="Sans" font-size="18.667px" font-weight="bold" stroke-width="3.3236" style="font-variant-caps:normal;font-variant-east-asian:normal;font-variant-ligatures:normal;font-variant-numeric:normal">Audiotulen</tspan></text><text x="587.02802" y="264.20834" fill="#707070" fill-rule="evenodd" font-family="Lato" font-size="18.667px" font-weight="600" letter-spacing=".1381px" stroke-linecap="round" stroke-linejoin="round" stroke-miterlimit="6" stroke-width="3.3236" word-spacing="0px" style="font-variant-caps:normal;font-variant-east-asian:normal;font-variant-ligatures:normal;font-variant-numeric:normal;line-height:1.8;paint-order:markers stroke fill" xml:space="preserve"><tspan x="587.02802" y="264.20834" fill="#707070" font-family="Lato" font-size="18.667px" font-weight="600" stroke-width="3.3236" style="font-variant-caps:normal;font-variant-east-asian:normal;font-variant-ligatures:normal;font-variant-numeric:normal">Audio-opnames van vergaderingen</tspan></text><text x="586.64532" y="304.57434" fill="#000000" fill-rule="evenodd" font-family="Sans" font-size="18.667px" font-weight="bold" letter-spacing=".1381px" stroke-linecap="round" stroke-linejoin="round" stroke-miterlimit="6" stroke-width="3.3236" word-spacing="0px" style="font-variant-caps:normal;font-variant-east-asian:normal;font-variant-ligatures:normal;font-variant-numeric:normal;line-height:1.8;paint-order:markers stroke fill" xml:space="preserve"><tspan x="586.64532" y="304.57434" font-family="Sans" font-size="18.667px" font-weight="bold" stroke-width="3.3236" style="font-variant-caps:normal;font-variant-east-asian:normal;font-variant-ligatures:normal;font-variant-numeric:normal">Transcripties &amp; notulen</tspan></text><text x="585.57202" y="325.81335" fill="#707070" fill-rule="evenodd" font-family="Lato" font-size="18.667px" font-weight="600" letter-spacing=".1381px" stroke-linecap="round" stroke-linejoin="round" stroke-miterlimit="6" stroke-width="3.3236" word-spacing="0px" style="font-variant-caps:normal;font-variant-east-asian:normal;font-variant-ligatures:normal;font-variant-numeric:normal;line-height:1.8;paint-order:markers stroke fill" xml:space="preserve"><tspan x="585.57202" y="325.81335" fill="#707070" font-family="Lato" font-size="18.667px" font-weight="600" stroke-width="3.3236" style="font-variant-caps:normal;font-variant-east-asian:normal;font-variant-ligatures:normal;font-variant-numeric:normal">Uitgeschreven verslagen</tspan></text><g transform="matrix(.9438 0 0 .9438 41.654 35.102)" fill="none" stroke="currentColor" stroke-linecap="round" stroke-linejoin="round" stroke-width="2.2196"><path d="m554.82 365.57h-17.57a1.255 1.255 0 0 1-1.255-1.255v-22.59a1.255 1.255 0 0 1 1.255-1.255h12.55l6.2751 6.2751v17.57a1.255 1.255 0 0 1-1.255 1.255z"/><path d="m541.02 340.47v-3.7651a1.255 1.255 0 0 1 1.255-1.255h12.55l6.2751 6.2751v17.57a1.255 1.255 0 0 1-1.255 1.255h-3.7651"/><line x1="542.27" x2="549.8" y1="354.27" y2="354.27"/><line x1="542.27" x2="549.8" y1="359.3" y2="359.3"/></g><g transform="matrix(.84784 0 0 .80769 101.07 90.695)" fill="none" stroke="currentColor" stroke-linecap="round" stroke-linejoin="round"><polygon transform="matrix(.16456 0 0 .16456 520 171)" points="96 224 72 200 48 200 48 160 72 160 96 136" stroke-width="16"/><path d="m541.06 196.01a5.3482 5.3482 0 0 1 0 9.2153" stroke-width="2.6329"/><polyline transform="matrix(.16456 0 0 .16456 520 171)" points="152 32 152 88 208 88" stroke-width="16"/><path d="m547.65 207.86h5.2659a1.3165 1.3165 0 0 0 1.3165-1.3165v-21.064l-9.2153-9.2153h-15.798a1.3165 1.3165 0 0 0-1.3165 1.3165v13.165" stroke-width="2.6329"/></g><g transform="matrix(.59789 0 0 .59789 185.43 43.035)" fill="none" stroke="currentColor" stroke-linecap="round" stroke-linejoin="round"><polyline transform="matrix(.22272 0 0 .22272 599 206)" points="152 32 152 88 208 88" stroke-width="16"/><path d="m641.76 255.89h1.7818a1.7818 1.7818 0 0 0 1.7818-1.7818v-28.508l-12.472-12.472h-21.381a1.7818 1.7818 0 0 0-1.7818 1.7818v16.036" stroke-width="3.5636"/><rect x="607.91" y="239.85" width="17.818" height="14.254" rx="1.7818" stroke-width="3.5636"/><polyline transform="matrix(.22272 0 0 .22272 599 206)" points="120 172 152 152 152 216 120 196" stroke-width="16"/></g><text x="587" y="362.29871" fill="#000000" fill-rule="evenodd" font-family="Sans" font-size="18.667px" font-weight="bold" letter-spacing=".1381px" stroke-linecap="round" stroke-linejoin="round" stroke-miterlimit="6" stroke-width="3.3236" word-spacing="0px" style="font-variant-caps:normal;font-variant-east-asian:normal;font-variant-ligatures:normal;font-variant-numeric:normal;line-height:1.8;paint-order:markers stroke fill" xml:space="preserve"><tspan x="587" y="362.29871" font-family="Sans" font-size="18.667px" font-weight="bold" stroke-width="3.3236" style="font-variant-caps:normal;font-variant-east-asian:normal;font-variant-ligatures:normal;font-variant-numeric:normal">Vergaderstukken</tspan></text><text x="586.57068" y="383.92535" fill="#707070" fill-rule="evenodd" font-family="Lato" font-size="18.667px" font-weight="600" letter-spacing=".1381px" stroke-linecap="round" stroke-linejoin="round" stroke-miterlimit="6" stroke-width="3.3236" word-spacing="0px" style="font-variant-caps:normal;font-variant-east-asian:normal;font-variant-ligatures:normal;font-variant-numeric:normal;line-height:1.8;paint-order:markers stroke fill" xml:space="preserve"><tspan x="586.57068" y="383.92535" fill="#707070" font-family="Lato" font-size="18.667px" font-weight="600" stroke-width="3.3236" style="font-variant-caps:normal;font-variant-east-asian:normal;font-variant-ligatures:normal;font-variant-numeric:normal">Zoals moties &amp; vragen aan de raad </tspan></text><g transform="matrix(.98334 0 0 .9932 17.989 10.921)" fill="none" stroke="currentColor" stroke-linecap="round" stroke-linejoin="round"><polygon transform="matrix(.12277 0 0 .12277 535.25 280.04)" points="192 32 224 64 128 160 96 160 96 128" stroke-width="16"/><line x1="555.88" x2="559.8" y1="286.92" y2="290.84" stroke-width="1.9643"/><path d="m561.68 297.88v11.677a0.97444 1.1677 0 0 1-0.97445 1.1677h-19.489a0.97444 1.1677 0 0 1-0.97444-1.1677v-23.355a0.97444 1.1677 0 0 1 0.97444-1.1677h9.7444" stroke-width="2.1334"/></g><g transform="matrix(.93731 0 0 .97859 41.313 29.686)" fill="none" stroke="currentColor" stroke-linecap="round" stroke-linejoin="round"><path d="m564.3 417.09h-26.562a1.1073 1.1641 0 0 1-1.1043-1.161v-18.976h27.533a1.1971 1.2585 0 0 1 1.1971 1.2585v17.759a1.0639 1.1185 0 0 1-1.0639 1.1185z" stroke-width="2.4549"/><path d="m536.66 396.89v-3.7004a1.2774 1.2335 0 0 1 1.2774-1.2335h8.4136a1.2774 1.2335 0 0 1 0.9022 0.3608l4.7361 4.5731" stroke-width="2.5105"/></g><g transform="matrix(1.0926 0 0 1.0926 -33.573 -19.615)" display="none" fill="none"><rect x="524.6" y="166.82" width="42.015" height="42.015" stroke-width="3.007"/><rect x="528.54" y="177.33" width="28.885" height="21.008" rx="1.313" stroke="currentColor" stroke-linecap="round" stroke-linejoin="round" stroke-width="3.007"/><polyline transform="matrix(.16412 0 0 .16412 524.6 166.82)" points="200 112 244 80 244 176 200 144" stroke="currentColor" stroke-linecap="round" stroke-linejoin="round" stroke-width="18.322"/></g><text x="585.41333" y="421.888" fill="#000000" fill-rule="evenodd" font-family="Sans" font-size="18.667px" font-weight="bold" letter-spacing=".1381px" stroke-linecap="round" stroke-linejoin="round" stroke-miterlimit="6" stroke-width="3.3236" word-spacing="0px" style="font-variant-caps:normal;font-variant-east-asian:normal;font-variant-ligatures:normal;font-variant-numeric:normal;line-height:1.8;paint-order:markers stroke fill" xml:space="preserve"><tspan x="585.41333" y="421.888" font-family="Sans" font-size="18.667px" font-weight="bold" stroke-width="3.3236" style="font-variant-caps:normal;font-variant-east-asian:normal;font-variant-ligatures:normal;font-variant-numeric:normal">Dossierinformatie</tspan></text><text x="587.02802" y="442.81335" fill="#707070" fill-rule="evenodd" font-family="Lato" font-size="18.667px" font-weight="600" letter-spacing=".1381px" stroke-linecap="round" stroke-linejoin="round" stroke-miterlimit="6" stroke-width="3.3236" word-spacing="0px" style="font-variant-caps:normal;font-variant-east-asian:normal;font-variant-ligatures:normal;font-variant-numeric:normal;line-height:1.8;paint-order:markers stroke fill" xml:space="preserve"><tspan x="587.02802" y="442.81335" fill="#707070" font-family="Lato" font-size="18.667px" font-weight="600" stroke-width="3.3236" style="font-variant-caps:normal;font-variant-east-asian:normal;font-variant-ligatures:normal;font-variant-numeric:normal">Voor afschermingen &amp; bewaartermijnen</tspan></text><rect x="528" y="108" width="274.9" height="32.611" ry="16.305" fill="#e7e0e9" fill-rule="evenodd" style="paint-order:markers stroke fill"/><text x="545.6748" y="129.40018" fill="#4d1a57" fill-rule="evenodd" font-family="Lato" font-size="16.411px" font-weight="bold" letter-spacing=".08294px" stroke-linecap="round" stroke-linejoin="round" stroke-miterlimit="6" stroke-width=".92155" word-spacing="0px" style="font-variant-caps:normal;font-variant-east-asian:normal;font-variant-ligatures:normal;font-variant-numeric:normal;line-height:1.8;paint-order:markers stroke fill" xml:space="preserve"><tspan x="545.6748" y="129.40018" fill="#4d1a57" font-family="Lato" font-size="16.411px" font-weight="bold" stroke-width=".92155" style="font-variant-caps:normal;font-variant-east-asian:normal;font-variant-ligatures:normal;font-variant-numeric:normal">Informatieobjecten &amp; bestanden</tspan></text><path d="m217.53 52.45c1.5861 0 2.9878-0.19397 4.205-0.58047 1.218-0.3865 2.2373-0.93416 3.0582-1.6428 0.82149-0.7074 1.44-1.5529 1.8553-2.5345 0.41504-0.98123 0.62326-2.067 0.62326-3.2562 0-2.4161-0.79297-4.2377-2.379-5.4648-1.5855-1.2265-3.9638-1.8407-7.1353-1.8407h-6.0033v15.319h5.776m18.746 20.926h-4.8705c-1.0012 0-1.7368-0.3865-2.2088-1.1609l-10.534-14.499c-0.32089-0.45211-0.66604-0.77871-1.034-0.97695-0.36795-0.19824-0.93844-0.29665-1.7127-0.29665h-4.1627v16.933h-5.4649v-40.578h11.468c2.567 0 4.7851 0.25986 6.654 0.77942 1.8689 0.519 3.4119 1.2693 4.6293 2.2512 1.218 0.98123 2.1195 2.1661 2.7048 3.5534 0.58474 1.3877 0.87853 2.9398 0.87853 4.6577 0 1.435-0.22676 2.7757-0.68029 4.0218-0.45211 1.2451-1.1082 2.3641-1.9676 3.3556-0.85857 0.99121-1.907 1.8357-3.1438 2.5345-1.2365 0.69884-2.6378 1.2265-4.2042 1.5849 0.69884 0.39649 1.3021 0.97267 1.8121 1.7274z" fill="#373c44" stroke-width="56.633"/><path d="m247.29 73.376h-5.4934v-40.578h5.4934z" fill="#373c44" stroke-width="56.633"/><path d="m258.36 56.528c0-1.4534 0.2781-2.822 0.83433-4.1055 0.55764-1.2836 1.3078-2.4027 2.2511-3.3556 0.94414-0.95413 2.0532-1.7085 3.3269-2.265 1.275-0.55765 2.6291-0.83576 4.0641-0.83576 1.4536 0 2.8172 0.27811 4.0909 0.83576 1.2736 0.55622 2.3883 1.3121 3.3417 2.265 0.95413 0.9527 1.7084 2.0714 2.265 3.3556 0.55765 1.2836 0.83575 2.652 0.83575 4.1055 0 1.4536-0.2781 2.8175-0.83575 4.0918-0.55622 1.275-1.3121 2.3836-2.265 3.3279-0.9527 0.94415-2.0674 1.694-3.3417 2.2511-1.2736 0.55622-2.6374 0.83433-4.0909 0.83433-1.435 0-2.7897-0.27811-4.0641-0.83433-1.2736-0.55765-2.3828-1.3078-3.3269-2.2511-0.94415-0.94415-1.694-2.0534-2.2511-3.3279-0.55623-1.275-0.83433-2.6382-0.83433-4.0918z" fill="#4d1a57" stroke-width="56.633"/><path d="m312.02 58.311-6.3714-16.508c-0.18826-0.49061-0.38651-1.0611-0.59473-1.7127-0.2068-0.65178-0.40504-1.3449-0.59472-2.0817-0.39649 1.5289-0.80296 2.8029-1.218 3.8221l-6.3714 16.48h15.149m11.44 15.065h-4.2474c-0.49061 0-0.88709-0.12836-1.1894-0.36796-0.30236-0.24531-0.52913-0.55622-0.6803-0.93416l-3.7944-9.7977h-18.207l-3.7944 9.7977c-0.1141 0.33944-0.33089 0.64179-0.65179 0.90564-0.32088 0.26385-0.71738 0.39648-1.1894 0.39648h-4.2474l16.225-40.578h5.5496z" fill="#373c44" stroke-width="56.633"/><path d="m199.83 53.101c0 3.0395-0.51487 5.8288-1.545 8.3675-1.0297 2.5389-2.4846 4.7242-4.3633 6.5555-1.8783 1.8308-4.1354 3.2515-6.7712 4.2619-2.6359 1.0098-5.5498 1.5149-8.7416 1.5149-3.1913 0-6.0999-0.50488-8.7258-1.5149-2.6261-1.0112-4.8782-2.4311-6.7565-4.2619-1.8782-1.8314-3.3326-4.0166-4.3633-6.5555-1.0297-2.5388-1.545-5.328-1.545-8.3675s0.51486-5.8288 1.545-8.3675c1.0311-2.5389 2.4852-4.7287 4.3633-6.5694 1.8783-1.8407 4.1304-3.2704 6.7565-4.2896 2.6259-1.0197 5.5345-1.5296 8.7258-1.5296 3.1918 0 6.1057 0.50987 8.7416 1.5296 2.6358 1.0197 4.8929 2.4489 6.7712 4.2896 1.8787 1.8407 3.3333 4.0305 4.3633 6.5694 1.0297 2.5388 1.545 5.328 1.545 8.3675m-6.0286 0c0-2.4916-0.36368-4.7286-1.091-6.711-0.72736-1.9824-1.7576-3.6576-3.091-5.0259-1.3321-1.3692-2.9487-2.4213-4.848-3.1576-1.8986-0.73592-4.0193-1.1039-6.3624-1.1039-2.3227 0-4.4334 0.36796-6.3319 1.1039-1.8987 0.73592-3.5196 1.7889-4.8628 3.1576-1.3435 1.3677-2.3785 3.0435-3.1058 5.0259-0.72736 1.9824-1.091 4.2194-1.091 6.711 0 2.4917 0.36368 4.724 1.091 6.6972 0.72737 1.9726 1.7627 3.6432 3.1058 5.0121 1.3435 1.3677 2.9641 2.4158 4.8628 3.1429 1.8986 0.72594 4.0092 1.0896 6.3319 1.0896 2.3431 0 4.4639-0.36368 6.3624-1.0896 1.8993-0.72736 3.5152-1.7746 4.848-3.1429 1.3335-1.3692 2.3636-3.0395 3.091-5.0121 0.72737-1.9732 1.091-4.2054 1.091-6.6972z" fill="#373c44" stroke-width="58.582"/><g transform="matrix(3.7735 0 0 3.7735 -26.786 -134.93)" clip-path="url(#clip_38)"><path d="m53.039 47.816c0.191-0.097 0.418-0.039 0.586 0.075 0.914 0.523 1.828 1.043 2.742 1.57 0.285 0.172 0.231 0.617-0.066 0.754-0.926 0.527-1.848 1.058-2.774 1.586-0.265 0.14-0.672 4e-3 -0.715-0.293-0.019-0.32-3e-3 -0.645-7e-3 -0.965 0-0.789-4e-3 -1.582 0-2.375 4e-3 -0.145 0.093-0.281 0.234-0.352z" fill="#1d6a54"/></g></g><g transform="matrix(.84636 0 0 .84636 24.926 10.423)" fill="none" stroke="#373c44" stroke-linecap="round" stroke-linejoin="round"><polyline transform="matrix(.55507 0 0 .55507 421.33 -6.3839)" points="168 152 232 152 232 88" stroke-width="5.8452"/><path d="m424.98 95.568a59.972 52.925 0 0 1 102.38-37.422l22.565 19.781" stroke-width="3.2445"/></g><g transform="matrix(-.84636 0 0 -.84636 855.03 526.01)" fill="none" stroke="#373c44" stroke-linecap="round" stroke-linejoin="round"><polyline transform="matrix(.55507 0 0 .55507 421.33 -6.3839)" points="168 152 232 152 232 88" stroke-width="5.8452"/><path d="m424.98 95.568a59.972 52.925 0 0 1 102.38-37.422l22.565 19.781" stroke-width="3.2445"/></g><text x="606.03516" y="40.355644" fill="#373c44" fill-rule="evenodd" font-family="Lato" font-size="55.586px" font-weight="500" letter-spacing=".14682px" stroke-linecap="round" stroke-linejoin="round" stroke-miterlimit="6" stroke-width="2.6101" word-spacing="0px" style="font-variant-caps:normal;font-variant-east-asian:normal;font-variant-ligatures:normal;font-variant-numeric:normal;line-height:1.8;paint-order:markers stroke fill" xml:space="preserve"><tspan x="606.03516" y="40.355644" fill="#373c44" font-family="Lato" font-size="55.586px" font-weight="500" stroke-width="2.6101" style="font-variant-caps:normal;font-variant-east-asian:normal;font-variant-ligatures:normal;font-variant-numeric:normal">MDTO</tspan></text></svg>
