<svg id="validatie" version="1.1" viewBox="0 0 527.41 242.89" xmlns="http://www.w3.org/2000/svg" xmlns:xlink="http://www.w3.org/1999/xlink"><defs><clipPath id="clip_1"><path transform="matrix(1.5369 0 0 -1.5369 45.456 76.602)" d="M0 0H33.2V41.2H0Z"/></clipPath><path id="font_2_10" d="m0.012985 0h0.12601l0.076004 0.15205c0.015991 0.034027 0.031998 0.067032 0.048996 0.10706h0.0039978c0.018997-0.040024 0.035004-0.073029 0.052002-0.10706l0.078003-0.15205h0.132l-0.18501 0.33115 0.17401 0.32315h-0.127l-0.067001-0.14308c-0.014008-0.030014-0.028-0.06102-0.044006-0.10104h-0.0039978c-0.020004 0.040024-0.033997 0.07103-0.048996 0.10104l-0.070999 0.14308h-0.132l0.173-0.31715-0.18501-0.33714z"/><path id="font_2_8" d="m0.27399-0.011719c0.14801 0 0.23601 0.088989 0.23601 0.19495 0 0.09494-0.054001 0.14391-0.132 0.1769l-0.087997 0.03598c-0.054001 0.02298-0.103 0.04097-0.103 0.090942 0 0.046982 0.039001 0.074966 0.099991 0.074966 0.050003 0 0.098007-0.019989 0.13901-0.054977l0.063995 0.077972c-0.050995 0.048996-0.12399 0.081009-0.203 0.081009-0.12799 0-0.22-0.081009-0.22-0.18596 0-0.094955 0.067001-0.14592 0.132-0.1729l0.089005-0.038986c0.059006-0.024979 0.101-0.041977 0.101-0.093948 0-0.049973-0.039993-0.082947-0.112-0.082947-0.063004 0-0.12801 0.025986-0.175 0.070953l-0.063995-0.077957c0.061996-0.063004 0.146-0.095993 0.23599-0.095993z"/><path id="font_2_2" d="m0.082993 0h0.181c0.194 0 0.314 0.112 0.314 0.33014 0 0.21715-0.12 0.32416-0.31999 0.32416h-0.175v-0.6543m0.119 0.095993v0.46129h0.048004c0.12999 0 0.20499-0.067032 0.20499-0.22714 0-0.1611-0.074997-0.23415-0.20499-0.23415h-0.048004z"/><path id="font_2_6" d="m0.338-0.011719c0.17099 0 0.289 0.12997 0.289 0.34186 0 0.21088-0.11801 0.33588-0.289 0.33588-0.17101 0-0.289-0.125-0.289-0.33588 0-0.21188 0.118-0.34186 0.289-0.34186m0 0.103c-0.10201 0-0.16701 0.092941-0.16701 0.23886 0 0.14491 0.065002 0.23187 0.16701 0.23187 0.101 0 0.16699-0.08696 0.16699-0.23187 0-0.14592-0.065994-0.23886-0.16699-0.23886z"/><path id="font_2_7" d="m0.082993 0h0.119v0.25391h0.097l0.14-0.25391h0.133l-0.155 0.2719c0.078003 0.027008 0.129 0.088028 0.129 0.18721 0 0.14719-0.105 0.19519-0.242 0.19519h-0.22099v-0.6543m0.119 0.34889v0.2104h0.089996c0.089004 0 0.13701-0.026047 0.13701-0.10019 0-0.073135-0.048004-0.11021-0.13701-0.11021h-0.089996z"/><path id="font_2_3" d="m0.082993 0h0.119v0.6543h-0.119v-0.6543z"/><path id="font_2_27" d="m0.041992 0.20898h0.239v0.085999h-0.239v-0.085999z"/><path id="font_2_1" d="m0.21799 0.34593c0.021011 0.069107 0.040009 0.14323 0.057007 0.21536h0.0039978c0.018997-0.071121 0.037994-0.14626 0.059006-0.21536l0.022003-0.07814h-0.164l0.021988 0.07814m-0.22-0.34593h0.121l0.050003 0.1748h0.217l0.050003-0.1748h0.12601l-0.21201 0.6543h-0.14l-0.21201-0.6543z"/><path id="font_2_24" d="m0.20999-0.011719c0.125 0 0.19301 0.067993 0.19301 0.15295 0 0.08493-0.067001 0.1239-0.14301 0.14989-0.061996 0.020981-0.097 0.034973-0.097 0.070953 0 0.028976 0.022003 0.052963 0.070999 0.052963 0.039001 0 0.074997-0.011993 0.11-0.037979l0.050995 0.066971c-0.039993 0.035004-0.097 0.059998-0.164 0.059998-0.11 0-0.17999-0.061996-0.17999-0.14795 0-0.077942 0.065994-0.11893 0.13699-0.1449 0.055008-0.019989 0.10301-0.03598 0.10301-0.07695 0-0.032974-0.025009-0.056961-0.077011-0.056961-0.050003 0-0.095001 0.014999-0.138 0.049973l-0.052002-0.066971c0.048004-0.046005 0.11801-0.071991 0.186-0.071991z"/><path id="font_2_12" d="m0.278-0.011719c0.056 0 0.114 0.018997 0.161 0.059998l-0.048004 0.074982c-0.028-0.022995-0.061996-0.038986-0.101-0.038986-0.074997 0-0.12801 0.063995-0.12801 0.16096 0 0.097992 0.054001 0.16199 0.132 0.16199 0.031006 0 0.056-0.01001 0.081009-0.031998l0.056992 0.07399c-0.035995 0.031998-0.082001 0.055008-0.144 0.055008-0.132 0-0.248-0.095001-0.248-0.25899 0-0.16296 0.104-0.25696 0.23801-0.25696z"/><path id="font_2_16" d="m0.071991 0h0.119v0.34192c0.039001 0.039978 0.067001 0.059982 0.11 0.059982 0.052002 0 0.074997-0.028992 0.074997-0.10898v-0.29292h0.118v0.30792c0 0.12398-0.04599 0.19598-0.15199 0.19598-0.067001 0-0.116-0.036011-0.15601-0.074005l0.0050049 0.094009v0.18214h-0.119v-0.70605z"/><path id="font_2_14" d="m0.282-0.011719c0.063995 0 0.12399 0.01799 0.17 0.051987l-0.040009 0.073929c-0.033997-0.021957-0.071991-0.03392-0.114-0.03392-0.078003 0-0.12999 0.047882-0.142 0.12968h0.31c0.0039978 0.01799 0.006012 0.035995 0.006012 0.059998 0 0.13814-0.072006 0.23415-0.205 0.23415-0.11501 0-0.22701-0.098007-0.22701-0.25815 0-0.16368 0.106-0.25768 0.242-0.25768m-0.12601 0.30968c0.0099945 0.074097 0.057999 0.11415 0.114 0.11415 0.064011 0 0.098007-0.042068 0.098007-0.11415h-0.21201z"/><path id="font_2_19" d="m0.071991 0h0.119v0.34215c0.037003 0.041016 0.070999 0.060028 0.101 0.060028 0.050003 0 0.074005-0.029007 0.074005-0.10905v-0.29312h0.118v0.34215c0.037003 0.041016 0.070999 0.060028 0.101 0.060028 0.050995 0 0.074005-0.029007 0.074005-0.10905v-0.29312h0.119v0.30814c0 0.12421-0.048004 0.1962-0.15201 0.1962-0.063004 0-0.11099-0.037994-0.158-0.087997-0.022995 0.054993-0.063995 0.087997-0.136 0.087997-0.061996 0-0.10899-0.035996-0.15099-0.078995h-0.003006l-0.0090027 0.066849h-0.097v-0.49219z"/><path id="font_2_11" d="m0.19199-0.011719c0.058014 0 0.106 0.028 0.15001 0.065994h0.0039978l0.0099945-0.054276h0.096008v0.29114c0 0.13705-0.061996 0.21306-0.18401 0.21306-0.078003 0-0.14799-0.029999-0.202-0.063995l0.041992-0.078033c0.044006 0.026016 0.090012 0.046036 0.138 0.046036 0.06601 0 0.085999-0.042023 0.088013-0.092056-0.20201-0.022003-0.28801-0.076035-0.28801-0.18408 0-0.085785 0.059998-0.14378 0.146-0.14378m0.036011 0.093994c-0.040009 0-0.068008 0.015991-0.068008 0.057983 0 0.049988 0.040009 0.079987 0.17401 0.095978v-0.10397c-0.036011-0.033997-0.06601-0.049988-0.106-0.049988z"/><clipPath id="clip_3"><path transform="matrix(1.5369 0 0 -1.5369 45.456 203.65)" d="M0 0H33.2V41.2H0Z"/></clipPath><path id="font_2_5" d="m0.081985 0h0.108v0.29813c0 0.062042-0.0099945 0.15211-0.01799 0.21216h0.0039978l0.052002-0.15813 0.10399-0.29211h0.078003l0.106 0.29211 0.052002 0.15813h0.0039978c-0.0079956-0.060043-0.01799-0.15012-0.01799-0.21216v-0.29813h0.10999v0.6543h-0.14l-0.112-0.32014c-0.013992-0.042038-0.023987-0.080063-0.035995-0.1281h-0.0039978c-0.011993 0.048035-0.024002 0.08606-0.037994 0.1281l-0.112 0.32014h-0.14001v-0.6543z"/><path id="font_2_4" d="m0.082993 0h0.38901v0.099991h-0.27v0.55431h-0.119v-0.6543z"/><path id="font_2_13" d="m0.245-0.011719c0.052002 0 0.10201 0.028992 0.138 0.064987h0.0039978l0.0090027-0.053268h0.095993v0.70605h-0.118v-0.17683l0.0050049-0.07898c-0.03801 0.033005-0.072998 0.054001-0.12801 0.054001-0.108 0-0.20799-0.097992-0.20799-0.25909 0-0.16188 0.078995-0.25687 0.202-0.25687m0.028992 0.097992c-0.069992 0-0.11 0.054993-0.11 0.16098 0 0.101 0.05101 0.159 0.112 0.159 0.033005 0 0.065002-0.01001 0.098007-0.040009v-0.22597c-0.031006-0.037994-0.063004-0.054001-0.10001-0.054001z"/><path id="font_2_21" d="m0.27499-0.011719c0.12199 0 0.23399 0.093994 0.23399 0.25696 0 0.16399-0.112 0.25899-0.23399 0.25899-0.123 0-0.235-0.095001-0.235-0.25899 0-0.16296 0.112-0.25696 0.235-0.25696m0 0.095993c-0.070999 0-0.11301 0.063995-0.11301 0.16096 0 0.097992 0.042007 0.16199 0.11301 0.16199s0.11301-0.063995 0.11301-0.16199c0-0.09697-0.042007-0.16096-0.11301-0.16096z"/><path id="font_2_26" d="m0.21799-0.011719c0.068008 0 0.11501 0.03299 0.158 0.084h0.003006l0.0090027-0.072281h0.097v0.49219h-0.11801v-0.33592c-0.035995-0.046997-0.063995-0.066986-0.10699-0.066986-0.052002 0-0.074997 0.029984-0.074997 0.10997v0.29294h-0.11801v-0.30794c0-0.12398 0.046005-0.19597 0.151-0.19597z"/><path id="font_2_20" d="m0.071991 0h0.119v0.34215c0.039001 0.040024 0.067001 0.060028 0.11 0.060028 0.052002 0 0.074997-0.029007 0.074997-0.10905v-0.29312h0.118v0.30814c0 0.12421-0.04599 0.1962-0.15199 0.1962-0.067001 0-0.117-0.035996-0.161-0.078003h-0.003006l-0.0090027 0.065857h-0.097v-0.49219z"/><path id="font_2_25" d="m0.24699-0.011719c0.039993 0 0.076004 0.0089874 0.10201 0.020996l-0.021011 0.082993c-0.016998-0.0070038-0.033997-0.0099945-0.050995-0.0099945-0.046005 0-0.069 0.027985-0.069 0.084976v0.23093h0.125v0.094009h-0.125v0.153h-0.098007l-0.013992-0.153-0.076004-0.006012v-0.087997h0.070007v-0.23093c0-0.10698 0.041992-0.17897 0.157-0.17897z"/><clipPath id="clip_4"><path transform="matrix(1.6514 0 0 -1.6514 267.24 140.83)" d="M0 0H41.2V39.2H0Z"/></clipPath><clipPath id="clip_5"><path transform="matrix(1.6514 0 0 1.6514 267.24 76.099)" d="M0 0H42V40H0Z"/></clipPath><path id="font_2_9" d="m0.19499 0h0.14101l0.20599 0.6543h-0.12199l-0.093002-0.32716c-0.020996-0.074066-0.035004-0.13809-0.057007-0.21214h-0.0039978c-0.022003 0.074051-0.037003 0.13808-0.056992 0.21211l-0.087006 0.32719h-0.12601l0.19901-0.6543z"/><path id="font_2_18" d="m0.18599-0.011719c0.028 0 0.048004 0.0039978 0.061996 0.010986l-0.013992 0.087006c-0.0079956-0.0019989-0.011993-0.0019989-0.018005-0.0019989-0.011993 0-0.024994 0.0099945-0.024994 0.038986v0.58279h-0.119v-0.5768c0-0.08699 0.031006-0.14098 0.114-0.14098z"/><path id="font_2_17" d="m0.071991 0h0.119v0.49219h-0.119v-0.49219m0.059998 0.57596c0.042007 0 0.070999 0.026993 0.070999 0.067001 0 0.039993-0.028992 0.067001-0.070999 0.067001-0.041992 0-0.070999-0.027008-0.070999-0.067001 0-0.040009 0.029007-0.067001 0.070999-0.067001z"/><path id="font_2_22" d="m0.071991-0.19273h0.119v0.153l-0.0039978 0.082001c0.039001-0.033997 0.082001-0.053986 0.12599-0.053986 0.10901 0 0.209 0.097 0.209 0.26495 0 0.15201-0.070999 0.25101-0.19299 0.25101-0.054001 0-0.106-0.029007-0.148-0.063995h-0.003006l-0.0090027 0.051941h-0.097v-0.68492m0.215 0.27901c-0.028 0-0.061996 0.0099945-0.095993 0.038986v0.22693c0.037003 0.037003 0.069992 0.053986 0.105 0.053986 0.072998 0 0.105-0.056976 0.105-0.15395 0-0.10997-0.049988-0.16595-0.114-0.16595z"/><path id="font_2_23" d="m0.071991 0h0.119v0.29808c0.028992 0.075089 0.076004 0.1011 0.11501 0.1011 0.019989 0 0.031998-0.0020142 0.046997-0.006012l0.024002 0.10097c-0.014999 0.0060425-0.031006 0.01004-0.056 0.01004-0.052002 0-0.104-0.036011-0.14-0.10004h-0.003006l-0.0090027 0.088043h-0.097v-0.49219z"/><path id="font_2_15" d="m0.24399-0.2168c0.16101 0 0.263 0.076996 0.263 0.17397 0 0.084991-0.062988 0.12199-0.17999 0.12199h-0.087006c-0.05899 0-0.078995 0.016006-0.078995 0.043045 0 0.022018 0.0090027 0.034042 0.022995 0.046036 0.022003-0.0079956 0.044998-0.011993 0.06601-0.011993 0.10399 0 0.18799 0.057999 0.18799 0.16696 0 0.03299-0.011993 0.062973-0.026993 0.080963h0.087997v0.088013h-0.17599c-0.020004 0.0067139-0.046005 0.011719-0.072998 0.011719-0.10301 0-0.19501-0.064011-0.19501-0.17683 0-0.057892 0.031006-0.10483 0.065002-0.12984v-0.0039978c-0.029007-0.019989-0.055008-0.053009-0.055008-0.091049 0-0.040039 0.020004-0.066025 0.044998-0.082031v-0.0039978c-0.044998-0.028-0.070999-0.062988-0.070999-0.10498 0-0.085983 0.088013-0.12798 0.205-0.12798m0.006012 0.44704c-0.046005 0-0.084015 0.034988-0.084015 0.09697 0 0.060974 0.037003 0.094971 0.084015 0.094971 0.046997 0 0.082993-0.033997 0.082993-0.094971 0-0.061981-0.037003-0.09697-0.082993-0.09697m0.011993-0.37004c-0.076004 0-0.12401 0.024994-0.12401 0.06897 0 0.022995 0.011002 0.043991 0.037003 0.063995 0.019012-0.0050659 0.040009-0.0070648 0.067001-0.0070648h0.06601c0.054993 0 0.084991-0.011002 0.084991-0.047974 0-0.041946-0.052994-0.077927-0.131-0.077927z"/><clipPath id="clip_6"><path transform="matrix(1.3334 0 0 -1.3334 429.93 160.4)" d="m0 0h21.26v21.26h-21.26z"/></clipPath><clipPath id="clip_7"><path transform="matrix(1.3334 0 0 1.3334 429.93 132.05)" d="M0 0H22V22H0Z"/></clipPath><clipPath id="clip_8"><path transform="matrix(1.3334 0 0 -1.3334 467.24 160.4)" d="m0 0h21.26v21.26h-21.26z"/></clipPath><clipPath id="clip_9"><path transform="matrix(1.3334 0 0 1.3334 467.24 132.05)" d="M0 0H22V22H0Z"/></clipPath></defs><g clip-path="url(#clip_1)" fill="none" stroke="currentColor" stroke-linecap="round" stroke-linejoin="round" stroke-width="1.2"><path transform="matrix(1.5369 0 0 1.5369 45.456 13.283)" d="m0.602 39.398v-37.597c0-0.664 0.535-1.199 1.199-1.199h23.301c0.32 0 0.625 0.125 0.851 0.351l6.297 6.297c0.223 0.223 0.352 0.527 0.352 0.848v31.3c0 0.664-0.54 1.204-1.204 1.204h-29.597c-0.664 0-1.199-0.54-1.199-1.204z"/><path transform="matrix(1.5369 0 0 1.5369 45.456 13.283)" d="m24.602 0.602v6.796c0 0.664 0.535 1.204 1.199 1.204h6.801"/></g><path transform="matrix(1,0,0,-1,70.968,44.942)" d="m-1.8354-2.1208h-35.392c-2.7512 0-4.9814-2.2302-4.9814-4.9814v-7.9264c0-2.7512 2.2302-4.9814 4.9814-4.9814h35.392c2.7512 0 4.9814 2.2302 4.9814 4.9814v7.9264c0 2.7512-2.2302 4.9814-4.9814 4.9814z" fill="#e7e0e8"/><use transform="matrix(11.955 0 0 -11.955 41.281 59.827)" fill="#4e1b58" data-text="X" xlink:href="#font_2_10"/><use transform="matrix(11.955 0 0 -11.955 47.581 59.827)" fill="#4e1b58" data-text="S" xlink:href="#font_2_8"/><use transform="matrix(11.955 0 0 -11.955 54.109 59.827)" fill="#4e1b58" data-text="D" xlink:href="#font_2_2"/><path transform="matrix(1,0,0,-1,70.968,44.942)" d="m35.615-38.214h-71.23c-3.8516 0-6.9739-3.1223-6.9739-6.9739v-8.7692c0-3.8516 3.1223-6.9739 6.9739-6.9739h71.23c3.8516 0 6.9739 3.1223 6.9739 6.9739v8.7692c0 3.8516-3.1223 6.9739-6.9739 6.9739z" fill="#eceeee"/><use transform="matrix(11.955 0 0 -11.955 35.353 98.755)" fill="#2b2b2b" data-text="O" xlink:href="#font_2_6"/><use transform="matrix(11.955 0 0 -11.955 43.423 98.755)" fill="#2b2b2b" data-text="R" xlink:href="#font_2_7"/><use transform="matrix(11.955 0 0 -11.955 50.524 98.755)" fill="#2b2b2b" data-text="I" xlink:href="#font_2_3"/><use transform="matrix(11.955 0 0 -11.955 53.919 98.755)" fill="#2b2b2b" data-text="-" xlink:href="#font_2_27"/><use transform="matrix(11.955 0 0 -11.955 57.781 98.755)" fill="#2b2b2b" data-text="A" xlink:href="#font_2_1"/><use transform="matrix(11.955 0 0 -11.955 66.867 98.755)" fill="#2b2b2b" data-text="s" xlink:href="#font_2_24"/><use transform="matrix(11.955 0 0 -11.955 72.032 98.755)" fill="#2b2b2b" data-text="c" xlink:href="#font_2_12"/><use transform="matrix(11.955 0 0 -11.955 77.555 98.755)" fill="#2b2b2b" data-text="h" xlink:href="#font_2_16"/><use transform="matrix(11.955 0 0 -11.955 84.238 98.755)" fill="#2b2b2b" data-text="e" xlink:href="#font_2_14"/><use transform="matrix(11.955 0 0 -11.955 90.311 98.755)" fill="#2b2b2b" data-text="m" xlink:href="#font_2_19"/><use transform="matrix(11.955 0 0 -11.955 100.41 98.755)" fill="#2b2b2b" data-text="a" xlink:href="#font_2_11"/><g clip-path="url(#clip_3)" fill="none" stroke="currentColor" stroke-linecap="round" stroke-linejoin="round" stroke-width="1.2"><path transform="matrix(1.5369 0 0 1.5369 45.456 140.33)" d="m0.602 39.398v-37.597c0-0.664 0.535-1.199 1.199-1.199h23.301c0.32 0 0.625 0.125 0.851 0.351l6.297 6.297c0.223 0.223 0.352 0.527 0.352 0.848v31.3c0 0.664-0.54 1.204-1.204 1.204h-29.597c-0.664 0-1.199-0.54-1.199-1.204z"/><path transform="matrix(1.5369 0 0 1.5369 45.456 140.33)" d="m24.602 0.602v6.796c0 0.664 0.535 1.204 1.199 1.204h6.801"/></g><path transform="matrix(1,0,0,-1,70.968,44.942)" d="m-1.8354-129.32h-35.392c-2.7512 0-4.9814-2.2302-4.9814-4.9814v-7.7829c0-2.7512 2.2302-4.9814 4.9814-4.9814h35.392c2.7512 0 4.9814 2.2302 4.9814 4.9814v7.7829c0 2.7512-2.2302 4.9814-4.9814 4.9814z" fill="#deebe6"/><use transform="matrix(11.955 0 0 -11.955 40.725 187.02)" fill="#0f704b" data-text="X" xlink:href="#font_2_10"/><use transform="matrix(11.955 0 0 -11.955 47.217 187.02)" fill="#0f704b" data-text="M" xlink:href="#font_2_5"/><use transform="matrix(11.955 0 0 -11.955 56.135 187.02)" fill="#0f704b" data-text="L" xlink:href="#font_2_4"/><path transform="matrix(1,0,0,-1,70.968,44.942)" d="m54.032-165.27h-108.06c-3.8516 0-6.9739-3.1223-6.9739-6.9739v-8.7692c0-3.8516 3.1223-6.9739 6.9739-6.9739h108.06c3.8516 0 6.9739 3.1223 6.9739 6.9739v8.7692c0 3.8516-3.1223 6.9739-6.9739 6.9739z" fill="#eceeee"/><use transform="matrix(11.955 0 0 -11.955 16.937 225.81)" fill="#2b2b2b" data-text="O" xlink:href="#font_2_6"/><use transform="matrix(11.955 0 0 -11.955 25.007 225.81)" fill="#2b2b2b" data-text="R" xlink:href="#font_2_7"/><use transform="matrix(11.955 0 0 -11.955 32.108 225.81)" fill="#2b2b2b" data-text="I" xlink:href="#font_2_3"/><use transform="matrix(11.955 0 0 -11.955 35.503 225.81)" fill="#2b2b2b" data-text="-" xlink:href="#font_2_27"/><use transform="matrix(11.955 0 0 -11.955 39.365 225.81)" fill="#2b2b2b" data-text="A" xlink:href="#font_2_1"/><use transform="matrix(11.955 0 0 -11.955 48.451 225.81)" fill="#2b2b2b" data-text="X" xlink:href="#font_2_10"/><use transform="matrix(11.955 0 0 -11.955 54.943 225.81)" fill="#2b2b2b" data-text="M" xlink:href="#font_2_5"/><use transform="matrix(11.955 0 0 -11.955 63.861 225.81)" fill="#2b2b2b" data-text="L" xlink:href="#font_2_4"/><use transform="matrix(11.955 0 0 -11.955 72.266 225.81)" fill="#2b2b2b" data-text="d" xlink:href="#font_2_13"/><use transform="matrix(11.955 0 0 -11.955 79.02 225.81)" fill="#2b2b2b" data-text="o" xlink:href="#font_2_21"/><use transform="matrix(11.955 0 0 -11.955 85.584 225.81)" fill="#2b2b2b" data-text="c" xlink:href="#font_2_12"/><use transform="matrix(11.955 0 0 -11.955 91.107 225.81)" fill="#2b2b2b" data-text="u" xlink:href="#font_2_26"/><use transform="matrix(11.955 0 0 -11.955 97.778 225.81)" fill="#2b2b2b" data-text="m" xlink:href="#font_2_19"/><use transform="matrix(11.955 0 0 -11.955 107.88 225.81)" fill="#2b2b2b" data-text="e" xlink:href="#font_2_14"/><use transform="matrix(11.955 0 0 -11.955 113.95 225.81)" fill="#2b2b2b" data-text="n" xlink:href="#font_2_20"/><use transform="matrix(11.955 0 0 -11.955 120.66 225.81)" fill="#2b2b2b" data-text="t" xlink:href="#font_2_25"/><g clip-path="url(#clip_4)"><g opacity=".78632"><g clip-path="url(#clip_5)"><path transform="matrix(1.6514 0 0 1.6514 267.24 76.099)" d="m25.891 0.492c-7.329 8e-3 -14.653 0-21.977 0.024-1.785 0.332-3.312 1.918-3.414 3.757-0.039 1.266-0.051 2.539-0.016 3.801 0.039 0.492 0.571 0.727 1.016 0.66h38.484c0.504-7e-3 0.825-0.511 0.75-0.984-0.023-1.289 0.051-2.582-0.074-3.863-0.301-1.742-1.848-3.246-3.633-3.36-3.398-0.07-6.797-0.023-10.195-0.039-0.316 0-0.629 4e-3 -0.941 4e-3zm-7.371 3.606c0.3-0.039 0.652 0.175 0.585 0.515 0.051 0.434-0.562 0.684-0.851 0.375-0.316-0.3-0.133-0.773 0.266-0.89zm-5.868 0c0.45-8e-3 0.629 0.636 0.286 0.898-0.305 0.309-0.899 0.012-0.84-0.418 0.019-0.277 0.277-0.496 0.554-0.48zm-6.007 4e-3c0.3 0 0.543 0.3 0.453 0.597-0.016 0.434-0.715 0.582-0.918 0.199-0.227-0.343 0.047-0.828 0.465-0.796z" fill="#e8eaeb"/></g></g><path transform="matrix(1.6514 0 0 1.6514 267.24 76.099)" d="m22.602 36.602h-18c-2.211 0-4-1.793-4-4v-28c0-2.211 1.789-4 4-4h32c2.207 0 4 1.789 4 4v18" fill="none" stroke="currentColor" stroke-linecap="round" stroke-width="1.2"/><path transform="matrix(1.6514 0 0 1.6514 267.24 76.099)" d="m0.602 8.602h40" fill="none" stroke="currentColor" stroke-linecap="round" stroke-linejoin="round" stroke-width="1.2"/><path transform="matrix(1.6514 0 0 1.6514 267.24 76.099)" d="m6.602 4.621 0.019-0.023" fill="#00ca4e"/><path transform="matrix(1.6514 0 0 1.6514 267.24 76.099)" d="m6.602 4.621 0.019-0.023" fill="none" stroke="#ff605c" stroke-linecap="round" stroke-linejoin="round" stroke-width="2.475"/><path transform="matrix(1.6514 0 0 1.6514 267.24 76.099)" d="m12.602 4.621 0.019-0.023" fill="none" stroke="#ffbd44" stroke-linecap="round" stroke-linejoin="round" stroke-width="2.475"/><path transform="matrix(1.6514 0 0 1.6514 267.24 76.099)" d="m18.602 4.621 0.019-0.023" fill="none" stroke="#00ca4e" stroke-linecap="round" stroke-linejoin="round" stroke-width="2.475"/><path transform="matrix(1.6514 0 0 1.6514 267.24 76.099)" d="m36.848 34.836c1.082-1.086 1.754-2.582 1.754-4.234 0-3.317-2.688-6-6-6-3.317 0-6 2.683-6 6 0 3.312 2.683 6 6 6 1.66 0 3.16-0.676 4.246-1.766zm0 0 3.754 3.766" fill="none" stroke="currentColor" stroke-linecap="round" stroke-linejoin="round" stroke-width="1.2"/><path transform="matrix(1.6514 0 0 1.6514 267.24 76.099)" d="m17.977 12.5-4.094 14.625" fill="none" stroke="currentColor" stroke-linecap="round" stroke-linejoin="round" stroke-width="1.1478"/><path transform="matrix(1.6514 0 0 1.6514 267.24 76.099)" d="m9.789 15.426-4.094 4.094 4.094 4.093" fill="none" stroke="currentColor" stroke-linecap="round" stroke-linejoin="round" stroke-width="1.1478"/><path transform="matrix(1.6514 0 0 1.6514 267.24 76.099)" d="m22.656 15.426 4.094 4.094-4.094 4.093" fill="none" stroke="currentColor" stroke-linecap="round" stroke-linejoin="round" stroke-width="1.1478"/></g><path transform="matrix(1,0,0,-1,70.968,44.942)" d="m284.28-102.64h-107.98c-3.8516 0-6.974-3.1223-6.974-6.9739v-11.22c0-3.8516 3.1223-6.9739 6.974-6.9739h107.98c3.8516 0 6.9739 3.1223 6.9739 6.9739v11.22c0 3.8517-3.1223 6.9739-6.9739 6.9739z" fill="#eceeee"/><use transform="matrix(11.955 0 0 -11.955 247.27 163.18)" fill="#2b2b2b" data-text="V" xlink:href="#font_2_9"/><use transform="matrix(11.955 0 0 -11.955 253.36 163.18)" fill="#2b2b2b" data-text="a" xlink:href="#font_2_11"/><use transform="matrix(11.955 0 0 -11.955 259.52 163.18)" fill="#2b2b2b" data-text="l" xlink:href="#font_2_18"/><use transform="matrix(11.955 0 0 -11.955 262.78 163.18)" fill="#2b2b2b" data-text="i" xlink:href="#font_2_17"/><use transform="matrix(11.955 0 0 -11.955 265.92 163.18)" fill="#2b2b2b" data-text="d" xlink:href="#font_2_13"/><use transform="matrix(11.955 0 0 -11.955 272.67 163.18)" fill="#2b2b2b" data-text="a" xlink:href="#font_2_11"/><use transform="matrix(11.955 0 0 -11.955 278.65 163.18)" fill="#2b2b2b" data-text="t" xlink:href="#font_2_25"/><use transform="matrix(11.955 0 0 -11.955 282.99 163.18)" fill="#2b2b2b" data-text="i" xlink:href="#font_2_17"/><use transform="matrix(11.955 0 0 -11.955 286.14 163.18)" fill="#2b2b2b" data-text="e" xlink:href="#font_2_14"/><use transform="matrix(11.955 0 0 -11.955 294.6 163.18)" fill="#2b2b2b" data-text="p" xlink:href="#font_2_22"/><use transform="matrix(11.955 0 0 -11.955 301.36 163.18)" fill="#2b2b2b" data-text="r" xlink:href="#font_2_23"/><use transform="matrix(11.955 0 0 -11.955 305.73 163.18)" fill="#2b2b2b" data-text="o" xlink:href="#font_2_21"/><use transform="matrix(11.955 0 0 -11.955 312.29 163.18)" fill="#2b2b2b" data-text="g" xlink:href="#font_2_15"/><use transform="matrix(11.955 0 0 -11.955 318.52 163.18)" fill="#2b2b2b" data-text="r" xlink:href="#font_2_23"/><use transform="matrix(11.955 0 0 -11.955 322.71 163.18)" fill="#2b2b2b" data-text="a" xlink:href="#font_2_11"/><use transform="matrix(11.955 0 0 -11.955 328.88 163.18)" fill="#2b2b2b" data-text="m" xlink:href="#font_2_19"/><use transform="matrix(11.955 0 0 -11.955 338.98 163.18)" fill="#2b2b2b" data-text="m" xlink:href="#font_2_19"/><use transform="matrix(11.955 0 0 -11.955 349.08 163.18)" fill="#2b2b2b" data-text="a" xlink:href="#font_2_11"/><path transform="matrix(1,0,0,-1,70.968,44.942)" d="m439.51-52.168h-93.443c-3.8516 0-6.9739-3.1223-6.9739-6.9739v-8.7692c0-3.8516 3.1223-6.9739 6.9739-6.9739h93.443c3.8516 0 6.9739 3.1223 6.9739 6.9739v8.7692c0 3.8516-3.1223 6.9739-6.9739 6.9739z" fill="#eceeee"/><use transform="matrix(11.955 0 0 -11.955 417.03 112.71)" fill="#2b2b2b" data-text="V" xlink:href="#font_2_9"/><use transform="matrix(11.955 0 0 -11.955 423.12 112.71)" fill="#2b2b2b" data-text="a" xlink:href="#font_2_11"/><use transform="matrix(11.955 0 0 -11.955 429.29 112.71)" fill="#2b2b2b" data-text="l" xlink:href="#font_2_18"/><use transform="matrix(11.955 0 0 -11.955 432.54 112.71)" fill="#2b2b2b" data-text="i" xlink:href="#font_2_17"/><use transform="matrix(11.955 0 0 -11.955 435.68 112.71)" fill="#2b2b2b" data-text="d" xlink:href="#font_2_13"/><use transform="matrix(11.955 0 0 -11.955 442.44 112.71)" fill="#2b2b2b" data-text="a" xlink:href="#font_2_11"/><use transform="matrix(11.955 0 0 -11.955 448.42 112.71)" fill="#2b2b2b" data-text="t" xlink:href="#font_2_25"/><use transform="matrix(11.955 0 0 -11.955 452.76 112.71)" fill="#2b2b2b" data-text="i" xlink:href="#font_2_17"/><use transform="matrix(11.955 0 0 -11.955 455.9 112.71)" fill="#2b2b2b" data-text="e" xlink:href="#font_2_14"/><use transform="matrix(11.955 0 0 -11.955 464.36 112.71)" fill="#2b2b2b" data-text="r" xlink:href="#font_2_23"/><use transform="matrix(11.955 0 0 -11.955 468.74 112.71)" fill="#2b2b2b" data-text="e" xlink:href="#font_2_14"/><use transform="matrix(11.955 0 0 -11.955 474.81 112.71)" fill="#2b2b2b" data-text="s" xlink:href="#font_2_24"/><use transform="matrix(11.955 0 0 -11.955 479.98 112.71)" fill="#2b2b2b" data-text="u" xlink:href="#font_2_26"/><use transform="matrix(11.955 0 0 -11.955 486.65 112.71)" fill="#2b2b2b" data-text="l" xlink:href="#font_2_18"/><use transform="matrix(11.955 0 0 -11.955 489.9 112.71)" fill="#2b2b2b" data-text="t" xlink:href="#font_2_25"/><use transform="matrix(11.955 0 0 -11.955 493.99 112.71)" fill="#2b2b2b" data-text="a" xlink:href="#font_2_11"/><use transform="matrix(11.955 0 0 -11.955 500.16 112.71)" fill="#2b2b2b" data-text="a" xlink:href="#font_2_11"/><use transform="matrix(11.955 0 0 -11.955 506.14 112.71)" fill="#2b2b2b" data-text="t" xlink:href="#font_2_25"/><g clip-path="url(#clip_6)"><g clip-path="url(#clip_7)"><path transform="matrix(1.3334 0 0 1.3334 429.93 132.05)" d="m10.629 0c-5.871 0-10.629 4.758-10.629 10.629s4.758 10.633 10.629 10.633 10.633-4.762 10.633-10.633-4.762-10.629-10.633-10.629zm-4.418 10.598c-0.289-0.286-0.762-0.286-1.047 0-0.293 0.289-0.293 0.761 0 1.05l2.965 2.969c0.289 0.289 0.758 0.289 1.047 0l6.922-6.922c0.293-0.289 0.293-0.761 0-1.05-0.289-0.29-0.758-0.29-1.047 0l-6.399 6.398z" fill="#0f704b" fill-rule="evenodd"/></g></g><g clip-path="url(#clip_8)"><g clip-path="url(#clip_9)"><path transform="matrix(1.3334 0 0 1.3334 467.24 132.05)" d="m10.629 0c-5.871 0-10.629 4.758-10.629 10.629s4.758 10.633 10.629 10.633 10.633-4.762 10.633-10.633-4.762-10.629-10.633-10.629zm-2.274 7.309c-0.289-0.289-0.757-0.289-1.046 0s-0.289 0.757 0 1.046l2.273 2.274-2.273 2.273c-0.289 0.289-0.289 0.762 0 1.051s0.757 0.289 1.046 0l2.274-2.273 2.273 2.273c0.289 0.289 0.762 0.289 1.051 0s0.289-0.762 0-1.051l-2.273-2.273 2.273-2.274c0.289-0.289 0.289-0.757 0-1.046s-0.762-0.289-1.051 0l-2.273 2.273z" fill="#671717" fill-rule="evenodd"/></g></g><path transform="matrix(1,0,0,-1,70.968,44.942)" d="m29.032 0h78.487v-63.526h82.384" fill="none" stroke="currentColor" stroke-miterlimit="10" stroke-width="1.9926"/><path transform="matrix(1 0 0 -1 250.53 108.47)" d="M0 8.50403 11.33871 0 0-8.50403" fill="none" stroke="currentColor" stroke-miterlimit="10" stroke-width="1.9926"/><path transform="matrix(1,0,0,-1,70.968,44.942)" d="m29.032-127.05h78.487v63.526h82.384" fill="none" stroke="currentColor" stroke-miterlimit="10" stroke-width="1.9926"/><path transform="matrix(1 0 0 -1 250.53 108.47)" d="M0 8.50403 11.33871 0 0-8.50403" fill="none" stroke="currentColor" stroke-miterlimit="10" stroke-width="1.9926"/><path transform="matrix(1,0,0,-1,70.968,44.942)" d="m270.86-63.526h62.541" fill="none" stroke="currentColor" stroke-miterlimit="10" stroke-width="1.9926"/><path transform="matrix(1 0 0 -1 394.03 108.47)" d="M0 8.50403 11.33871 0 0-8.50403" fill="none" stroke="currentColor" stroke-miterlimit="10" stroke-width="1.9926"/></svg>
