<?xml version="1.0" encoding="UTF-8" standalone="no"?>
<!-- Created with Inkscape (http://www.inkscape.org/) -->

<svg
   width="180"
   height="180"
   viewBox="0 0 180 180"
   version="1.1"
   id="svg1"
   inkscape:version="1.4.2 (ebf0e940d0, 2025-05-08)"
   sodipodi:docname="favicon.svg"
   xml:space="preserve"
   inkscape:export-filename="/tmp/ORI-A-Play.svg"
   inkscape:export-xdpi="96"
   inkscape:export-ydpi="96"
   xmlns:inkscape="http://www.inkscape.org/namespaces/inkscape"
   xmlns:sodipodi="http://sodipodi.sourceforge.net/DTD/sodipodi-0.dtd"
   xmlns="http://www.w3.org/2000/svg"
   xmlns:svg="http://www.w3.org/2000/svg"><sodipodi:namedview
     id="namedview1"
     pagecolor="#ffffff"
     bordercolor="#000000"
     borderopacity="0.25"
     inkscape:showpageshadow="2"
     inkscape:pageopacity="0.0"
     inkscape:pagecheckerboard="0"
     inkscape:deskcolor="#d1d1d1"
     inkscape:document-units="px"
     inkscape:zoom="1.2326528"
     inkscape:cx="-39.346035"
     inkscape:cy="69.362598"
     inkscape:window-width="1920"
     inkscape:window-height="1011"
     inkscape:window-x="0"
     inkscape:window-y="0"
     inkscape:window-maximized="1"
     inkscape:current-layer="layer4"
     inkscape:export-bgcolor="#ffffff00" /><defs
     id="defs1"><rect
       x="123.64267"
       y="91.905517"
       width="81.064287"
       height="62.747151"
       id="rect3" /><rect
       x="60.779221"
       y="46.051948"
       width="64.519481"
       height="74.571429"
       id="rect2" /><rect
       x="54.467532"
       y="44.883117"
       width="77.153862"
       height="83.651114"
       id="rect1" /></defs><g
     inkscape:groupmode="layer"
     id="layer4"
     inkscape:label="background"
     style="display:inline"><path
       style="display:inline;fill:#e1e5e8;fill-opacity:1;stroke:#373c44;stroke-width:11.4577;stroke-dasharray:none;stroke-opacity:1"
       d="M 5.7294344,89.847098 Q 6.0592172,66.762391 16.942001,47.635077 v 0 0 Q 28.154571,28.507758 47.941458,16.635624 68.058124,5.4230575 90.153479,5.4230575 q 22.095351,0 42.212021,11.2125665 19.78689,11.872134 30.99945,30.999453 10.8828,19.127314 11.21257,42.212021 -0.32977,23.084722 -11.21257,42.212012 -11.21256,19.12733 -30.99945,30.99948 -20.11667,11.21256 -42.212021,11.21256 -22.095355,0 -42.212021,-11.21256 Q 28.154571,151.18644 16.942001,132.05911 6.0592172,112.93182 5.7294344,89.847098 Z"
       id="path5" /><path
       style="display:inline;fill:#1d6a54;fill-opacity:1;stroke-width:0.363098"
       d="m 67.062427,47.871027 q 4.720281,-2.178591 9.077463,0.363099 l 52.2862,31.952675 v 0 q 3.99408,2.541692 3.99408,7.261972 0,4.720283 -3.99408,7.625072 L 76.13989,127.0265 v 0 q -4.357182,2.1786 -9.077463,0 -4.357184,-2.54167 -4.357184,-7.62505 v -63.905352 0 q 0,-5.083382 4.357184,-7.625071 z"
       id="path6"
       inkscape:label="Traingle" /></g></svg>
