<?xml version="1.0" encoding="UTF-8" standalone="no"?>
<!-- Created with Inkscape (http://www.inkscape.org/) -->

<svg
   width="35.723598mm"
   height="6.3731718mm"
   viewBox="0 0 35.723598 6.3731718"
   version="1.1"
   id="svg1"
   xmlns="http://www.w3.org/2000/svg"
   xmlns:svg="http://www.w3.org/2000/svg">
  <defs
     id="defs1">
    <clipPath
       id="clip_38">
      <path
         d="M 52.801,47.77 H 57 V 52 h -4.199 z"
         id="path28" />
    </clipPath>
  </defs>
  <g
     id="layer1"
     transform="translate(-63.264699,-33.729777)">
    <path
       id="use72"
       d="m 67.50746,35.139431 c 0.11121,0 0.20949,-0.01355 0.29484,-0.04066 0.0854,-0.02714 0.15687,-0.06554 0.21443,-0.115184 0.0576,-0.04964 0.10097,-0.108883 0.13009,-0.177714 0.0291,-0.06883 0.0437,-0.144934 0.0437,-0.228307 0,-0.169413 -0.0556,-0.297139 -0.16681,-0.383179 -0.11117,-0.08604 -0.27793,-0.129059 -0.5003,-0.129059 h -0.42093 v 1.074099 h 0.40499 m 1.31441,1.467275 h -0.3415 c -0.0702,0 -0.12178,-0.02712 -0.15487,-0.08137 l -0.7386,-1.016598 c -0.0225,-0.03175 -0.0467,-0.05457 -0.0725,-0.06847 -0.0258,-0.01389 -0.0658,-0.02084 -0.12009,-0.02084 h -0.29187 v 1.187283 H 66.71927 V 33.76153 h 0.80411 c 0.17999,0 0.33551,0.01822 0.46655,0.05465 0.13104,0.03639 0.23923,0.08901 0.32459,0.15784 0.0854,0.06883 0.14861,0.151881 0.18965,0.24915 0.041,0.09727 0.0616,0.206131 0.0616,0.326586 0,0.100622 -0.0159,0.194619 -0.0477,0.281991 -0.0317,0.08733 -0.0777,0.165758 -0.13796,0.235276 -0.0602,0.06948 -0.13371,0.128716 -0.22043,0.177714 -0.0867,0.04896 -0.18495,0.086 -0.29478,0.111124 0.049,0.02779 0.0913,0.06816 0.12706,0.121121 z"
       style="fill:#373c44;stroke-width:3.97089" />
    <path
       id="use73"
       d="m 69.59423,36.606706 h -0.38518 v -2.845178 h 0.38518 z"
       style="fill:#373c44;stroke-width:3.97089" />
    <path
       id="use74"
       d="m 70.37074,35.425361 c 0,-0.101915 0.0195,-0.197871 0.0585,-0.287869 0.0391,-0.09004 0.0917,-0.168463 0.15784,-0.235275 0.0662,-0.06685 0.14396,-0.119789 0.23327,-0.15881 0.0894,-0.03906 0.18434,-0.05859 0.28496,-0.05859 0.10192,0 0.19753,0.01953 0.28684,0.05859 0.0893,0.03902 0.16746,0.09196 0.23431,0.15881 0.0669,0.06681 0.11979,0.145237 0.15881,0.235275 0.0391,0.09 0.0586,0.185954 0.0586,0.287869 0,0.101914 -0.0195,0.197547 -0.0586,0.286898 -0.039,0.08935 -0.092,0.167131 -0.15881,0.233337 -0.0668,0.06616 -0.14496,0.118779 -0.23431,0.15784 -0.0893,0.03902 -0.18492,0.05853 -0.28684,0.05853 -0.10062,0 -0.1956,-0.01951 -0.28496,-0.05853 -0.0893,-0.03906 -0.16707,-0.09168 -0.23327,-0.15784 -0.0662,-0.06621 -0.11878,-0.143985 -0.15784,-0.233337 -0.039,-0.08935 -0.0585,-0.184984 -0.0585,-0.286898 z"
       style="fill:#4d1a57;stroke-width:3.97089" />
    <path
       id="use75"
       d="m 74.13288,35.550421 -0.44674,-1.157472 c -0.0132,-0.03442 -0.0271,-0.07445 -0.0417,-0.120092 -0.0146,-0.04569 -0.0284,-0.09434 -0.0417,-0.145964 -0.0278,0.107206 -0.0563,0.196538 -0.0854,0.267994 l -0.44674,1.155534 h 1.06222 m 0.80211,1.056285 h -0.29781 c -0.0344,0 -0.0622,-0.0086 -0.0834,-0.02581 -0.0212,-0.01721 -0.0371,-0.03904 -0.0477,-0.0655 l -0.26605,-0.686982 h -1.2766 l -0.26605,0.686982 c -0.008,0.02379 -0.0232,0.04496 -0.0457,0.0635 -0.0225,0.01854 -0.0503,0.02781 -0.0834,0.02781 h -0.29781 l 1.13766,-2.845178 h 0.38912 z"
       style="fill:#373c44;stroke-width:3.97089" />
    <path
       id="use76"
       d="m 64.67164,39.052139 c 0,0.106511 -0.0169,0.20425 -0.0506,0.293217 -0.0337,0.08897 -0.0814,0.16554 -0.1429,0.229717 -0.0615,0.06416 -0.13543,0.11394 -0.22175,0.149349 -0.0863,0.03539 -0.18176,0.05308 -0.28629,0.05308 -0.10451,0 -0.19977,-0.0177 -0.28577,-0.05308 -0.086,-0.03541 -0.15975,-0.08519 -0.22126,-0.149349 -0.0615,-0.06418 -0.10915,-0.140749 -0.1429,-0.229717 -0.0337,-0.08897 -0.0506,-0.186706 -0.0506,-0.293217 0,-0.106511 0.0169,-0.20425 0.0506,-0.293218 0.0337,-0.08897 0.0814,-0.165701 0.1429,-0.230201 0.0615,-0.0645 0.13526,-0.114606 0.22126,-0.150318 0.086,-0.03573 0.18126,-0.0536 0.28577,-0.0536 0.10454,0 0.19996,0.01787 0.28629,0.0536 0.0863,0.03571 0.16024,0.08582 0.22175,0.150318 0.0615,0.0645 0.10916,0.141234 0.1429,0.230201 0.0337,0.08897 0.0506,0.186707 0.0506,0.293218 m -0.19744,0 c 0,-0.08731 -0.0119,-0.165702 -0.0357,-0.235168 -0.0238,-0.06947 -0.0576,-0.128172 -0.10123,-0.176118 -0.0437,-0.04797 -0.0966,-0.08485 -0.15877,-0.110649 -0.0622,-0.0258 -0.13163,-0.0387 -0.20837,-0.0387 -0.0761,0 -0.14519,0.0129 -0.20737,0.0387 -0.0622,0.0258 -0.11526,0.06268 -0.15925,0.110649 -0.044,0.04795 -0.0779,0.106652 -0.10171,0.176118 -0.0238,0.06947 -0.0357,0.147856 -0.0357,0.235168 0,0.08731 0.0119,0.16554 0.0357,0.234683 0.0238,0.06912 0.0577,0.127667 0.10171,0.175634 0.044,0.04794 0.0971,0.08466 0.15925,0.110134 0.0622,0.02546 0.13131,0.03819 0.20737,0.03819 0.0767,0 0.14619,-0.01273 0.20837,-0.03819 0.0622,-0.02548 0.11512,-0.06219 0.15877,-0.110134 0.0437,-0.04797 0.0774,-0.106511 0.10123,-0.175634 0.0238,-0.06914 0.0357,-0.147371 0.0357,-0.234683 z"
       style="fill:#646b79;stroke-width:1.98454" />
    <path
       id="use77"
       d="m 65.06559,39.520506 c 0.0324,0.04365 0.0678,0.0744 0.10614,0.09227 0.0384,0.01787 0.0814,0.0268 0.12903,0.0268 0.0939,0 0.16603,-0.0334 0.2163,-0.100202 0.0503,-0.06682 0.0754,-0.162088 0.0754,-0.285798 0,-0.06549 -0.006,-0.121713 -0.0174,-0.16867 -0.0116,-0.04698 -0.0283,-0.08552 -0.0501,-0.115615 -0.0218,-0.0301 -0.0486,-0.0521 -0.0804,-0.06598 -0.0317,-0.01389 -0.0678,-0.02083 -0.10816,-0.02083 -0.0575,0 -0.10798,0.01323 -0.15132,0.0397 -0.0433,0.02645 -0.0832,0.06381 -0.11955,0.112103 v 0.486233 m -0.009,-0.607269 c 0.0423,-0.05227 0.0913,-0.09428 0.14683,-0.126032 0.0556,-0.03176 0.11909,-0.04763 0.19053,-0.04763 0.0582,0 0.11081,0.01108 0.15777,0.03325 0.047,0.02217 0.087,0.05491 0.12007,0.09823 0.0331,0.04332 0.0585,0.09707 0.0764,0.16125 0.0179,0.06416 0.0268,0.137912 0.0268,0.221268 0,0.07409 -0.01,0.14305 -0.0298,0.206884 -0.0198,0.06383 -0.0485,0.119078 -0.0859,0.165732 -0.0374,0.04663 -0.083,0.08334 -0.13693,0.110135 -0.0539,0.02679 -0.1146,0.04018 -0.18208,0.04018 -0.0615,0 -0.11427,-0.01042 -0.15826,-0.03125 -0.044,-0.02085 -0.0829,-0.0498 -0.11658,-0.08685 v 0.444535 h -0.17763 v -1.345507 h 0.10616 c 0.0252,0 0.0407,0.01223 0.0467,0.0367 z"
       style="fill:#646b79;stroke-width:1.98454" />
    <path
       id="use78"
       d="m 66.67405,39.150373 c 0,-0.041 -0.006,-0.07854 -0.0174,-0.112618 -0.0116,-0.03408 -0.0284,-0.06351 -0.0506,-0.0883 -0.0221,-0.02481 -0.0491,-0.044 -0.0808,-0.05757 -0.0318,-0.01356 -0.0678,-0.02035 -0.10817,-0.02035 -0.0847,0 -0.15165,0.02465 -0.20095,0.07395 -0.0493,0.04928 -0.0799,0.117574 -0.0918,0.204886 h 0.5497 m 0.1429,0.471334 c -0.0218,0.02647 -0.048,0.04946 -0.0784,0.06898 -0.0304,0.0195 -0.063,0.03554 -0.0977,0.04812 -0.0347,0.01256 -0.0706,0.02197 -0.10765,0.02825 -0.037,0.0063 -0.0738,0.0094 -0.11013,0.0094 -0.0695,0 -0.13347,-0.01174 -0.19202,-0.03522 -0.0585,-0.0235 -0.10915,-0.0579 -0.15183,-0.1032 -0.0427,-0.04532 -0.0759,-0.101383 -0.0997,-0.168185 -0.0238,-0.06682 -0.0357,-0.143565 -0.0357,-0.230231 0,-0.07011 0.0108,-0.135592 0.0323,-0.196438 0.0215,-0.06087 0.0524,-0.113627 0.0927,-0.158282 0.0404,-0.04465 0.0897,-0.07971 0.14787,-0.105168 0.0582,-0.02548 0.12371,-0.03822 0.19646,-0.03822 0.0602,0 0.11593,0.01009 0.16719,0.03028 0.0513,0.02017 0.0956,0.04927 0.13297,0.0873 0.0374,0.03803 0.0667,0.085 0.0878,0.140901 0.0212,0.0559 0.0318,0.119572 0.0318,0.191016 0,0.02778 -0.003,0.0463 -0.009,0.05557 -0.006,0.0092 -0.0172,0.01387 -0.0337,0.01387 h -0.67177 c 0.002,0.06351 0.0107,0.118754 0.0263,0.165731 0.0155,0.04696 0.0372,0.08615 0.065,0.117584 0.0278,0.03141 0.0609,0.05489 0.0992,0.07043 0.0384,0.01555 0.0814,0.02332 0.129,0.02332 0.0443,0 0.0825,-0.0051 0.11462,-0.01538 0.0321,-0.01026 0.0597,-0.02133 0.0828,-0.03322 0.0232,-0.01191 0.0425,-0.023 0.0581,-0.03325 0.0155,-0.01026 0.0289,-0.01538 0.0402,-0.01538 0.0146,0 0.0258,0.0056 0.0337,0.01687 z"
       style="fill:#646b79;stroke-width:1.98454" />
    <path
       id="use79"
       d="m 67.21582,38.903304 c 0.0219,-0.02449 0.045,-0.04665 0.0695,-0.0665 0.0245,-0.01985 0.0504,-0.03687 0.0779,-0.05109 0.0275,-0.01423 0.0566,-0.02514 0.0873,-0.03273 0.0308,-0.0076 0.064,-0.01142 0.0997,-0.01142 0.0549,0 0.10336,0.0091 0.14536,0.02728 0.042,0.01819 0.0771,0.04399 0.10519,0.0774 0.0281,0.03341 0.0495,0.0736 0.064,0.120582 0.0146,0.04696 0.0218,0.09888 0.0218,0.155769 v 0.640004 h -0.1776 v -0.640003 c 0,-0.07609 -0.0174,-0.135127 -0.0521,-0.177118 -0.0347,-0.04201 -0.0875,-0.06302 -0.15826,-0.06302 -0.0522,0 -0.10103,0.01256 -0.14635,0.0377 -0.0453,0.02513 -0.0872,0.0592 -0.12552,0.102201 v 0.740236 h -0.17763 v -1.005171 h 0.10617 c 0.0251,0 0.0407,0.01223 0.0467,0.0367 z"
       style="fill:#646b79;stroke-width:1.98454" />
    <path
       id="use80"
       d="M 68.01659,39.762608 Z"
       style="fill:#646b79;stroke-width:1.98454" />
    <path
       id="use81"
       d="m 68.83224,38.958871 c 0.0317,-0.0688 0.0708,-0.12255 0.11707,-0.16125 0.0463,-0.0387 0.10287,-0.05805 0.1697,-0.05805 0.0212,0 0.0415,0.0023 0.061,0.007 0.0195,0.0046 0.0369,0.01189 0.0521,0.0218 l -0.0129,0.131998 c -0.004,0.01653 -0.0139,0.0248 -0.0298,0.0248 -0.009,0 -0.0228,-0.002 -0.0407,-0.0059 -0.0179,-0.004 -0.038,-0.006 -0.0605,-0.006 -0.0318,0 -0.06,0.0046 -0.0849,0.0139 -0.0248,0.0092 -0.047,0.02296 -0.0665,0.04115 -0.0195,0.01819 -0.037,0.04069 -0.0526,0.0675 -0.0155,0.02679 -0.0296,0.05737 -0.0421,0.09175 v 0.635069 H 68.66448 V 38.75747 h 0.10123 c 0.0192,0 0.0324,0.0036 0.0397,0.01093 0.007,0.0073 0.0122,0.01983 0.0149,0.0377 z"
       style="fill:#646b79;stroke-width:1.98454" />
    <path
       id="use82"
       d="m 69.91382,39.310139 c -0.0814,0.0026 -0.15067,0.0091 -0.20789,0.01935 -0.0572,0.01026 -0.10384,0.02365 -0.1399,0.04018 -0.0361,0.01653 -0.0622,0.03605 -0.0784,0.05853 -0.0162,0.02249 -0.0243,0.04763 -0.0243,0.07543 0,0.02645 0.004,0.04927 0.0129,0.06847 0.009,0.01918 0.0203,0.03488 0.0352,0.04712 0.0149,0.01223 0.0324,0.02117 0.0526,0.0268 0.0202,0.0056 0.0419,0.0084 0.065,0.0084 0.0311,0 0.0595,-0.0031 0.0853,-0.0094 0.0258,-0.0063 0.0501,-0.01537 0.0729,-0.02728 0.0228,-0.01191 0.0446,-0.02613 0.0655,-0.04267 0.0208,-0.01653 0.0412,-0.03539 0.061,-0.05657 v -0.208367 m -0.57057,-0.410801 c 0.0556,-0.05358 0.11544,-0.0936 0.1796,-0.120067 0.0642,-0.02647 0.13529,-0.0397 0.21333,-0.0397 0.0563,0 0.10619,0.0093 0.14984,0.0278 0.0437,0.01851 0.0804,0.04431 0.11013,0.0774 0.0298,0.03307 0.0523,0.07309 0.0675,0.120067 0.0152,0.04696 0.0228,0.09855 0.0228,0.15477 v 0.643001 h -0.0784 c -0.0172,0 -0.0304,-0.0028 -0.0397,-0.0084 -0.009,-0.0056 -0.0165,-0.01672 -0.0218,-0.03325 l -0.0198,-0.09527 c -0.0265,0.02447 -0.0523,0.04613 -0.0774,0.06498 -0.0251,0.01885 -0.0516,0.03473 -0.0794,0.04763 -0.0278,0.0129 -0.0574,0.02282 -0.0888,0.02977 -0.0314,0.0069 -0.0663,0.01042 -0.10465,0.01042 -0.0391,0 -0.0758,-0.0055 -0.11017,-0.01635 -0.0344,-0.01092 -0.0643,-0.02729 -0.0898,-0.04912 -0.0255,-0.02184 -0.0457,-0.04946 -0.0605,-0.08285 -0.0149,-0.03341 -0.0223,-0.07294 -0.0223,-0.118583 0,-0.03969 0.0109,-0.0779 0.0327,-0.114616 0.0219,-0.03672 0.0572,-0.0693 0.10617,-0.09775 0.049,-0.02844 0.11279,-0.05176 0.1915,-0.06995 0.0787,-0.01819 0.17532,-0.02861 0.28977,-0.03125 v -0.0784 c 0,-0.07805 -0.0169,-0.137075 -0.0506,-0.177088 -0.0337,-0.04003 -0.083,-0.06005 -0.14787,-0.06005 -0.0437,0 -0.0802,0.0055 -0.10965,0.01638 -0.0294,0.0109 -0.0549,0.02314 -0.0764,0.0367 -0.0215,0.01357 -0.04,0.02581 -0.0556,0.03673 -0.0155,0.0109 -0.0309,0.01635 -0.0461,0.01635 -0.0119,0 -0.0222,-0.0031 -0.0308,-0.0094 -0.009,-0.0063 -0.0159,-0.01407 -0.0218,-0.02332 z"
       style="fill:#646b79;stroke-width:1.98454" />
    <path
       id="use83"
       d="m 70.90013,39.310139 c -0.0814,0.0026 -0.15067,0.0091 -0.20788,0.01935 -0.0572,0.01026 -0.10385,0.02365 -0.1399,0.04018 -0.0361,0.01653 -0.0622,0.03605 -0.0784,0.05853 -0.0162,0.02249 -0.0243,0.04763 -0.0243,0.07543 0,0.02645 0.004,0.04927 0.0129,0.06847 0.009,0.01918 0.0203,0.03488 0.0352,0.04712 0.0149,0.01223 0.0324,0.02117 0.0526,0.0268 0.0202,0.0056 0.0419,0.0084 0.065,0.0084 0.0311,0 0.0595,-0.0031 0.0853,-0.0094 0.0258,-0.0063 0.0501,-0.01537 0.0729,-0.02728 0.0228,-0.01191 0.0446,-0.02613 0.0655,-0.04267 0.0209,-0.01653 0.0412,-0.03539 0.061,-0.05657 v -0.208367 m -0.57056,-0.410801 c 0.0556,-0.05358 0.11544,-0.0936 0.1796,-0.120067 0.0642,-0.02647 0.13528,-0.0397 0.21333,-0.0397 0.0562,0 0.10619,0.0093 0.14983,0.0278 0.0437,0.01851 0.0804,0.04431 0.11014,0.0774 0.0298,0.03307 0.0523,0.07309 0.0675,0.120067 0.0152,0.04696 0.0228,0.09855 0.0228,0.15477 v 0.643001 h -0.0784 c -0.0172,0 -0.0304,-0.0028 -0.0397,-0.0084 -0.009,-0.0056 -0.0165,-0.01672 -0.0218,-0.03325 l -0.0198,-0.09527 c -0.0265,0.02447 -0.0523,0.04613 -0.0774,0.06498 -0.0251,0.01885 -0.0516,0.03473 -0.0794,0.04763 -0.0278,0.0129 -0.0574,0.02282 -0.0888,0.02977 -0.0314,0.0069 -0.0663,0.01042 -0.10466,0.01042 -0.039,0 -0.0758,-0.0055 -0.11016,-0.01635 -0.0344,-0.01092 -0.0643,-0.02729 -0.0898,-0.04912 -0.0255,-0.02184 -0.0456,-0.04946 -0.0605,-0.08285 -0.0149,-0.03341 -0.0223,-0.07294 -0.0223,-0.118583 0,-0.03969 0.0109,-0.0779 0.0327,-0.114616 0.0218,-0.03672 0.0572,-0.0693 0.10617,-0.09775 0.0489,-0.02844 0.11279,-0.05176 0.1915,-0.06995 0.0787,-0.01819 0.17532,-0.02861 0.28976,-0.03125 v -0.0784 c 0,-0.07805 -0.0169,-0.137075 -0.0506,-0.177088 -0.0337,-0.04003 -0.083,-0.06005 -0.14786,-0.06005 -0.0437,0 -0.0802,0.0055 -0.10965,0.01638 -0.0294,0.0109 -0.0549,0.02314 -0.0764,0.0367 -0.0215,0.01357 -0.04,0.02581 -0.0556,0.03673 -0.0155,0.0109 -0.0309,0.01635 -0.0461,0.01635 -0.0119,0 -0.0222,-0.0031 -0.0308,-0.0094 -0.009,-0.0063 -0.0159,-0.01407 -0.0218,-0.02332 z"
       style="fill:#646b79;stroke-width:1.98454" />
    <path
       id="use84"
       d="m 71.99659,38.996572 c -0.0331,-0.04431 -0.0688,-0.07523 -0.10717,-0.09275 -0.0384,-0.01754 -0.0814,-0.02631 -0.129,-0.02631 -0.0933,0 -0.16505,0.03341 -0.21533,0.100232 -0.0503,0.0668 -0.0754,0.162057 -0.0754,0.285768 0,0.06549 0.006,0.121551 0.0169,0.168185 0.0113,0.04663 0.0278,0.085 0.0496,0.1151 0.0219,0.0301 0.0487,0.05209 0.0804,0.06598 0.0318,0.01389 0.0678,0.02083 0.10817,0.02083 0.0582,0 0.10896,-0.01322 0.15228,-0.03967 0.0434,-0.02647 0.0832,-0.06384 0.11959,-0.112134 V 38.99657 M 72.17326,38.301 v 1.461606 h -0.1052 c -0.0251,0 -0.041,-0.01224 -0.0476,-0.0367 l -0.0159,-0.122065 c -0.043,0.0516 -0.092,0.09328 -0.14687,0.125033 -0.0549,0.03176 -0.11839,0.04763 -0.1905,0.04763 -0.0575,0 -0.10982,-0.01108 -0.1568,-0.03325 -0.0469,-0.02217 -0.087,-0.05475 -0.12003,-0.09775 -0.0331,-0.043 -0.0585,-0.09658 -0.0764,-0.160735 -0.0179,-0.06418 -0.0268,-0.137933 -0.0268,-0.221268 0,-0.07409 0.01,-0.143051 0.0298,-0.206885 0.0198,-0.06385 0.0483,-0.119259 0.0853,-0.166216 0.037,-0.04698 0.0825,-0.08386 0.13642,-0.110649 0.0539,-0.02679 0.11462,-0.04018 0.18211,-0.04018 0.0615,0 0.11426,0.01043 0.15825,0.03128 0.044,0.02083 0.0832,0.04977 0.11759,0.08682 v -0.556668 z"
       style="fill:#646b79;stroke-width:1.98454" />
    <path
       id="use85"
       d="m 73.03846,38.923139 c -0.008,0.01455 -0.0202,0.02183 -0.0367,0.02183 -0.01,0 -0.0212,-0.0036 -0.0338,-0.0109 -0.0125,-0.0073 -0.0279,-0.01539 -0.0461,-0.02432 -0.0182,-0.0089 -0.0399,-0.01719 -0.065,-0.0248 -0.0251,-0.0076 -0.0549,-0.01142 -0.0893,-0.01142 -0.0298,0 -0.0566,0.0038 -0.0804,0.01142 -0.0238,0.0076 -0.0441,0.01803 -0.061,0.03125 -0.0169,0.01322 -0.0298,0.02861 -0.0387,0.04615 -0.009,0.01752 -0.0134,0.03654 -0.0134,0.05705 0,0.0258 0.007,0.0473 0.0223,0.0645 0.0149,0.0172 0.0346,0.03209 0.0591,0.04467 0.0245,0.01256 0.0522,0.02363 0.0833,0.03322 0.0311,0.0096 0.063,0.01985 0.0958,0.03077 0.0327,0.0109 0.0647,0.02297 0.0958,0.03622 0.0311,0.01322 0.0589,0.02976 0.0833,0.0496 0.0245,0.01985 0.0442,0.04416 0.0591,0.07295 0.0149,0.02877 0.0223,0.06333 0.0223,0.103684 0,0.04631 -0.008,0.08915 -0.0248,0.128516 -0.0165,0.03934 -0.041,0.07341 -0.0734,0.1022 -0.0324,0.02877 -0.0721,0.05142 -0.11907,0.06795 -0.047,0.01653 -0.10122,0.0248 -0.16274,0.0248 -0.0701,0 -0.13361,-0.01141 -0.1905,-0.03422 -0.0569,-0.02283 -0.10519,-0.0521 -0.1449,-0.08782 l 0.0417,-0.06747 c 0.005,-0.0086 0.0116,-0.01521 0.0188,-0.01984 0.007,-0.0046 0.0165,-0.007 0.0278,-0.007 0.0119,0 0.0245,0.0046 0.0377,0.0139 0.0132,0.0092 0.0293,0.01949 0.0481,0.03073 0.0189,0.01125 0.0418,0.0215 0.069,0.03077 0.0271,0.0093 0.0609,0.0139 0.10123,0.0139 0.0344,0 0.0645,-0.0045 0.0903,-0.01338 0.0258,-0.0089 0.0473,-0.02102 0.0645,-0.03622 0.0172,-0.01522 0.0299,-0.03276 0.0382,-0.0526 0.008,-0.01985 0.0124,-0.04101 0.0124,-0.0635 0,-0.0278 -0.007,-0.05079 -0.0223,-0.06898 -0.0149,-0.01819 -0.0345,-0.03373 -0.059,-0.04663 -0.0245,-0.0129 -0.0524,-0.02414 -0.0839,-0.03373 -0.0314,-0.0096 -0.0635,-0.01967 -0.0962,-0.03025 -0.0327,-0.0106 -0.0648,-0.02267 -0.0963,-0.03622 -0.0314,-0.01356 -0.0594,-0.0306 -0.0838,-0.05112 -0.0245,-0.02051 -0.0442,-0.04582 -0.0591,-0.07592 -0.0149,-0.0301 -0.0223,-0.06664 -0.0223,-0.10962 0,-0.03838 0.008,-0.07526 0.0238,-0.110649 0.0159,-0.03539 0.039,-0.06648 0.0695,-0.09327 0.0305,-0.02679 0.0678,-0.04812 0.11214,-0.06399 0.0443,-0.01589 0.0949,-0.02383 0.15183,-0.02383 0.0661,0 0.12549,0.01042 0.17808,0.03125 0.0526,0.02083 0.0981,0.04944 0.13645,0.08582 z"
       style="fill:#646b79;stroke-width:1.98454" />
    <path
       id="use86"
       d="m 73.4989,38.757437 v 1.005171 h -0.17664 v -1.005171 h 0.17664 m 0.0377,-0.315535 c 0,0.0172 -0.003,0.03324 -0.0104,0.04812 -0.007,0.01488 -0.0162,0.02811 -0.0278,0.0397 -0.0116,0.01157 -0.0251,0.02066 -0.0407,0.02728 -0.0155,0.0066 -0.0319,0.0099 -0.0491,0.0099 -0.0172,0 -0.0333,-0.0033 -0.0482,-0.0099 -0.0149,-0.0066 -0.0279,-0.01572 -0.0392,-0.02728 -0.0112,-0.01159 -0.0202,-0.02482 -0.0268,-0.0397 -0.007,-0.01488 -0.01,-0.03092 -0.01,-0.04812 0,-0.0172 0.003,-0.03357 0.01,-0.04912 0.007,-0.01554 0.0156,-0.0291 0.0268,-0.04067 0.0112,-0.01159 0.0243,-0.02069 0.0392,-0.02731 0.0149,-0.0066 0.031,-0.0099 0.0482,-0.0099 0.0172,0 0.0336,0.0033 0.0491,0.0099 0.0156,0.0066 0.0291,0.01573 0.0407,0.02731 0.0116,0.01157 0.0209,0.02513 0.0278,0.04067 0.007,0.01554 0.0104,0.03192 0.0104,0.04912 z"
       style="fill:#646b79;stroke-width:1.98454" />
    <path
       id="use87"
       d="m 73.95532,38.903304 c 0.0218,-0.02449 0.045,-0.04665 0.0695,-0.0665 0.0245,-0.01985 0.0504,-0.03687 0.0779,-0.05109 0.0275,-0.01423 0.0566,-0.02514 0.0873,-0.03273 0.0308,-0.0076 0.064,-0.01142 0.0997,-0.01142 0.0549,0 0.10336,0.0091 0.14535,0.02728 0.042,0.01819 0.0771,0.04399 0.1052,0.0774 0.0281,0.03341 0.0495,0.0736 0.064,0.120582 0.0145,0.04696 0.0218,0.09888 0.0218,0.155769 v 0.640004 h -0.1776 v -0.640003 c 0,-0.07609 -0.0174,-0.135127 -0.0521,-0.177118 -0.0347,-0.04201 -0.0875,-0.06302 -0.15825,-0.06302 -0.0522,0 -0.10103,0.01256 -0.14635,0.0377 -0.0453,0.02513 -0.0872,0.0592 -0.12552,0.102201 v 0.740236 h -0.17763 v -1.005171 h 0.10617 c 0.0251,0 0.0407,0.01223 0.0467,0.0367 z"
       style="fill:#646b79;stroke-width:1.98454" />
    <path
       id="use88"
       d="M 74.9476,39.762608 V 38.90827 l -0.11113,-0.0129 c -0.0139,-0.0033 -0.0253,-0.0084 -0.0342,-0.01538 -0.009,-0.0069 -0.0134,-0.01704 -0.0134,-0.03028 v -0.07243 h 0.15877 v -0.09723 c 0,-0.05756 0.008,-0.108651 0.0243,-0.153286 0.0162,-0.04466 0.0393,-0.08237 0.0694,-0.113133 0.0301,-0.03077 0.0663,-0.05408 0.10865,-0.06995 0.0424,-0.01589 0.09,-0.02383 0.1429,-0.02383 0.045,0 0.0863,0.0066 0.12404,0.01986 l -0.004,0.0883 c -0.001,0.01587 -0.0101,0.02447 -0.0263,0.0258 -0.0162,0.0013 -0.0379,0.002 -0.065,0.002 -0.0304,0 -0.0581,0.004 -0.0829,0.0119 -0.0248,0.0079 -0.0461,0.02083 -0.064,0.0387 -0.0179,0.01784 -0.0316,0.04132 -0.0412,0.07043 -0.01,0.02911 -0.0144,0.06517 -0.0144,0.108167 v 0.09227 h 0.28973 v 0.128001 h -0.2838 v 0.857335 z"
       style="fill:#646b79;stroke-width:1.98454" />
    <path
       id="use89"
       d="m 75.96864,38.74157 c 0.0734,0 0.13957,0.01225 0.19844,0.03673 0.0589,0.02447 0.10916,0.05919 0.15083,0.104169 0.0417,0.04498 0.0736,0.09939 0.0957,0.163219 0.0222,0.06383 0.0333,0.135116 0.0333,0.213849 0,0.07938 -0.0111,0.150823 -0.0333,0.214334 -0.0221,0.06349 -0.0541,0.117735 -0.0957,0.162734 -0.0417,0.04498 -0.092,0.07954 -0.15083,0.103684 -0.0589,0.02415 -0.12502,0.03622 -0.19844,0.03622 -0.0741,0 -0.14074,-0.01207 -0.19995,-0.03622 -0.0592,-0.02414 -0.10963,-0.05871 -0.15132,-0.103684 -0.0417,-0.045 -0.0736,-0.09924 -0.0957,-0.162734 -0.0221,-0.06351 -0.0332,-0.134956 -0.0332,-0.214334 0,-0.07873 0.0111,-0.150015 0.0332,-0.213849 0.0222,-0.06383 0.0541,-0.11824 0.0957,-0.163219 0.0417,-0.04498 0.0921,-0.0797 0.15132,-0.104169 0.0592,-0.02449 0.12586,-0.03673 0.19995,-0.03673 m 0,0.897004 c 0.0992,0 0.17331,-0.03324 0.22227,-0.09972 0.0489,-0.06648 0.0734,-0.159261 0.0734,-0.278349 0,-0.119734 -0.0245,-0.213001 -0.0734,-0.279803 -0.049,-0.06682 -0.12305,-0.100232 -0.22227,-0.100232 -0.0503,0 -0.0941,0.0086 -0.13148,0.0258 -0.0374,0.0172 -0.0685,0.04201 -0.0933,0.07443 -0.0248,0.0324 -0.0433,0.07225 -0.0556,0.119552 -0.0122,0.0473 -0.0183,0.100717 -0.0183,0.16025 0,0.119088 0.0246,0.211871 0.0739,0.27835 0.0493,0.06648 0.1242,0.09972 0.22475,0.09972 z"
       style="fill:#646b79;stroke-width:1.98454" />
    <path
       id="use90"
       d="m 76.83787,38.958871 c 0.0318,-0.0688 0.0708,-0.12255 0.11707,-0.16125 0.0463,-0.0387 0.10288,-0.05805 0.1697,-0.05805 0.0212,0 0.0415,0.0023 0.061,0.007 0.0195,0.0046 0.0369,0.01189 0.0521,0.0218 l -0.0129,0.131998 c -0.004,0.01653 -0.0139,0.0248 -0.0298,0.0248 -0.009,0 -0.0228,-0.002 -0.0407,-0.0059 -0.0179,-0.004 -0.038,-0.006 -0.0605,-0.006 -0.0318,0 -0.06,0.0046 -0.0848,0.0139 -0.0248,0.0092 -0.047,0.02296 -0.0665,0.04115 -0.0195,0.01819 -0.037,0.04069 -0.0526,0.0675 -0.0156,0.02679 -0.0296,0.05737 -0.0421,0.09175 v 0.635069 H 76.67019 V 38.75747 h 0.10123 c 0.0192,0 0.0324,0.0036 0.0397,0.01093 0.007,0.0073 0.0123,0.01983 0.0149,0.0377 z"
       style="fill:#646b79;stroke-width:1.98454" />
    <path
       id="use91"
       d="m 77.39255,39.762608 v -1.005171 h 0.10616 c 0.0252,0 0.0407,0.01223 0.0467,0.0367 l 0.0129,0.1032 c 0.037,-0.04565 0.0787,-0.08301 0.125,-0.112103 0.0463,-0.02911 0.0999,-0.04367 0.16077,-0.04367 0.0675,0 0.1222,0.01885 0.16421,0.05657 0.042,0.03769 0.0723,0.08863 0.0908,0.152802 0.0145,-0.03638 0.0332,-0.0678 0.056,-0.09427 0.0228,-0.02647 0.0485,-0.0483 0.0769,-0.0655 0.0284,-0.0172 0.0587,-0.02977 0.0908,-0.0377 0.0321,-0.0079 0.0647,-0.0119 0.0977,-0.0119 0.0529,0 0.10004,0.0084 0.14138,0.02531 0.0413,0.01686 0.0764,0.0415 0.10517,0.07392 0.0288,0.0324 0.0508,0.07225 0.066,0.119553 0.0152,0.0473 0.0228,0.101383 0.0228,0.162249 v 0.640004 h -0.17763 v -0.640004 c 0,-0.07873 -0.0172,-0.138438 -0.0516,-0.179116 -0.0344,-0.04068 -0.084,-0.06102 -0.14884,-0.06102 -0.0291,0 -0.0567,0.0051 -0.0829,0.01538 -0.0261,0.01026 -0.0491,0.02531 -0.069,0.04515 -0.0198,0.01985 -0.0356,0.04482 -0.0471,0.07492 -0.0116,0.0301 -0.0174,0.06499 -0.0174,0.104684 V 39.7626 h -0.1776 v -0.640003 c 0,-0.08071 -0.0162,-0.140911 -0.0486,-0.1806 -0.0324,-0.03969 -0.0797,-0.05953 -0.14187,-0.05953 -0.0437,0 -0.084,0.01174 -0.12106,0.03522 -0.037,0.02348 -0.0711,0.05539 -0.10221,0.09575 v 0.749168 z"
       style="fill:#646b79;stroke-width:1.98454" />
    <path
       id="use92"
       d="m 79.57059,39.310139 c -0.0814,0.0026 -0.15067,0.0091 -0.20788,0.01935 -0.0572,0.01026 -0.10385,0.02365 -0.13991,0.04018 -0.0361,0.01653 -0.0622,0.03605 -0.0784,0.05853 -0.0162,0.02249 -0.0243,0.04763 -0.0243,0.07543 0,0.02645 0.004,0.04927 0.0129,0.06847 0.009,0.01918 0.0203,0.03488 0.0352,0.04712 0.0149,0.01223 0.0324,0.02117 0.0526,0.0268 0.0202,0.0056 0.0419,0.0084 0.065,0.0084 0.0311,0 0.0595,-0.0031 0.0853,-0.0094 0.0258,-0.0063 0.0501,-0.01537 0.0729,-0.02728 0.0228,-0.01191 0.0446,-0.02613 0.0655,-0.04267 0.0208,-0.01653 0.0412,-0.03539 0.061,-0.05657 v -0.208367 m -0.57056,-0.410801 c 0.0556,-0.05358 0.11544,-0.0936 0.1796,-0.120067 0.0642,-0.02647 0.13529,-0.0397 0.21333,-0.0397 0.0562,0 0.10619,0.0093 0.14984,0.0278 0.0437,0.01851 0.0804,0.04431 0.11013,0.0774 0.0298,0.03307 0.0523,0.07309 0.0675,0.120067 0.0152,0.04696 0.0228,0.09855 0.0228,0.15477 v 0.643001 h -0.0784 c -0.0172,0 -0.0304,-0.0028 -0.0397,-0.0084 -0.009,-0.0056 -0.0165,-0.01672 -0.0218,-0.03325 l -0.0198,-0.09527 c -0.0265,0.02447 -0.0523,0.04613 -0.0774,0.06498 -0.0251,0.01885 -0.0516,0.03473 -0.0794,0.04763 -0.0278,0.0129 -0.0574,0.02282 -0.0888,0.02977 -0.0314,0.0069 -0.0663,0.01042 -0.10466,0.01042 -0.039,0 -0.0758,-0.0055 -0.11016,-0.01635 -0.0344,-0.01092 -0.0643,-0.02729 -0.0898,-0.04912 -0.0255,-0.02184 -0.0457,-0.04946 -0.0605,-0.08285 -0.0149,-0.03341 -0.0223,-0.07294 -0.0223,-0.118583 0,-0.03969 0.0109,-0.0779 0.0327,-0.114616 0.0219,-0.03672 0.0572,-0.0693 0.10616,-0.09775 0.049,-0.02844 0.11279,-0.05176 0.19151,-0.06995 0.0787,-0.01819 0.17532,-0.02861 0.28976,-0.03125 v -0.0784 c 0,-0.07805 -0.0169,-0.137075 -0.0506,-0.177088 -0.0337,-0.04003 -0.083,-0.06005 -0.14786,-0.06005 -0.0436,0 -0.0802,0.0055 -0.10966,0.01638 -0.0294,0.0109 -0.0549,0.02314 -0.0764,0.0367 -0.0215,0.01357 -0.04,0.02581 -0.0556,0.03673 -0.0156,0.0109 -0.0309,0.01635 -0.0461,0.01635 -0.0119,0 -0.0222,-0.0031 -0.0308,-0.0094 -0.009,-0.0063 -0.0159,-0.01407 -0.0218,-0.02332 z"
       style="fill:#646b79;stroke-width:1.98454" />
    <path
       id="use93"
       d="m 80.93297,39.762608 h -0.1766 V 38.905273 H 80.2384 v 0.603302 c 0,0.04235 0.0102,0.07379 0.0307,0.0943 0.0205,0.02049 0.047,0.03074 0.0794,0.03074 0.0185,0 0.0345,-0.0025 0.0481,-0.0074 0.0136,-0.005 0.0253,-0.01043 0.0352,-0.01638 0.01,-0.006 0.0184,-0.01142 0.0253,-0.01638 0.007,-0.005 0.0131,-0.0074 0.0184,-0.0074 0.009,0 0.0175,0.0056 0.0248,0.01687 l 0.0516,0.08436 c -0.0304,0.02844 -0.0671,0.05077 -0.11013,0.06698 -0.043,0.01619 -0.0873,0.02429 -0.13297,0.02429 -0.0794,0 -0.1404,-0.02216 -0.18308,-0.06647 -0.0427,-0.04433 -0.064,-0.108167 -0.064,-0.191502 V 38.90535 h -0.12106 c -0.0106,0 -0.0195,-0.0031 -0.0268,-0.0094 -0.007,-0.0063 -0.0109,-0.01604 -0.0109,-0.02928 v -0.07044 l 0.16473,-0.02183 0.0407,-0.3096 c 0.002,-0.0099 0.006,-0.01801 0.0134,-0.02429 0.007,-0.0063 0.016,-0.0094 0.0273,-0.0094 h 0.0893 v 0.346302 h 0.69457 v 0.985335 m 0.0437,-1.32767 c 0,0.0172 -0.003,0.03325 -0.0104,0.04815 -0.007,0.01488 -0.0162,0.02794 -0.0278,0.03918 -0.0116,0.01125 -0.025,0.02018 -0.0402,0.0268 -0.0152,0.0066 -0.0314,0.0099 -0.0486,0.0099 -0.0172,0 -0.0332,-0.0033 -0.0481,-0.0099 -0.0149,-0.0066 -0.0279,-0.01555 -0.0392,-0.0268 -0.0113,-0.01124 -0.0202,-0.02431 -0.0268,-0.03918 -0.007,-0.0149 -0.01,-0.03095 -0.01,-0.04815 0,-0.0172 0.003,-0.03357 0.01,-0.04912 0.007,-0.01554 0.0155,-0.0291 0.0268,-0.04067 0.0112,-0.01159 0.0243,-0.02068 0.0392,-0.02728 0.0149,-0.0066 0.0309,-0.0099 0.0481,-0.0099 0.0172,0 0.0334,0.0033 0.0486,0.0099 0.0152,0.0066 0.0286,0.0157 0.0402,0.02728 0.0116,0.01157 0.0208,0.02512 0.0278,0.04067 0.007,0.01554 0.0104,0.03192 0.0104,0.04912 z"
       style="fill:#646b79;stroke-width:1.98454" />
    <path
       id="use94"
       d="m 81.89548,39.150373 c 0,-0.041 -0.006,-0.07854 -0.0174,-0.112618 -0.0116,-0.03408 -0.0284,-0.06351 -0.0506,-0.0883 -0.0221,-0.02481 -0.0491,-0.044 -0.0808,-0.05757 -0.0318,-0.01356 -0.0678,-0.02035 -0.10817,-0.02035 -0.0847,0 -0.15165,0.02465 -0.20094,0.07395 -0.0493,0.04928 -0.0799,0.117574 -0.0918,0.204886 h 0.5497 m 0.14291,0.471334 c -0.0219,0.02647 -0.048,0.04946 -0.0784,0.06898 -0.0304,0.0195 -0.063,0.03554 -0.0977,0.04812 -0.0347,0.01256 -0.0706,0.02197 -0.10765,0.02825 -0.037,0.0063 -0.0738,0.0094 -0.11014,0.0094 -0.0695,0 -0.13347,-0.01174 -0.19202,-0.03522 -0.0585,-0.0235 -0.10915,-0.0579 -0.15183,-0.1032 -0.0427,-0.04532 -0.0759,-0.101383 -0.0997,-0.168185 -0.0238,-0.06682 -0.0357,-0.143565 -0.0357,-0.230231 0,-0.07011 0.0108,-0.135592 0.0323,-0.196438 0.0215,-0.06087 0.0524,-0.113627 0.0928,-0.158282 0.0404,-0.04465 0.0896,-0.07971 0.14786,-0.105168 0.0582,-0.02548 0.12371,-0.03822 0.19647,-0.03822 0.0602,0 0.11593,0.01009 0.16718,0.03028 0.0513,0.02017 0.0956,0.04927 0.13297,0.0873 0.0374,0.03803 0.0667,0.085 0.0878,0.140901 0.0212,0.0559 0.0318,0.119572 0.0318,0.191016 0,0.02778 -0.003,0.0463 -0.009,0.05557 -0.006,0.0092 -0.0172,0.01387 -0.0337,0.01387 h -0.67177 c 0.002,0.06351 0.0107,0.118754 0.0263,0.165731 0.0156,0.04696 0.0372,0.08615 0.065,0.117584 0.0278,0.03141 0.0609,0.05489 0.0992,0.07043 0.0384,0.01555 0.0814,0.02332 0.129,0.02332 0.0443,0 0.0825,-0.0051 0.11461,-0.01538 0.0321,-0.01026 0.0597,-0.02133 0.0829,-0.03322 0.0232,-0.01191 0.0425,-0.023 0.0581,-0.03325 0.0156,-0.01026 0.0289,-0.01538 0.0402,-0.01538 0.0145,0 0.0258,0.0056 0.0337,0.01687 z"
       style="fill:#646b79;stroke-width:1.98454" />
    <path
       id="use95"
       d="M 82.13064,39.762608 Z"
       style="fill:#646b79;stroke-width:1.98454" />
    <path
       id="use96"
       d="m 82.84165,39.172206 c 0,-0.05093 0.01,-0.09889 0.0293,-0.143868 0.0195,-0.045 0.0458,-0.08419 0.0789,-0.117585 0.0331,-0.03341 0.0719,-0.05987 0.11658,-0.07937 0.0447,-0.01952 0.0921,-0.02928 0.14242,-0.02928 0.0509,0 0.0987,0.0098 0.14335,0.02928 0.0447,0.0195 0.0837,0.04596 0.1171,0.07937 0.0334,0.03339 0.0599,0.07259 0.0794,0.117585 0.0195,0.04498 0.0293,0.09293 0.0293,0.143868 0,0.05093 -0.01,0.09873 -0.0293,0.143383 -0.0195,0.04466 -0.046,0.08353 -0.0794,0.116615 -0.0334,0.03307 -0.0725,0.05936 -0.1171,0.07888 -0.0446,0.0195 -0.0924,0.02925 -0.14335,0.02925 -0.0503,0 -0.0978,-0.0097 -0.14242,-0.02925 -0.0446,-0.01952 -0.0835,-0.04582 -0.11658,-0.07888 -0.0331,-0.03309 -0.0594,-0.07196 -0.0789,-0.116615 -0.0195,-0.04465 -0.0293,-0.09245 -0.0293,-0.143383 z"
       style="fill:#4d1a57;stroke-width:1.98454" />
    <path
       id="use97"
       d="M 83.78569,39.762608 Z"
       style="fill:#646b79;stroke-width:1.98454" />
    <path
       id="use98"
       d="m 85.23044,39.234707 -0.22327,-0.578471 c -0.007,-0.0172 -0.0136,-0.03721 -0.0208,-0.06002 -0.007,-0.02283 -0.0142,-0.04715 -0.0208,-0.07295 -0.0139,0.05358 -0.0281,0.09822 -0.0427,0.133936 l -0.22326,0.577502 h 0.53087 m 0.40086,0.527901 h -0.14883 c -0.0172,0 -0.0311,-0.0043 -0.0417,-0.0129 -0.0106,-0.0086 -0.0185,-0.01951 -0.0238,-0.03273 l -0.13296,-0.343334 h -0.63801 l -0.13297,0.343334 c -0.004,0.01189 -0.0116,0.02247 -0.0228,0.03174 -0.0112,0.0093 -0.0251,0.0139 -0.0417,0.0139 h -0.14883 l 0.56857,-1.421937 h 0.19447 z"
       style="fill:#646b79;stroke-width:1.98454" />
    <path
       id="use99"
       d="m 85.94487,38.958871 c 0.0317,-0.0688 0.0708,-0.12255 0.11707,-0.16125 0.0463,-0.0387 0.10287,-0.05805 0.16969,-0.05805 0.0212,0 0.0415,0.0023 0.061,0.007 0.0195,0.0046 0.0369,0.01189 0.0521,0.0218 l -0.0129,0.131998 c -0.004,0.01653 -0.0139,0.0248 -0.0298,0.0248 -0.009,0 -0.0228,-0.002 -0.0407,-0.0059 -0.0179,-0.004 -0.038,-0.006 -0.0605,-0.006 -0.0318,0 -0.06,0.0046 -0.0849,0.0139 -0.0248,0.0092 -0.0469,0.02296 -0.0665,0.04115 -0.0195,0.01819 -0.0371,0.04069 -0.0526,0.0675 -0.0156,0.02679 -0.0296,0.05737 -0.0422,0.09175 v 0.635069 H 85.777 V 38.75747 h 0.10123 c 0.0192,0 0.0324,0.0036 0.0397,0.01093 0.007,0.0073 0.0122,0.01983 0.0149,0.0377 z"
       style="fill:#646b79;stroke-width:1.98454" />
    <path
       id="use100"
       d="m 87.15545,38.936039 c -0.005,0.0073 -0.0106,0.01292 -0.0159,0.0169 -0.005,0.004 -0.0126,0.0059 -0.0218,0.0059 -0.01,0 -0.0208,-0.0041 -0.0328,-0.01239 -0.0119,-0.0083 -0.0266,-0.01737 -0.0442,-0.02728 -0.0175,-0.0099 -0.039,-0.01904 -0.0645,-0.02731 -0.0254,-0.0083 -0.0567,-0.01242 -0.0937,-0.01242 -0.0496,0 -0.0933,0.0088 -0.131,0.02632 -0.0377,0.01752 -0.0693,0.04283 -0.0948,0.07592 -0.0255,0.03307 -0.0446,0.07309 -0.0575,0.120067 -0.0129,0.04696 -0.0193,0.09955 -0.0193,0.157768 0,0.06085 0.007,0.114918 0.0208,0.162218 0.0139,0.0473 0.0336,0.087 0.059,0.119098 0.0255,0.03208 0.0562,0.05656 0.0923,0.07343 0.0361,0.01686 0.0766,0.02529 0.12158,0.02529 0.043,0 0.0784,-0.0051 0.10617,-0.01538 0.0278,-0.01026 0.0508,-0.02166 0.069,-0.03422 0.0182,-0.01257 0.0334,-0.02399 0.0456,-0.03425 0.0122,-0.01026 0.0243,-0.01538 0.0362,-0.01538 0.0145,0 0.0258,0.0056 0.0337,0.01687 l 0.0496,0.0645 c -0.0218,0.02711 -0.0466,0.05027 -0.0744,0.06947 -0.0278,0.01918 -0.0577,0.03522 -0.0898,0.04812 -0.0321,0.0129 -0.0657,0.02233 -0.10072,0.02828 -0.0351,0.006 -0.0708,0.0089 -0.10716,0.0089 -0.0628,0 -0.12123,-0.01158 -0.17515,-0.03473 -0.0539,-0.02316 -0.1007,-0.05673 -0.14039,-0.100717 -0.0397,-0.04399 -0.0708,-0.09806 -0.0933,-0.162219 -0.0225,-0.06418 -0.0337,-0.137277 -0.0337,-0.2193 0,-0.07476 0.0104,-0.143888 0.0312,-0.207399 0.0208,-0.06351 0.0513,-0.11825 0.0913,-0.164217 0.04,-0.04597 0.0893,-0.08185 0.14786,-0.107652 0.0585,-0.0258 0.12586,-0.0387 0.20192,-0.0387 0.0708,0 0.13312,0.01142 0.18702,0.03425 0.0539,0.02281 0.10173,0.05505 0.14342,0.09672 z"
       style="fill:#646b79;stroke-width:1.98454" />
    <path
       id="use101"
       d="m 87.58212,38.891403 c 0.043,-0.04564 0.0906,-0.08202 0.14287,-0.109135 0.0523,-0.02713 0.11247,-0.0407 0.1806,-0.0407 0.0549,0 0.10336,0.0091 0.14535,0.02728 0.042,0.01819 0.0771,0.04399 0.1052,0.0774 0.0281,0.03341 0.0495,0.0736 0.064,0.120581 0.0145,0.04696 0.0218,0.09888 0.0218,0.155769 v 0.640004 h -0.1776 v -0.640004 c 0,-0.07609 -0.0174,-0.135127 -0.0521,-0.177117 -0.0347,-0.04201 -0.0875,-0.06302 -0.15825,-0.06302 -0.0523,0 -0.10103,0.01256 -0.14636,0.0377 -0.0453,0.02513 -0.0872,0.0592 -0.12551,0.102201 v 0.740236 h -0.17763 v -1.461596 h 0.17763 z"
       style="fill:#646b79;stroke-width:1.98454" />
    <path
       id="use102"
       d="m 88.69843,38.757437 v 1.005171 h -0.17664 v -1.005171 h 0.17664 m 0.0377,-0.315535 c 0,0.0172 -0.003,0.03324 -0.0104,0.04812 -0.007,0.01488 -0.0162,0.02811 -0.0278,0.0397 -0.0116,0.01157 -0.0251,0.02066 -0.0407,0.02728 -0.0156,0.0066 -0.0319,0.0099 -0.0491,0.0099 -0.0172,0 -0.0333,-0.0033 -0.0482,-0.0099 -0.0149,-0.0066 -0.0279,-0.01572 -0.0392,-0.02728 -0.0113,-0.01159 -0.0202,-0.02482 -0.0268,-0.0397 -0.007,-0.01488 -0.01,-0.03092 -0.01,-0.04812 0,-0.0172 0.003,-0.03357 0.01,-0.04912 0.007,-0.01554 0.0156,-0.0291 0.0268,-0.04067 0.0112,-0.01159 0.0243,-0.02069 0.0392,-0.02731 0.0149,-0.0066 0.031,-0.0099 0.0482,-0.0099 0.0172,0 0.0336,0.0033 0.0491,0.0099 0.0155,0.0066 0.0291,0.01573 0.0407,0.02731 0.0116,0.01157 0.0208,0.02513 0.0278,0.04067 0.007,0.01554 0.0104,0.03192 0.0104,0.04912 z"
       style="fill:#646b79;stroke-width:1.98454" />
    <path
       id="use103"
       d="m 89.66093,39.150373 c 0,-0.041 -0.006,-0.07854 -0.0174,-0.112618 -0.0116,-0.03408 -0.0284,-0.06351 -0.0506,-0.0883 -0.0221,-0.02481 -0.0491,-0.044 -0.0808,-0.05757 -0.0318,-0.01356 -0.0678,-0.02035 -0.10817,-0.02035 -0.0847,0 -0.15165,0.02465 -0.20095,0.07395 -0.0493,0.04928 -0.0799,0.117574 -0.0917,0.204886 h 0.5497 m 0.1429,0.471334 c -0.0219,0.02647 -0.048,0.04946 -0.0784,0.06898 -0.0304,0.0195 -0.063,0.03554 -0.0977,0.04812 -0.0347,0.01256 -0.0706,0.02197 -0.10766,0.02825 -0.037,0.0063 -0.0737,0.0094 -0.11013,0.0094 -0.0695,0 -0.13347,-0.01174 -0.19202,-0.03522 -0.0585,-0.0235 -0.10915,-0.0579 -0.15183,-0.1032 -0.0426,-0.04532 -0.0759,-0.101383 -0.0997,-0.168185 -0.0238,-0.06682 -0.0357,-0.143565 -0.0357,-0.230231 0,-0.07011 0.0108,-0.135592 0.0323,-0.196438 0.0215,-0.06087 0.0524,-0.113627 0.0928,-0.158282 0.0403,-0.04465 0.0896,-0.07971 0.14786,-0.105168 0.0582,-0.02548 0.12371,-0.03822 0.19647,-0.03822 0.0602,0 0.11593,0.01009 0.16718,0.03028 0.0513,0.02017 0.0956,0.04927 0.13297,0.0873 0.0374,0.03803 0.0667,0.085 0.0878,0.140901 0.0212,0.0559 0.0318,0.119572 0.0318,0.191016 0,0.02778 -0.003,0.0463 -0.009,0.05557 -0.006,0.0092 -0.0172,0.01387 -0.0337,0.01387 h -0.67176 c 0.002,0.06351 0.0107,0.118754 0.0263,0.165731 0.0156,0.04696 0.0372,0.08615 0.065,0.117584 0.0278,0.03141 0.0609,0.05489 0.0992,0.07043 0.0384,0.01555 0.0814,0.02332 0.129,0.02332 0.0443,0 0.0825,-0.0051 0.11461,-0.01538 0.0321,-0.01026 0.0597,-0.02133 0.0828,-0.03322 0.0232,-0.01191 0.0425,-0.023 0.0581,-0.03325 0.0156,-0.01026 0.0289,-0.01538 0.0402,-0.01538 0.0146,0 0.0258,0.0056 0.0337,0.01687 z"
       style="fill:#646b79;stroke-width:1.98454" />
    <path
       id="use104"
       d="M 90.09355,39.762608 V 38.90827 l -0.11113,-0.0129 c -0.0139,-0.0033 -0.0253,-0.0084 -0.0342,-0.01538 -0.009,-0.0069 -0.0134,-0.01704 -0.0134,-0.03028 v -0.07243 h 0.15877 v -0.09723 c 0,-0.05756 0.008,-0.108651 0.0243,-0.153286 0.0162,-0.04466 0.0393,-0.08237 0.0694,-0.113133 0.0301,-0.03077 0.0663,-0.05408 0.10865,-0.06995 0.0424,-0.01589 0.09,-0.02383 0.1429,-0.02383 0.045,0 0.0863,0.0066 0.12404,0.01986 l -0.004,0.0883 c -0.001,0.01587 -0.0101,0.02447 -0.0263,0.0258 -0.0162,0.0013 -0.0379,0.002 -0.065,0.002 -0.0304,0 -0.0581,0.004 -0.0829,0.0119 -0.0248,0.0079 -0.0461,0.02083 -0.064,0.0387 -0.0179,0.01784 -0.0316,0.04132 -0.0412,0.07043 -0.01,0.02911 -0.0144,0.06517 -0.0144,0.108167 v 0.09227 h 0.28973 v 0.128001 h -0.2838 v 0.857335 z"
       style="fill:#646b79;stroke-width:1.98454" />
    <path
       id="use105"
       d="m 91.31006,38.923139 c -0.008,0.01455 -0.0202,0.02183 -0.0367,0.02183 -0.01,0 -0.0212,-0.0036 -0.0338,-0.0109 -0.0126,-0.0073 -0.0279,-0.01539 -0.0461,-0.02432 -0.0182,-0.0089 -0.0399,-0.01719 -0.065,-0.0248 -0.0251,-0.0076 -0.0549,-0.01142 -0.0893,-0.01142 -0.0298,0 -0.0566,0.0038 -0.0804,0.01142 -0.0238,0.0076 -0.0441,0.01803 -0.061,0.03125 -0.0169,0.01322 -0.0298,0.02861 -0.0387,0.04615 -0.009,0.01752 -0.0134,0.03654 -0.0134,0.05705 0,0.0258 0.007,0.0473 0.0223,0.0645 0.0149,0.0172 0.0346,0.03209 0.059,0.04467 0.0245,0.01256 0.0523,0.02363 0.0833,0.03322 0.0311,0.0096 0.063,0.01985 0.0958,0.03077 0.0327,0.0109 0.0647,0.02297 0.0958,0.03622 0.0311,0.01322 0.0589,0.02976 0.0833,0.0496 0.0245,0.01985 0.0442,0.04416 0.0591,0.07295 0.0149,0.02877 0.0223,0.06333 0.0223,0.103684 0,0.04631 -0.008,0.08915 -0.0248,0.128516 -0.0165,0.03934 -0.041,0.07341 -0.0734,0.1022 -0.0324,0.02877 -0.0721,0.05142 -0.11907,0.06795 -0.047,0.01653 -0.10122,0.0248 -0.16273,0.0248 -0.0701,0 -0.13362,-0.01141 -0.19051,-0.03422 -0.0569,-0.02283 -0.10518,-0.0521 -0.14489,-0.08782 l 0.0417,-0.06747 c 0.005,-0.0086 0.0116,-0.01521 0.0188,-0.01984 0.007,-0.0046 0.0166,-0.007 0.0278,-0.007 0.0119,0 0.0245,0.0046 0.0377,0.0139 0.0132,0.0092 0.0293,0.01949 0.0481,0.03073 0.0189,0.01125 0.0418,0.0215 0.069,0.03077 0.0271,0.0093 0.0609,0.0139 0.10123,0.0139 0.0344,0 0.0645,-0.0045 0.0903,-0.01338 0.0258,-0.0089 0.0473,-0.02102 0.0645,-0.03622 0.0172,-0.01522 0.0299,-0.03276 0.0382,-0.0526 0.008,-0.01985 0.0124,-0.04101 0.0124,-0.0635 0,-0.0278 -0.007,-0.05079 -0.0224,-0.06898 -0.0149,-0.01819 -0.0345,-0.03373 -0.059,-0.04663 -0.0245,-0.0129 -0.0524,-0.02414 -0.0839,-0.03373 -0.0314,-0.0096 -0.0635,-0.01967 -0.0962,-0.03025 -0.0328,-0.0106 -0.0648,-0.02267 -0.0963,-0.03622 -0.0314,-0.01356 -0.0594,-0.0306 -0.0839,-0.05112 -0.0245,-0.02051 -0.0442,-0.04582 -0.059,-0.07592 -0.0149,-0.0301 -0.0223,-0.06664 -0.0223,-0.10962 0,-0.03838 0.008,-0.07526 0.0238,-0.110649 0.0159,-0.03539 0.039,-0.06648 0.0695,-0.09327 0.0305,-0.02679 0.0678,-0.04812 0.11214,-0.06399 0.0443,-0.01589 0.0949,-0.02383 0.15183,-0.02383 0.0661,0 0.1255,0.01042 0.17809,0.03125 0.0526,0.02083 0.0981,0.04944 0.13645,0.08582 z"
       style="fill:#646b79;stroke-width:1.98454" />
    <path
       id="use106"
       d="m 91.89254,39.778475 c -0.0794,0 -0.14041,-0.02216 -0.18309,-0.06647 -0.0427,-0.04433 -0.064,-0.108166 -0.064,-0.191501 v -0.615233 h -0.12107 c -0.0106,0 -0.0195,-0.0031 -0.0268,-0.0094 -0.007,-0.0063 -0.0109,-0.01604 -0.0109,-0.02928 v -0.07044 l 0.16473,-0.02083 0.0407,-0.310599 c 0.002,-0.0099 0.006,-0.01801 0.0134,-0.02429 0.007,-0.0063 0.016,-0.0094 0.0273,-0.0094 h 0.0893 v 0.346302 h 0.29073 v 0.128 h -0.29073 v 0.603302 c 0,0.04235 0.0102,0.07379 0.0307,0.0943 0.0205,0.02049 0.047,0.03074 0.0794,0.03074 0.0185,0 0.0345,-0.0025 0.0481,-0.0074 0.0136,-0.005 0.0253,-0.01043 0.0352,-0.01638 0.01,-0.006 0.0184,-0.01142 0.0253,-0.01638 0.007,-0.005 0.0131,-0.0074 0.0184,-0.0074 0.009,0 0.0175,0.0056 0.0248,0.01687 l 0.0516,0.08436 c -0.0304,0.02844 -0.0671,0.05077 -0.11013,0.06698 -0.043,0.01619 -0.0873,0.02429 -0.13297,0.02429 z"
       style="fill:#646b79;stroke-width:1.98454" />
    <path
       id="use107"
       d="m 92.84115,39.310139 c -0.0814,0.0026 -0.15067,0.0091 -0.20788,0.01935 -0.0572,0.01026 -0.10385,0.02365 -0.13991,0.04018 -0.036,0.01653 -0.0622,0.03605 -0.0784,0.05853 -0.0162,0.02249 -0.0243,0.04763 -0.0243,0.07543 0,0.02645 0.004,0.04927 0.0129,0.06847 0.009,0.01918 0.0204,0.03488 0.0352,0.04712 0.0149,0.01223 0.0324,0.02117 0.0526,0.0268 0.0202,0.0056 0.0419,0.0084 0.065,0.0084 0.0311,0 0.0595,-0.0031 0.0853,-0.0094 0.0258,-0.0063 0.0501,-0.01537 0.0729,-0.02728 0.0228,-0.01191 0.0446,-0.02613 0.0655,-0.04267 0.0208,-0.01653 0.0412,-0.03539 0.061,-0.05657 V 39.310132 M 92.2705,38.899331 c 0.0556,-0.05358 0.11544,-0.0936 0.1796,-0.120067 0.0642,-0.02647 0.13528,-0.0397 0.21333,-0.0397 0.0562,0 0.10619,0.0093 0.14983,0.0278 0.0437,0.01851 0.0804,0.04431 0.11014,0.0774 0.0298,0.03307 0.0523,0.07309 0.0675,0.120067 0.0152,0.04696 0.0228,0.09855 0.0228,0.15477 v 0.643001 h -0.0784 c -0.0172,0 -0.0304,-0.0028 -0.0397,-0.0084 -0.009,-0.0056 -0.0165,-0.01672 -0.0218,-0.03325 l -0.0198,-0.09527 c -0.0265,0.02447 -0.0523,0.04613 -0.0774,0.06498 -0.0251,0.01885 -0.0516,0.03473 -0.0794,0.04763 -0.0278,0.0129 -0.0574,0.02282 -0.0888,0.02977 -0.0314,0.0069 -0.0663,0.01042 -0.10466,0.01042 -0.039,0 -0.0758,-0.0055 -0.11016,-0.01635 -0.0344,-0.01092 -0.0643,-0.02729 -0.0898,-0.04912 -0.0255,-0.02184 -0.0456,-0.04946 -0.0605,-0.08285 -0.0149,-0.03341 -0.0223,-0.07294 -0.0223,-0.118583 0,-0.03969 0.0109,-0.0779 0.0327,-0.114616 0.0219,-0.03672 0.0572,-0.0693 0.10617,-0.09775 0.049,-0.02844 0.11279,-0.05176 0.1915,-0.06995 0.0787,-0.01819 0.17532,-0.02861 0.28977,-0.03125 v -0.0784 c 0,-0.07805 -0.0169,-0.137075 -0.0506,-0.177088 -0.0337,-0.04003 -0.083,-0.06005 -0.14787,-0.06005 -0.0436,0 -0.0802,0.0055 -0.10965,0.01638 -0.0294,0.0109 -0.0549,0.02314 -0.0764,0.0367 -0.0215,0.01357 -0.04,0.02581 -0.0556,0.03673 -0.0155,0.0109 -0.0309,0.01635 -0.0461,0.01635 -0.0119,0 -0.0222,-0.0031 -0.0308,-0.0094 -0.009,-0.0063 -0.0159,-0.01407 -0.0218,-0.02332 z"
       style="fill:#646b79;stroke-width:1.98454" />
    <path
       id="use108"
       d="m 93.4494,38.903304 c 0.0219,-0.02449 0.045,-0.04665 0.0695,-0.0665 0.0245,-0.01985 0.0504,-0.03687 0.0779,-0.05109 0.0275,-0.01423 0.0566,-0.02514 0.0873,-0.03273 0.0308,-0.0076 0.064,-0.01142 0.0997,-0.01142 0.0549,0 0.10337,0.0091 0.14536,0.02728 0.042,0.01819 0.0771,0.04399 0.10519,0.0774 0.0281,0.03341 0.0495,0.0736 0.064,0.120582 0.0145,0.04696 0.0218,0.09888 0.0218,0.155769 v 0.640004 h -0.17761 v -0.640003 c 0,-0.07609 -0.0174,-0.135127 -0.0521,-0.177118 -0.0347,-0.04201 -0.0875,-0.06302 -0.15825,-0.06302 -0.0523,0 -0.10103,0.01256 -0.14635,0.0377 -0.0453,0.02513 -0.0872,0.0592 -0.12552,0.102201 v 0.740236 h -0.17763 v -1.005171 h 0.10616 c 0.0252,0 0.0407,0.01223 0.0467,0.0367 z"
       style="fill:#646b79;stroke-width:1.98454" />
    <path
       id="use109"
       d="m 95.04498,38.996572 c -0.0331,-0.04431 -0.0688,-0.07523 -0.10717,-0.09275 -0.0384,-0.01754 -0.0814,-0.02631 -0.129,-0.02631 -0.0933,0 -0.16504,0.03341 -0.21533,0.100232 -0.0503,0.0668 -0.0754,0.162057 -0.0754,0.285768 0,0.06549 0.006,0.121551 0.0169,0.168185 0.0112,0.04663 0.0278,0.085 0.0496,0.1151 0.0219,0.0301 0.0486,0.05209 0.0804,0.06598 0.0317,0.01389 0.0678,0.02083 0.10816,0.02083 0.0582,0 0.10897,-0.01322 0.15229,-0.03967 0.0433,-0.02647 0.0832,-0.06384 0.11958,-0.112134 V 38.99657 M 95.22165,38.301 v 1.461606 h -0.1052 c -0.0251,0 -0.041,-0.01224 -0.0476,-0.0367 l -0.0159,-0.122065 c -0.043,0.0516 -0.0919,0.09328 -0.14686,0.125033 -0.0549,0.03176 -0.11839,0.04763 -0.19051,0.04763 -0.0575,0 -0.10982,-0.01108 -0.15679,-0.03325 -0.047,-0.02217 -0.087,-0.05475 -0.12004,-0.09775 -0.0331,-0.043 -0.0585,-0.09658 -0.0764,-0.160735 -0.0179,-0.06418 -0.0268,-0.137933 -0.0268,-0.221268 0,-0.07409 0.01,-0.143051 0.0298,-0.206885 0.0198,-0.06385 0.0483,-0.119259 0.0853,-0.166216 0.037,-0.04698 0.0825,-0.08386 0.13642,-0.110649 0.0539,-0.02679 0.11463,-0.04018 0.18211,-0.04018 0.0615,0 0.11427,0.01043 0.15826,0.03128 0.044,0.02083 0.0832,0.04977 0.11758,0.08682 v -0.556668 z"
       style="fill:#646b79;stroke-width:1.98454" />
    <path
       id="use110"
       d="m 96.04618,39.310139 c -0.0814,0.0026 -0.15067,0.0091 -0.20788,0.01935 -0.0572,0.01026 -0.10385,0.02365 -0.1399,0.04018 -0.036,0.01653 -0.0622,0.03605 -0.0784,0.05853 -0.0162,0.02249 -0.0243,0.04763 -0.0243,0.07543 0,0.02645 0.004,0.04927 0.0129,0.06847 0.009,0.01918 0.0203,0.03488 0.0352,0.04712 0.0149,0.01223 0.0324,0.02117 0.0526,0.0268 0.0202,0.0056 0.0419,0.0084 0.065,0.0084 0.0311,0 0.0595,-0.0031 0.0853,-0.0094 0.0258,-0.0063 0.0501,-0.01537 0.0729,-0.02728 0.0228,-0.01191 0.0446,-0.02613 0.0655,-0.04267 0.0208,-0.01653 0.0412,-0.03539 0.061,-0.05657 v -0.208367 m -0.57057,-0.410801 c 0.0556,-0.05358 0.11544,-0.0936 0.1796,-0.120067 0.0642,-0.02647 0.13529,-0.0397 0.21334,-0.0397 0.0562,0 0.10618,0.0093 0.14983,0.0278 0.0437,0.01851 0.0804,0.04431 0.11014,0.0774 0.0298,0.03307 0.0523,0.07309 0.0675,0.120067 0.0152,0.04696 0.0228,0.09855 0.0228,0.15477 v 0.643001 h -0.0784 c -0.0172,0 -0.0304,-0.0028 -0.0397,-0.0084 -0.009,-0.0056 -0.0165,-0.01672 -0.0218,-0.03325 l -0.0198,-0.09527 c -0.0265,0.02447 -0.0523,0.04613 -0.0774,0.06498 -0.0251,0.01885 -0.0516,0.03473 -0.0794,0.04763 -0.0278,0.0129 -0.0574,0.02282 -0.0888,0.02977 -0.0314,0.0069 -0.0663,0.01042 -0.10465,0.01042 -0.039,0 -0.0758,-0.0055 -0.11017,-0.01635 -0.0344,-0.01092 -0.0643,-0.02729 -0.0898,-0.04912 -0.0255,-0.02184 -0.0457,-0.04946 -0.0605,-0.08285 -0.0149,-0.03341 -0.0223,-0.07294 -0.0223,-0.118583 0,-0.03969 0.0109,-0.0779 0.0327,-0.114616 0.0219,-0.03672 0.0572,-0.0693 0.10617,-0.09775 0.0489,-0.02844 0.11278,-0.05176 0.1915,-0.06995 0.0787,-0.01819 0.17532,-0.02861 0.28976,-0.03125 v -0.0784 c 0,-0.07805 -0.0169,-0.137075 -0.0506,-0.177088 -0.0337,-0.04003 -0.083,-0.06005 -0.14786,-0.06005 -0.0437,0 -0.0802,0.0055 -0.10965,0.01638 -0.0294,0.0109 -0.0549,0.02314 -0.0764,0.0367 -0.0215,0.01357 -0.04,0.02581 -0.0556,0.03673 -0.0156,0.0109 -0.0309,0.01635 -0.0461,0.01635 -0.0119,0 -0.0222,-0.0031 -0.0308,-0.0094 -0.009,-0.0063 -0.0159,-0.01407 -0.0218,-0.02332 z"
       style="fill:#646b79;stroke-width:1.98454" />
    <path
       id="use111"
       d="m 97.0325,39.310139 c -0.0814,0.0026 -0.15067,0.0091 -0.20788,0.01935 -0.0572,0.01026 -0.10385,0.02365 -0.1399,0.04018 -0.0361,0.01653 -0.0622,0.03605 -0.0784,0.05853 -0.0162,0.02249 -0.0243,0.04763 -0.0243,0.07543 0,0.02645 0.004,0.04927 0.0129,0.06847 0.009,0.01918 0.0204,0.03488 0.0352,0.04712 0.0149,0.01223 0.0324,0.02117 0.0526,0.0268 0.0202,0.0056 0.0419,0.0084 0.065,0.0084 0.0311,0 0.0595,-0.0031 0.0853,-0.0094 0.0258,-0.0063 0.0501,-0.01537 0.0729,-0.02728 0.0228,-0.01191 0.0446,-0.02613 0.0655,-0.04267 0.0208,-0.01653 0.0412,-0.03539 0.061,-0.05657 v -0.208367 m -0.57056,-0.410801 c 0.0556,-0.05358 0.11544,-0.0936 0.1796,-0.120067 0.0642,-0.02647 0.13529,-0.0397 0.21333,-0.0397 0.0563,0 0.10619,0.0093 0.14984,0.0278 0.0437,0.01851 0.0804,0.04431 0.11013,0.0774 0.0298,0.03307 0.0523,0.07309 0.0675,0.120067 0.0152,0.04696 0.0228,0.09855 0.0228,0.15477 v 0.643001 h -0.0784 c -0.0172,0 -0.0304,-0.0028 -0.0397,-0.0084 -0.009,-0.0056 -0.0165,-0.01672 -0.0218,-0.03325 l -0.0198,-0.09527 c -0.0265,0.02447 -0.0523,0.04613 -0.0774,0.06498 -0.0251,0.01885 -0.0516,0.03473 -0.0794,0.04763 -0.0278,0.0129 -0.0574,0.02282 -0.0888,0.02977 -0.0314,0.0069 -0.0663,0.01042 -0.10466,0.01042 -0.039,0 -0.0758,-0.0055 -0.11016,-0.01635 -0.0344,-0.01092 -0.0643,-0.02729 -0.0898,-0.04912 -0.0255,-0.02184 -0.0457,-0.04946 -0.0605,-0.08285 -0.0149,-0.03341 -0.0223,-0.07294 -0.0223,-0.118583 0,-0.03969 0.0109,-0.0779 0.0327,-0.114616 0.0219,-0.03672 0.0572,-0.0693 0.10617,-0.09775 0.049,-0.02844 0.11279,-0.05176 0.1915,-0.06995 0.0787,-0.01819 0.17533,-0.02861 0.28977,-0.03125 v -0.0784 c 0,-0.07805 -0.0169,-0.137075 -0.0506,-0.177088 -0.0337,-0.04003 -0.083,-0.06005 -0.14787,-0.06005 -0.0436,0 -0.0802,0.0055 -0.10965,0.01638 -0.0294,0.0109 -0.0549,0.02314 -0.0764,0.0367 -0.0215,0.01357 -0.04,0.02581 -0.0556,0.03673 -0.0156,0.0109 -0.0309,0.01635 -0.0461,0.01635 -0.0119,0 -0.0222,-0.0031 -0.0308,-0.0094 -0.009,-0.0063 -0.0159,-0.01407 -0.0218,-0.02332 z"
       style="fill:#646b79;stroke-width:1.98454" />
    <path
       id="use112"
       d="m 97.64175,38.958871 c 0.0318,-0.0688 0.0708,-0.12255 0.11707,-0.16125 0.0463,-0.0387 0.10288,-0.05805 0.1697,-0.05805 0.0212,0 0.0415,0.0023 0.061,0.007 0.0195,0.0046 0.0369,0.01189 0.0521,0.0218 l -0.0129,0.131998 c -0.004,0.01653 -0.0139,0.0248 -0.0298,0.0248 -0.009,0 -0.0228,-0.002 -0.0407,-0.0059 -0.0179,-0.004 -0.038,-0.006 -0.0605,-0.006 -0.0318,0 -0.06,0.0046 -0.0848,0.0139 -0.0248,0.0092 -0.047,0.02296 -0.0665,0.04115 -0.0195,0.01819 -0.037,0.04069 -0.0526,0.0675 -0.0155,0.02679 -0.0296,0.05737 -0.0421,0.09175 v 0.635069 H 97.4741 V 38.75747 h 0.10123 c 0.0192,0 0.0324,0.0036 0.0397,0.01093 0.007,0.0073 0.0122,0.01983 0.0149,0.0377 z"
       style="fill:#646b79;stroke-width:1.98454" />
    <path
       id="use113"
       d="m 98.81164,38.996572 c -0.0331,-0.04431 -0.0688,-0.07523 -0.10717,-0.09275 -0.0384,-0.01754 -0.0814,-0.02631 -0.129,-0.02631 -0.0933,0 -0.16505,0.03341 -0.21534,0.100232 -0.0503,0.0668 -0.0754,0.162057 -0.0754,0.285768 0,0.06549 0.006,0.121551 0.0169,0.168185 0.0112,0.04663 0.0278,0.085 0.0496,0.1151 0.0219,0.0301 0.0486,0.05209 0.0804,0.06598 0.0317,0.01389 0.0678,0.02083 0.10816,0.02083 0.0582,0 0.10897,-0.01322 0.15229,-0.03967 0.0433,-0.02647 0.0832,-0.06384 0.11958,-0.112134 V 38.99657 M 98.9883,38.301 v 1.461606 h -0.1052 c -0.0251,0 -0.041,-0.01224 -0.0476,-0.0367 l -0.0159,-0.122065 c -0.043,0.0516 -0.0919,0.09328 -0.14687,0.125033 -0.0549,0.03176 -0.11839,0.04763 -0.1905,0.04763 -0.0575,0 -0.10982,-0.01108 -0.1568,-0.03325 -0.047,-0.02217 -0.087,-0.05475 -0.12003,-0.09775 -0.0331,-0.043 -0.0585,-0.09658 -0.0764,-0.160735 -0.0179,-0.06418 -0.0268,-0.137933 -0.0268,-0.221268 0,-0.07409 0.01,-0.143051 0.0298,-0.206885 0.0198,-0.06385 0.0483,-0.119259 0.0853,-0.166216 0.037,-0.04698 0.0825,-0.08386 0.13642,-0.110649 0.0539,-0.02679 0.11462,-0.04018 0.18211,-0.04018 0.0615,0 0.11426,0.01043 0.15825,0.03128 0.044,0.02083 0.0832,0.04977 0.11759,0.08682 v -0.556668 z"
       style="fill:#646b79;stroke-width:1.98454" />
    <path
       id="use1767"
       d="m 66.2665,35.185117 c 0,0.213119 -0.0361,0.408687 -0.10833,0.586704 -0.0722,0.178017 -0.17421,0.331231 -0.30594,0.459644 -0.1317,0.128372 -0.28996,0.227984 -0.47477,0.298836 -0.18482,0.07081 -0.38913,0.106216 -0.61293,0.106216 -0.22376,0 -0.4277,-0.03541 -0.61182,-0.106216 -0.18413,-0.07085 -0.34204,-0.170464 -0.47374,-0.298836 -0.13169,-0.128413 -0.23367,-0.281627 -0.30594,-0.459644 -0.0722,-0.178017 -0.10833,-0.373585 -0.10833,-0.586704 0,-0.213119 0.0361,-0.408687 0.10833,-0.586704 0.0723,-0.178017 0.17425,-0.331555 0.30594,-0.460614 0.1317,-0.129059 0.28961,-0.229317 0.47374,-0.300774 0.18412,-0.0715 0.38806,-0.107246 0.61182,-0.107246 0.2238,0 0.42811,0.03575 0.61293,0.107246 0.18481,0.07146 0.34307,0.171715 0.47477,0.300774 0.13173,0.129059 0.23372,0.282597 0.30594,0.460614 0.0722,0.178017 0.10833,0.373585 0.10833,0.586704 m -0.4227,0 c 0,-0.174704 -0.0255,-0.331555 -0.0765,-0.470551 -0.051,-0.138996 -0.12324,-0.256462 -0.21673,-0.352398 -0.0934,-0.09598 -0.20675,-0.169776 -0.33992,-0.2214 -0.13312,-0.05162 -0.28182,-0.07744 -0.44611,-0.07744 -0.16286,0 -0.31085,0.02581 -0.44397,0.07744 -0.13313,0.05162 -0.24678,0.125424 -0.34096,0.2214 -0.0942,0.09594 -0.16677,0.213402 -0.21777,0.352398 -0.051,0.138996 -0.0765,0.295847 -0.0765,0.470551 0,0.174705 0.0255,0.331231 0.0765,0.469581 0.051,0.138309 0.12359,0.255453 0.21777,0.351429 0.0942,0.09593 0.20783,0.169392 0.34096,0.22037 0.13312,0.05094 0.28111,0.0764 0.44397,0.0764 0.16429,0 0.31299,-0.02547 0.44611,-0.0764 0.13317,-0.05098 0.24647,-0.124434 0.33992,-0.22037 0.0935,-0.09598 0.16573,-0.213119 0.21673,-0.351429 0.051,-0.13835 0.0765,-0.294876 0.0765,-0.469581 z"
       style="fill:#373c44;stroke-width:4.10752" />
    <g
       clip-path="url(#clip_38)"
       id="g1767"
       transform="matrix(0.26458333,0,0,0.26458333,50.37708,22.00121)">
      <path
         d="m 53.039,47.816 c 0.191,-0.097 0.418,-0.039 0.586,0.075 0.914,0.523 1.828,1.043 2.742,1.57 0.285,0.172 0.231,0.617 -0.066,0.754 -0.926,0.527 -1.848,1.058 -2.774,1.586 -0.265,0.14 -0.672,0.004 -0.715,-0.293 -0.019,-0.32 -0.003,-0.645 -0.007,-0.965 0,-0.789 -0.004,-1.582 0,-2.375 0.004,-0.145 0.093,-0.281 0.234,-0.352 z m 0,0"
         fill="#1d6a54"
         id="path1767" />
    </g>
  </g>
</svg>
