<?xml version="1.0" encoding="UTF-8" standalone="no"?>
<!-- Created with Inkscape (http://www.inkscape.org/) -->

<svg
   width="180"
   height="180"
   viewBox="0 0 180 180"
   version="1.1"
   id="svg1"
   inkscape:version="1.4 (e7c3feb100, 2024-10-09)"
   sodipodi:docname="ORI-A-Play-2.svg"
   xml:space="preserve"
   inkscape:export-filename="ORI-A-Play.svg"
   inkscape:export-xdpi="96"
   inkscape:export-ydpi="96"
   xmlns:inkscape="http://www.inkscape.org/namespaces/inkscape"
   xmlns:sodipodi="http://sodipodi.sourceforge.net/DTD/sodipodi-0.dtd"
   xmlns="http://www.w3.org/2000/svg"
   xmlns:svg="http://www.w3.org/2000/svg"><sodipodi:namedview
     id="namedview1"
     pagecolor="#ffffff"
     bordercolor="#000000"
     borderopacity="0.25"
     inkscape:showpageshadow="2"
     inkscape:pageopacity="0.0"
     inkscape:pagecheckerboard="0"
     inkscape:deskcolor="#d1d1d1"
     inkscape:document-units="px"
     inkscape:zoom="1.7432343"
     inkscape:cx="36.13972"
     inkscape:cy="51.341349"
     inkscape:window-width="1202"
     inkscape:window-height="635"
     inkscape:window-x="26"
     inkscape:window-y="23"
     inkscape:window-maximized="0"
     inkscape:current-layer="layer3"
     inkscape:export-bgcolor="#ffffff00" /><defs
     id="defs1"><rect
       x="123.64267"
       y="91.905517"
       width="81.064287"
       height="62.747151"
       id="rect3" /><rect
       x="60.779221"
       y="46.051948"
       width="64.519481"
       height="74.571429"
       id="rect2" /><rect
       x="54.467532"
       y="44.883117"
       width="77.153862"
       height="83.651114"
       id="rect1" /></defs><g
     inkscape:groupmode="layer"
     id="layer4"
     inkscape:label="background"
     style="display:inline"><text
       xml:space="preserve"
       id="text2"
       style="font-size:42.6667px;line-height:1.9;font-family:'Source Code Pro';-inkscape-font-specification:'Source Code Pro';text-align:start;letter-spacing:-0.37px;writing-mode:lr-tb;direction:ltr;white-space:pre;shape-inside:url(#rect3);display:inline;fill:#77aa5e;stroke-width:0.1;stroke-linecap:round;stroke-linejoin:round" /><path
       style="display:inline;fill:#e1e5e8;fill-opacity:1;stroke:#e1e5e8;stroke-width:11.4577;stroke-dasharray:none;stroke-opacity:1"
       d="M 5.4221145,89.847098 Q 5.7518973,66.762391 16.634681,47.635077 v 0 0 Q 27.847251,28.507758 47.634138,16.635624 67.750804,5.4230574 89.846159,5.4230574 q 22.095351,0 42.212021,11.2125666 19.78689,11.872134 30.99945,30.999453 10.8828,19.127314 11.21257,42.212021 -0.32977,23.084722 -11.21257,42.212012 -11.21256,19.12733 -30.99945,30.99948 -20.11667,11.21256 -42.212021,11.21256 -22.095355,0 -42.212021,-11.21256 Q 27.847251,151.18644 16.634681,132.05911 5.7518973,112.93182 5.4221145,89.847098 Z"
       id="path5" /><path
       style="display:inline;fill:#77aa5e;fill-opacity:1;stroke-width:0.311827"
       d="m 27.198443,54.039155 q 4.053755,-1.870964 7.795682,0.311827 l 44.903136,27.440805 v 0 q 3.4301,2.182793 3.4301,6.236547 0,4.053756 -3.4301,6.548375 L 34.994125,122.0175 v 0 q -3.741927,1.87097 -7.795682,0 -3.741929,-2.18277 -3.741929,-6.54836 v -54.881611 0 q 0,-4.365584 3.741929,-6.548374 z"
       id="path6"
       inkscape:label="Traingle" /><text
       xml:space="preserve"
       style="font-size:113.889px;line-height:1.9;font-family:'Source Code Pro';-inkscape-font-specification:'Source Code Pro';text-align:start;letter-spacing:-0.987621px;writing-mode:lr-tb;direction:ltr;text-anchor:start;display:inline;fill:#3e3e3e;fill-opacity:1;stroke-width:0.266925;stroke-linecap:round;stroke-linejoin:round"
       x="78.997536"
       y="127.50788"
       id="text4"
       transform="scale(1.0648167,0.93912878)"><tspan
         sodipodi:role="line"
         id="tspan4"
         x="78.997536"
         y="127.50788"
         style="font-weight:normal;fill:#3e3e3e;fill-opacity:1;stroke-width:0.266925">A</tspan></text></g><g
     inkscape:groupmode="layer"
     id="layer3"
     inkscape:label="background 1" /><g
     inkscape:groupmode="layer"
     id="layer2"
     inkscape:label="New"
     style="stroke:#000000;stroke-opacity:0.80695403"
     inkscape:export-filename="export.svg"
     inkscape:export-xdpi="96"
     inkscape:export-ydpi="96"><g
       style="display:none;fill:#77aa5e;fill-opacity:1;stroke:none"
       id="g3"
       transform="matrix(0.15944158,0,0,0.15944158,5.6439838,49.182956)"
       inkscape:export-filename="export.svg"
       inkscape:export-xdpi="96"
       inkscape:export-ydpi="96"><path
         d="M 0,256 Q 1,186 34,128 v 0 0 Q 68,70 128,34 189,0 256,0 q 67,0 128,34 60,36 94,94 33,58 34,128 -1,70 -34,128 -34,58 -94,94 -61,34 -128,34 -67,0 -128,-34 Q 68,442 34,384 1,326 0,256 Z M 188,147 q -12,7 -12,21 v 176 0 q 0,14 12,21 13,6 25,-1 l 144,-88 v 0 q 11,-7 11,-20 0,-13 -11,-21 L 213,147 v 0 q -12,-6 -25,0 z"
         id="path1-2"
         style="fill:#77aa5e;fill-opacity:1;stroke:none" /></g></g></svg>
