<?xml version="1.0" encoding="UTF-8" standalone="no"?>
<!-- Created with Inkscape (http://www.inkscape.org/) -->

<svg
   width="180"
   height="180"
   viewBox="0 0 180 180"
   version="1.1"
   id="svg1"
   inkscape:version="1.4.1 (93de688d07, 2025-03-30)"
   sodipodi:docname="logo.svg"
   xml:space="preserve"
   inkscape:export-filename="/tmp/ORI-A-Play.svg"
   inkscape:export-xdpi="96"
   inkscape:export-ydpi="96"
   xmlns:inkscape="http://www.inkscape.org/namespaces/inkscape"
   xmlns:sodipodi="http://sodipodi.sourceforge.net/DTD/sodipodi-0.dtd"
   xmlns="http://www.w3.org/2000/svg"
   xmlns:svg="http://www.w3.org/2000/svg"><sodipodi:namedview
     id="namedview1"
     pagecolor="#ffffff"
     bordercolor="#000000"
     borderopacity="0.25"
     inkscape:showpageshadow="2"
     inkscape:pageopacity="0.0"
     inkscape:pagecheckerboard="0"
     inkscape:deskcolor="#d1d1d1"
     inkscape:document-units="px"
     inkscape:zoom="1.7432343"
     inkscape:cx="35.852897"
     inkscape:cy="51.341349"
     inkscape:window-width="1920"
     inkscape:window-height="1011"
     inkscape:window-x="0"
     inkscape:window-y="0"
     inkscape:window-maximized="1"
     inkscape:current-layer="layer4"
     inkscape:export-bgcolor="#ffffff00" /><defs
     id="defs1"><rect
       x="123.64267"
       y="91.905517"
       width="81.064287"
       height="62.747151"
       id="rect3" /><rect
       x="60.779221"
       y="46.051948"
       width="64.519481"
       height="74.571429"
       id="rect2" /><rect
       x="54.467532"
       y="44.883117"
       width="77.153862"
       height="83.651114"
       id="rect1" /></defs><g
     inkscape:groupmode="layer"
     id="layer4"
     inkscape:label="background"
     style="display:inline"><path
       style="display:inline;fill:#e1e5e8;fill-opacity:1;stroke:#e1e5e8;stroke-width:11.4577;stroke-dasharray:none;stroke-opacity:1"
       d="M 5.4221145,89.847098 Q 5.7518973,66.762391 16.634681,47.635077 v 0 0 Q 27.847251,28.507758 47.634138,16.635624 67.750804,5.4230574 89.846159,5.4230574 q 22.095351,0 42.212021,11.2125666 19.78689,11.872134 30.99945,30.999453 10.8828,19.127314 11.21257,42.212021 -0.32977,23.084722 -11.21257,42.212012 -11.21256,19.12733 -30.99945,30.99948 -20.11667,11.21256 -42.212021,11.21256 -22.095355,0 -42.212021,-11.21256 Q 27.847251,151.18644 16.634681,132.05911 5.7518973,112.93182 5.4221145,89.847098 Z"
       id="path5" /><path
       style="display:inline;fill:#77aa5e;fill-opacity:1;stroke-width:0.311827"
       d="m 27.198443,54.039155 q 4.053755,-1.870964 7.795682,0.311827 l 44.903136,27.440805 v 0 q 3.4301,2.182793 3.4301,6.236547 0,4.053756 -3.4301,6.548375 L 34.994125,122.0175 v 0 q -3.741927,1.87097 -7.795682,0 -3.741929,-2.18277 -3.741929,-6.54836 v -54.881611 0 q 0,-4.365584 3.741929,-6.548374 z"
       id="path6"
       inkscape:label="Traingle" /><path
       d="M 114.79883,49.582031 C 105.86521,72.969838 96.931669,96.358284 87.998047,119.74609 h 10.308594 c 2.546689,-7.13043 5.093939,-14.26019 7.640629,-21.390621 h 28.86132 c 2.50627,7.130431 5.01327,14.260191 7.51953,21.390621 H 153 C 144.06638,96.358284 135.13284,72.969838 126.19922,49.582031 Z m 5.33594,7.273438 c 1.51814,1.146139 1.39757,4.188872 2.34765,6.02539 3.03278,9.496187 6.50386,18.876689 9.7793,28.308594 h -23.76758 c 1.25313,-3.565215 2.50468,-7.130097 3.75781,-10.695312 2.80004,-7.833387 5.40382,-15.721857 7.88282,-23.638672 z"
       style="font-size:113.889px;line-height:1.9;font-family:'Source Code Pro';-inkscape-font-specification:'Source Code Pro';letter-spacing:-0.987621px;display:inline;fill:#3e3e3e;stroke-width:0.8;stroke-linecap:round;stroke-linejoin:round;stroke:#3e3e3e;stroke-opacity:1;stroke-dasharray:none"
       id="path1" /></g></svg>
