<?xml version="1.0" encoding="UTF-8" standalone="no"?>
<!-- Created with Inkscape (http://www.inkscape.org/) -->

<svg
   width="11.67023cm"
   height="2.9067371cm"
   viewBox="0 0 11.67023 2.9067371"
   version="1.1"
   id="svg1"
   xmlns="http://www.w3.org/2000/svg"
   xmlns:svg="http://www.w3.org/2000/svg">
  <defs
     id="defs1">
    <clipPath
       id="clip_38">
      <path
         d="M 52.801,47.77 H 57 V 52 h -4.199 z"
         id="path28" />
    </clipPath>
  </defs>
  <g
     id="layer1"
     transform="translate(-62.005203,-79.315028)">
    <path
       id="use72"
       d="m 66.247963,80.724685 c 0.11121,0 0.20949,-0.0136 0.29484,-0.0407 0.0854,-0.0271 0.15687,-0.0655 0.21443,-0.11519 0.0576,-0.0496 0.10097,-0.10888 0.13009,-0.17771 0.0291,-0.0688 0.0437,-0.14493 0.0437,-0.22831 0,-0.16941 -0.0556,-0.29713 -0.16681,-0.38317 -0.11117,-0.086 -0.27793,-0.12906 -0.5003,-0.12906 h -0.42093 v 1.0741 h 0.40499 m 1.31441,1.46727 h -0.3415 c -0.0702,0 -0.12178,-0.0271 -0.15487,-0.0814 l -0.7386,-1.0166 c -0.0225,-0.0317 -0.0467,-0.0546 -0.0725,-0.0685 -0.0258,-0.0139 -0.0658,-0.0208 -0.12009,-0.0208 h -0.29187 v 1.18728 h -0.38318 v -2.845178 h 0.80411 c 0.17999,0 0.33551,0.01822 0.46655,0.05465 0.13104,0.03639 0.23923,0.089 0.32459,0.157848 0.0854,0.0688 0.14861,0.15188 0.18965,0.24915 0.041,0.0973 0.0616,0.20613 0.0616,0.32658 0,0.10062 -0.0159,0.19462 -0.0477,0.28199 -0.0317,0.0873 -0.0777,0.16576 -0.13796,0.23528 -0.0602,0.0695 -0.13371,0.12871 -0.22043,0.17771 -0.0867,0.049 -0.18495,0.086 -0.29478,0.11113 0.049,0.0278 0.0913,0.0682 0.12706,0.12112 z"
       style="fill:#373c44;stroke-width:3.97089" />
    <path
       id="use73"
       d="m 68.334733,82.191955 h -0.38518 v -2.845178 h 0.38518 z"
       style="fill:#373c44;stroke-width:3.97089" />
    <path
       id="use74"
       d="m 69.111243,81.010605 c 0,-0.10191 0.0195,-0.19787 0.0585,-0.28786 0.0391,-0.09 0.0917,-0.16847 0.15784,-0.23528 0.0662,-0.0669 0.14396,-0.11979 0.23327,-0.15881 0.0894,-0.0391 0.18434,-0.0586 0.28496,-0.0586 0.10192,0 0.19753,0.0195 0.28684,0.0586 0.0893,0.039 0.16746,0.092 0.23431,0.15881 0.0669,0.0668 0.11979,0.14524 0.15881,0.23528 0.0391,0.09 0.0586,0.18595 0.0586,0.28786 0,0.10192 -0.0195,0.19755 -0.0586,0.2869 -0.039,0.0894 -0.092,0.16713 -0.15881,0.23334 -0.0668,0.0662 -0.14496,0.11878 -0.23431,0.15784 -0.0893,0.039 -0.18492,0.0585 -0.28684,0.0585 -0.10062,0 -0.1956,-0.0195 -0.28496,-0.0585 -0.0893,-0.0391 -0.16707,-0.0917 -0.23327,-0.15784 -0.0662,-0.0662 -0.11878,-0.14398 -0.15784,-0.23334 -0.039,-0.0894 -0.0585,-0.18498 -0.0585,-0.2869 z"
       style="fill:#4d1a57;stroke-width:3.97089" />
    <path
       id="use75"
       d="m 72.873383,81.135665 -0.44674,-1.15747 c -0.0132,-0.0344 -0.0271,-0.0744 -0.0417,-0.12009 -0.0145,-0.0457 -0.0284,-0.0943 -0.0417,-0.14596 -0.0278,0.1072 -0.0563,0.19653 -0.0854,0.26799 l -0.44674,1.15553 h 1.06222 m 0.80211,1.05629 h -0.29781 c -0.0344,0 -0.0622,-0.009 -0.0834,-0.0258 -0.0212,-0.0172 -0.0371,-0.039 -0.0477,-0.0655 l -0.26605,-0.68698 h -1.2766 l -0.26605,0.68698 c -0.008,0.0238 -0.0232,0.045 -0.0457,0.0635 -0.0225,0.0185 -0.0503,0.0278 -0.0834,0.0278 h -0.29781 l 1.13766,-2.845179 h 0.38912 z"
       style="fill:#373c44;stroke-width:3.97089" />
    <path
       id="use1767"
       d="m 65.007003,80.770365 c 0,0.21312 -0.0361,0.40869 -0.10833,0.5867 -0.0722,0.17802 -0.17421,0.33124 -0.30594,0.45965 -0.1317,0.12837 -0.28996,0.22798 -0.47477,0.29883 -0.18482,0.0708 -0.38913,0.10622 -0.61293,0.10622 -0.22376,0 -0.4277,-0.0354 -0.61182,-0.10622 -0.18413,-0.0709 -0.34204,-0.17046 -0.47374,-0.29883 -0.13169,-0.12841 -0.23367,-0.28163 -0.30594,-0.45965 -0.0722,-0.17801 -0.10833,-0.37358 -0.10833,-0.5867 0,-0.21312 0.0361,-0.40869 0.10833,-0.5867 0.0723,-0.17802 0.17425,-0.33156 0.30594,-0.46062 0.1317,-0.12906 0.28961,-0.22931 0.47374,-0.30077 0.18412,-0.0715 0.38806,-0.107247 0.61182,-0.107247 0.2238,0 0.42811,0.03575 0.61293,0.107247 0.18481,0.0715 0.34307,0.17171 0.47477,0.30077 0.13173,0.12906 0.23372,0.2826 0.30594,0.46062 0.0722,0.17801 0.10833,0.37358 0.10833,0.5867 m -0.4227,0 c 0,-0.1747 -0.0255,-0.33155 -0.0765,-0.47055 -0.051,-0.139 -0.12324,-0.25646 -0.21673,-0.3524 -0.0934,-0.096 -0.20675,-0.16977 -0.33992,-0.2214 -0.13312,-0.0516 -0.28182,-0.0774 -0.44611,-0.0774 -0.16286,0 -0.31085,0.0258 -0.44397,0.0774 -0.13313,0.0516 -0.24678,0.12543 -0.34096,0.2214 -0.0942,0.0959 -0.16677,0.2134 -0.21777,0.3524 -0.051,0.139 -0.0765,0.29585 -0.0765,0.47055 0,0.17471 0.0255,0.33123 0.0765,0.46958 0.051,0.13831 0.12359,0.25545 0.21777,0.35143 0.0942,0.0959 0.20783,0.16939 0.34096,0.22037 0.13312,0.0509 0.28111,0.0764 0.44397,0.0764 0.16429,0 0.31299,-0.0255 0.44611,-0.0764 0.13317,-0.051 0.24647,-0.12443 0.33992,-0.22037 0.0935,-0.096 0.16573,-0.21312 0.21673,-0.35143 0.051,-0.13835 0.0765,-0.29487 0.0765,-0.46958 z"
       style="fill:#373c44;stroke-width:4.10752" />
    <g
       clip-path="url(#clip_38)"
       id="g1767"
       transform="matrix(0.26458333,0,0,0.26458333,49.117583,67.586459)"
       style="display:inline">
      <path
         d="m 53.039,47.816 c 0.191,-0.097 0.418,-0.039 0.586,0.075 0.914,0.523 1.828,1.043 2.742,1.57 0.285,0.172 0.231,0.617 -0.066,0.754 -0.926,0.527 -1.848,1.058 -2.774,1.586 -0.265,0.14 -0.672,0.004 -0.715,-0.293 -0.019,-0.32 -0.003,-0.645 -0.007,-0.965 0,-0.789 -0.004,-1.582 0,-2.375 0.004,-0.145 0.093,-0.281 0.234,-0.352 z m 0,0"
         fill="#1d6a54"
         id="path1767" />
    </g>
  </g>
</svg>
