<svg  xmlns="http://www.w3.org/2000/svg" xmlns:xlink="http://www.w3.org/1999/xlink" xmlns:inkscape="http://www.inkscape.org/namespaces/inkscape" id="validatie" version="1.1" viewBox="0 0 527.411 242.886">
<defs>
<clipPath id="clip_1">
<path transform="matrix(1.53687,0,0,-1.53687,45.456,76.602008)" d="M0 0H33.2V41.2H0Z"/>
</clipPath>
<path id="font_2_10" d="M.0129852299 0H.13899231L.21499634 .15205384C.23098755 .18608094 .24699402 .2190857 .2639923 .2591095H.2679901C.2869873 .2190857 .30299378 .18608094 .31999208 .15205384L.397995 0H.5299988L.34498597 .33114625 .5189972 .6542969H.3919983L.32499696 .5112152C.31098939 .48120118 .29699708 .4501953 .2809906 .4101715H.2769928C.25698854 .4501953 .24299622 .48120118 .22799683 .5112152L.15699768 .6542969H.024993897L.19799805 .33714295 .0129852299 0Z"/>
<path id="font_2_8" d="M.27398683-.01171875C.42199708-.01171875 .5099945 .07727051 .5099945 .18322754 .5099945 .27816773 .45599366 .32713319 .37799073 .36012269L.2899933 .3961029C.23599243 .41908265 .18699646 .43707276 .18699646 .4870453 .18699646 .5340271 .22599793 .5620117 .2869873 .5620117 .33699037 .5620117 .3849945 .5420227 .42599488 .5070343L.48999024 .5850067C.43899537 .6340027 .3659973 .6660156 .2869873 .6660156 .15899658 .6660156 .066986087 .5850067 .066986087 .48005677 .066986087 .38510133 .13398743 .33413697 .19898987 .30715943L.28799439 .26817323C.34700013 .24319458 .3889923 .22619629 .3889923 .17422486 .3889923 .12425232 .34899903 .091278079 .2769928 .091278079 .21398926 .091278079 .14898682 .117263797 .101989749 .16223145L.037994386 .08427429C.099990848 .021270752 .18399048-.01171875 .27398683-.01171875Z"/>
<path id="font_2_2" d="M.08299255 0H.2639923C.45799256 0 .5779877 .11199951 .5779877 .33013917 .5779877 .547287 .45799256 .6542969 .2579956 .6542969H.08299255V0M.20199585 .09599304V.5572815H.25C.37998963 .5572815 .45498658 .49024964 .45498658 .33013917 .45498658 .16903687 .37998963 .09599304 .25 .09599304H.20199585Z"/>
<path id="font_2_6" d="M.33799745-.01171875C.5089874-.01171875 .6269989 .118255618 .6269989 .33013917 .6269989 .5410156 .5089874 .6660156 .33799745 .6660156 .16699219 .6660156 .04899597 .5410156 .04899597 .33013917 .04899597 .118255618 .16699219-.01171875 .33799745-.01171875M.33799745 .091278079C.23599243 .091278079 .17098999 .18421936 .17098999 .33013917 .17098999 .47505189 .23599243 .5620117 .33799745 .5620117 .43899537 .5620117 .5049896 .47505189 .5049896 .33013917 .5049896 .18421936 .43899537 .091278079 .33799745 .091278079Z"/>
<path id="font_2_7" d="M.08299255 0H.20199585V.25390626H.29899598L.43899537 0H.57199099L.4169922 .27189637C.49499513 .29890443 .54599 .35992433 .54599 .45910646 .54599 .6062927 .44099427 .6542969 .3039856 .6542969H.08299255V0M.20199585 .3488922V.55929568H.2919922C.3809967 .55929568 .42900086 .5332489 .42900086 .45910646 .42900086 .38597108 .3809967 .3488922 .2919922 .3488922H.20199585Z"/>
<path id="font_2_3" d="M.08299255 0H.20199585V.6542969H.08299255V0Z"/>
<path id="font_2_27" d="M.041992189 .20898438H.2809906V.2949829H.041992189V.20898438Z"/>
<path id="font_2_1" d="M.21798706 .345932C.23899842 .41503907 .2579956 .48916627 .2749939 .56129458H.2789917C.2979889 .49017335 .31698609 .41503907 .33799745 .345932L.3600006 .26779176H.19599915L.21798706 .345932M-.0020141602 0H.11898804L.16899109 .17480469H.38598634L.43598939 0H.56199648L.34999085 .6542969H.20999146L-.0020141602 0Z"/>
<path id="font_2_24" d="M.20999146-.01171875C.33499146-.01171875 .40299989 .056274415 .40299989 .14123535 .40299989 .22616577 .33599855 .26513673 .2599945 .29112245 .19799805 .31210328 .16299439 .32609559 .16299439 .3620758 .16299439 .39105226 .18499756 .41503907 .23399353 .41503907 .272995 .41503907 .30899049 .40304566 .34399415 .37705995L.394989 .44403077C.35499574 .47903443 .2979889 .5040283 .23098755 .5040283 .12098694 .5040283 .050994874 .44203187 .050994874 .3560791 .050994874 .2781372 .116989139 .2371521 .18798828 .21118164 .24299622 .19119263 .29100038 .17520142 .29100038 .13423157 .29100038 .101257327 .2659912 .07727051 .21398926 .07727051 .1639862 .07727051 .11898804 .0922699 .07598877 .12724304L.023986817 .060272218C.07199097 .014266968 .14199829-.01171875 .20999146-.01171875Z"/>
<path id="font_2_12" d="M.27799989-.01171875C.33399964-.01171875 .3919983 .0072784426 .43899537 .04827881L.3909912 .1232605C.36299134 .1002655 .32899476 .08427429 .2899933 .08427429 .21499634 .08427429 .1619873 .14826966 .1619873 .24523926 .1619873 .3432312 .21598816 .40722657 .2939911 .40722657 .32499696 .40722657 .34999085 .3972168 .375 .37522889L.43199159 .44921876C.3959961 .48121644 .34999085 .5042267 .28799439 .5042267 .1559906 .5042267 .039993287 .40922547 .039993287 .24523926 .039993287 .08227539 .14399719-.01171875 .27799989-.01171875Z"/>
<path id="font_2_16" d="M.07199097 0H.19099427V.34191896C.22999573 .38189698 .2579956 .40190126 .30099488 .40190126 .35299684 .40190126 .37599183 .37290956 .37599183 .29292298V0H.49398805V.30792237C.49398805 .43190003 .44799806 .50390627 .34199525 .50390627 .2749939 .50390627 .22599793 .4678955 .18598938 .42990113L.19099427 .5239105V.7060547H.07199097V0Z"/>
<path id="font_2_14" d="M.28199769-.01171875C.34599305-.01171875 .4059906 .0062713625 .45199586 .040267946L.4119873 .11419678C.37799073 .09223938 .33999635 .08027649 .2979889 .08027649 .21998596 .08027649 .16799927 .12815857 .1559906 .20996094H.46598817C.46998597 .22795105 .47200013 .24595642 .47200013 .2699585 .47200013 .4080963 .3999939 .5041046 .2669983 .5041046 .1519928 .5041046 .039993287 .4060974 .039993287 .24595642 .039993287 .08227539 .1459961-.01171875 .28199769-.01171875M.1559906 .29795838C.1659851 .37205506 .21398926 .41210938 .269989 .41210938 .33399964 .41210938 .36799623 .3700409 .36799623 .29795838H.1559906Z"/>
<path id="font_2_19" d="M.07199097 0H.19099427V.34214784C.22799683 .38316346 .2619934 .4021759 .2919922 .4021759 .34199525 .4021759 .3659973 .37316896 .3659973 .29312135V0H.48399354V.34214784C.5209961 .38316346 .5549927 .4021759 .58499148 .4021759 .6359863 .4021759 .6589966 .37316896 .6589966 .29312135V0H.7779999V.308136C.7779999 .43234254 .7299957 .5043335 .6259918 .5043335 .5629883 .5043335 .5149994 .4663391 .46798707 .41633607 .44499208 .47132875 .4039917 .5043335 .33198548 .5043335 .269989 .5043335 .22299195 .468338 .18099976 .42533876H.17799378L.16899109 .4921875H.07199097V0Z"/>
<path id="font_2_11" d="M.19198609-.01171875C.25-.01171875 .2979889 .016281128 .34199525 .054275514H.34599305L.35598756 0H.45199586V.2911377C.45199586 .42819215 .3899994 .50419619 .2679901 .50419619 .18998719 .50419619 .11999512 .4741974 .06599426 .4402008L.10798645 .36216737C.1519928 .3881836 .19799805 .40820313 .24598694 .40820313 .31199647 .40820313 .33198548 .36618043 .33399964 .31614686 .13198853 .29414369 .04598999 .2401123 .04598999 .13206482 .04598999 .046279909 .10598755-.01171875 .19198609-.01171875M.22799683 .08227539C.18798828 .08227539 .1599884 .0982666 .1599884 .14025879 .1599884 .19024658 .19999695 .22024536 .33399964 .23623657V.13226319C.2979889 .0982666 .2679901 .08227539 .22799683 .08227539Z"/>
<clipPath id="clip_3">
<path transform="matrix(1.53687,0,0,-1.53687,45.456,203.653)" d="M0 0H33.2V41.2H0Z"/>
</clipPath>
<path id="font_2_5" d="M.08198547 0H.18998719V.29812623C.18998719 .36016847 .17999268 .4502411 .17199707 .5102844H.17599488L.22799683 .3521576 .33198548 .060043336H.4099884L.5159912 .3521576 .56799319 .5102844H.57199099C.56399539 .4502411 .55400088 .36016847 .55400088 .29812623V0H.6639862V.6542969H.5239868L.4119873 .33415223C.397995 .29211427 .3880005 .25408937 .37599183 .20605469H.37199403C.3600006 .25408937 .34799195 .29211427 .33399964 .33415223L.22200012 .6542969H.08198547V0Z"/>
<path id="font_2_4" d="M.08299255 0H.47200013V.099990848H.20199585V.6542969H.08299255V0Z"/>
<path id="font_2_13" d="M.24499512-.01171875C.29699708-.01171875 .34700013 .01727295 .3829956 .053268434H.3869934L.3959961 0H.49198915V.7060547H.37399293V.5292206L.3789978 .4502411C.34098817 .48324586 .30599977 .50424197 .25099183 .50424197 .14299011 .50424197 .042999269 .40625 .042999269 .2451477 .042999269 .08326721 .12199402-.01171875 .24499512-.01171875M.27398683 .08627319C.20399475 .08627319 .1639862 .14126587 .1639862 .24725342 .1639862 .34825135 .21499634 .40625 .27598573 .40625 .30899049 .40625 .34098817 .39624024 .37399293 .36624146V.14027405C.34298707 .10227966 .31098939 .08627319 .27398683 .08627319Z"/>
<path id="font_2_21" d="M.2749939-.01171875C.39698792-.01171875 .5089874 .08227539 .5089874 .24523926 .5089874 .40922547 .39698792 .5042267 .2749939 .5042267 .1519928 .5042267 .039993287 .40922547 .039993287 .24523926 .039993287 .08227539 .1519928-.01171875 .2749939-.01171875M.2749939 .08427429C.20399475 .08427429 .1619873 .14826966 .1619873 .24523926 .1619873 .3432312 .20399475 .40722657 .2749939 .40722657 .34599305 .40722657 .3880005 .3432312 .3880005 .24523926 .3880005 .14826966 .34599305 .08427429 .2749939 .08427429Z"/>
<path id="font_2_26" d="M.21798706-.01171875C.28599549-.01171875 .33299256 .021270752 .37599183 .072280887H.3789978L.3880005 0H.4850006V.4921875H.36698915V.15626526C.33099366 .10926819 .30299378 .089279178 .2599945 .089279178 .20799256 .089279178 .18499756 .119262699 .18499756 .19924927V.4921875H.066986087V.18424988C.066986087 .060272218 .11299133-.01171875 .21798706-.01171875Z"/>
<path id="font_2_20" d="M.07199097 0H.19099427V.34214784C.22999573 .38217164 .2579956 .4021759 .30099488 .4021759 .35299684 .4021759 .37599183 .37316896 .37599183 .29312135V0H.49398805V.308136C.49398805 .43234254 .44799806 .5043335 .34199525 .5043335 .2749939 .5043335 .22499085 .468338 .18099976 .42633058H.17799378L.16899109 .4921875H.07199097V0Z"/>
<path id="font_2_25" d="M.24699402-.01171875C.2869873-.01171875 .32299806-.0027313233 .34899903 .009277344L.32798768 .0922699C.31098939 .08526611 .2939911 .08227539 .2769928 .08227539 .23098755 .08227539 .20799256 .11026001 .20799256 .16725159V.3981781H.33299256V.4921875H.20799256V.6451874H.10998535L.09599304 .4921875 .019989014 .48617555V.3981781H.08999634V.16725159C.08999634 .060272218 .13198853-.01171875 .24699402-.01171875Z"/>
<clipPath id="clip_4">
<path transform="matrix(1.65135,0,0,-1.65135,267.24403,140.832)" d="M0 0H41.2V39.2H0Z"/>
</clipPath>
<clipPath id="clip_5">
<path transform="matrix(1.65135,0,0,1.65135,267.24403,76.099079)" d="M0 0H42V40H0Z"/>
</clipPath>
<path id="font_2_9" d="M.19499207 0H.33599855L.5419922 .6542969H.41999818L.32699586 .32713319C.30599977 .25306703 .2919922 .18904114 .269989 .114990238H.2659912C.24398804 .18904114 .22898865 .25306703 .20899964 .32710267L.12199402 .6542969H-.0040130617L.19499207 0Z"/>
<path id="font_2_18" d="M.18598938-.01171875C.21398926-.01171875 .23399353-.0077209474 .24798584-.0007324219L.23399353 .08627319C.22599793 .08427429 .22200012 .08427429 .21598816 .08427429 .20399475 .08427429 .19099427 .0942688 .19099427 .1232605V.7060547H.07199097V.1292572C.07199097 .042266847 .102996829-.01171875 .18598938-.01171875Z"/>
<path id="font_2_17" d="M.07199097 0H.19099427V.4921875H.07199097V0M.13198853 .57595828C.17399597 .57595828 .20298767 .60295107 .20298767 .6429596 .20298767 .6829529 .17399597 .70996096 .13198853 .70996096 .08999634 .70996096 .06098938 .6829529 .06098938 .6429596 .06098938 .60295107 .08999634 .57595828 .13198853 .57595828Z"/>
<path id="font_2_22" d="M.07199097-.19273377H.19099427V-.039733888L.18699646 .042266847C.22599793 .008270264 .2689972-.01171875 .31298829-.01171875 .42199708-.01171875 .5219879 .08528137 .5219879 .25323487 .5219879 .40524293 .45098878 .50424197 .32899476 .50424197 .2749939 .50424197 .22299195 .475235 .18099976 .44024659H.17799378L.16899109 .4921875H.07199097V-.19273377M.2869873 .08627319C.25898744 .08627319 .22499085 .0962677 .19099427 .1252594V.3521881C.22799683 .38919068 .26098634 .4061737 .29599 .4061737 .36898805 .4061737 .40098573 .3491974 .40098573 .25222779 .40098573 .14225769 .35099793 .08627319 .2869873 .08627319Z"/>
<path id="font_2_23" d="M.07199097 0H.19099427V.29808045C.21998596 .37316896 .2669983 .39918519 .30599977 .39918519 .32598878 .39918519 .33799745 .39717103 .35299684 .39317323L.3769989 .49414063C.3619995 .5001831 .34599305 .5041809 .32099916 .5041809 .2689972 .5041809 .21699524 .46817018 .18099976 .4041443H.17799378L.16899109 .4921875H.07199097V0Z"/>
<path id="font_2_15" d="M.24398804-.21679688C.40499879-.21679688 .5069885-.13980103 .5069885-.04283142 .5069885 .042160036 .44400025 .0791626 .32699586 .0791626H.23999024C.18099976 .0791626 .16099549 .09516907 .16099549 .12220764 .16099549 .14422608 .16999817 .15625 .18399048 .16824341 .20599365 .1602478 .22898865 .15625 .25 .15625 .35398866 .15625 .43798829 .21424866 .43798829 .32321168 .43798829 .35620118 .42599488 .3861847 .41099549 .4041748H.49899293V.4921875H.32299806C.30299378 .49890138 .2769928 .50390627 .25 .50390627 .14698792 .50390627 .054992677 .43989564 .054992677 .32707215 .054992677 .2691803 .085998538 .22224427 .11999512 .1972351V.1932373C.09098816 .17324829 .06498718 .14022827 .06498718 .10218811 .06498718 .062149049 .084991458 .03616333 .10998535 .02015686V.016159058C.06498718-.01184082 .038986207-.046829225 .038986207-.08882141 .038986207-.17480469 .1269989-.21679688 .24398804-.21679688M.25 .23023987C.20399475 .23023987 .1659851 .26522828 .1659851 .32720948 .1659851 .3881836 .20298767 .42218019 .25 .42218019 .29699708 .42218019 .33299256 .3881836 .33299256 .32720948 .33299256 .26522828 .29599 .23023987 .25 .23023987M.2619934-.13980103C.18598938-.13980103 .13798523-.11480713 .13798523-.0708313 .13798523-.047836305 .14898682-.02684021 .1749878-.0068359377 .19400025-.0119018559 .21499634-.013900757 .24198914-.013900757H.30799867C.36299134-.013900757 .3929901-.024902344 .3929901-.06187439 .3929901-.1038208 .33999635-.13980103 .2619934-.13980103Z"/>
<clipPath id="clip_6">
<path transform="matrix(1.33344,0,0,-1.33344,429.92799,160.396)" d="M0 0H21.260167V21.26016H0Z"/>
</clipPath>
<clipPath id="clip_7">
<path transform="matrix(1.33344,0,0,1.33344,429.92799,132.04685)" d="M0 0H22V22H0Z"/>
</clipPath>
<clipPath id="clip_8">
<path transform="matrix(1.33344,0,0,-1.33344,467.24098,160.396)" d="M0 0H21.260167V21.26016H0Z"/>
</clipPath>
<clipPath id="clip_9">
<path transform="matrix(1.33344,0,0,1.33344,467.24098,132.04685)" d="M0 0H22V22H0Z"/>
</clipPath>
</defs>
<g>
<g>
<g clip-path="url(#clip_1)">
<path transform="matrix(1.53687,0,0,1.53687,45.456,13.282959)" stroke-width="1.2" stroke-linecap="round" stroke-linejoin="round" fill="none" stroke="currentColor" d="M.602 39.398V1.801C.602 1.137 1.137 .602 1.801 .602H25.102C25.422 .602 25.727 .727 25.953 .953L32.25 7.25C32.473 7.473 32.602 7.777 32.602 8.098V39.398C32.602 40.062 32.062 40.602 31.398 40.602H1.801C1.137 40.602 .602 40.062 .602 39.398ZM.602 39.398"/>
<path transform="matrix(1.53687,0,0,1.53687,45.456,13.282959)" stroke-width="1.2" stroke-linecap="round" stroke-linejoin="round" fill="none" stroke="currentColor" d="M24.602 .602V7.398C24.602 8.062 25.137 8.602 25.801 8.602H32.602"/>
</g>
</g>
<path transform="matrix(1,0,0,-1,70.968,44.942)" d="M-1.83542-2.12076H-37.22772C-39.9789-2.12076-42.2091-4.35097-42.2091-7.10214V-15.02852C-42.2091-17.7797-39.9789-20.0099-37.22772-20.0099H-1.83542C.91574-20.0099 3.14595-17.7797 3.14595-15.02852V-7.10214C3.14595-4.35097 .91574-2.12076-1.83542-2.12076ZM-42.2091-20.0099" fill="var(--purple-bg)"/>
<use xlink:href="#font_2_10" transform="matrix(11.9552,0,0,-11.9552,41.281003,59.82701)" fill="var(--purple-fg)"/>
<use xlink:href="#font_2_8" transform="matrix(11.9552,0,0,-11.9552,47.581396,59.82701)" fill="var(--purple-fg)"/>
<use xlink:href="#font_2_2" transform="matrix(11.9552,0,0,-11.9552,54.108934,59.82701)" fill="var(--purple-fg)"/>
<path transform="matrix(1,0,0,-1,70.968,44.942)" d="M35.61485-38.21368H-35.61485C-39.4665-38.21368-42.58879-41.33597-42.58879-45.18762V-53.95685C-42.58879-57.8085-39.4665-60.93079-35.61485-60.93079H35.61485C39.4665-60.93079 42.58879-57.8085 42.58879-53.95685V-45.18762C42.58879-41.33597 39.4665-38.21368 35.61485-38.21368ZM-42.58879-60.93079" fill="#eceeee"/>
<g fill="#2b2b2b">
<use xlink:href="#font_2_6" transform="matrix(11.9552,0,0,-11.9552,35.353,98.755008)"/>
<use xlink:href="#font_2_7" transform="matrix(11.9552,0,0,-11.9552,43.42276,98.755008)"/>
<use xlink:href="#font_2_3" transform="matrix(11.9552,0,0,-11.9552,50.52415,98.755008)"/>
<use xlink:href="#font_2_27" transform="matrix(11.9552,0,0,-11.9552,53.919427,98.755008)"/>
<use xlink:href="#font_2_1" transform="matrix(11.9552,0,0,-11.9552,57.780958,98.755008)"/>
<use xlink:href="#font_2_24" transform="matrix(11.9552,0,0,-11.9552,66.866909,98.755008)"/>
<use xlink:href="#font_2_12" transform="matrix(11.9552,0,0,-11.9552,72.031558,98.755008)"/>
<use xlink:href="#font_2_16" transform="matrix(11.9552,0,0,-11.9552,77.554859,98.755008)"/>
<use xlink:href="#font_2_14" transform="matrix(11.9552,0,0,-11.9552,84.237819,98.755008)"/>
<use xlink:href="#font_2_19" transform="matrix(11.9552,0,0,-11.9552,90.31106,98.755008)"/>
<use xlink:href="#font_2_11" transform="matrix(11.9552,0,0,-11.9552,100.4132,98.755008)"/>
</g>
<g>
<g clip-path="url(#clip_3)">
<path transform="matrix(1.53687,0,0,1.53687,45.456,140.33396)" stroke-width="1.2" stroke-linecap="round" stroke-linejoin="round" fill="none" stroke="currentColor" d="M.602 39.398V1.801C.602 1.137 1.137 .602 1.801 .602H25.102C25.422 .602 25.727 .727 25.953 .953L32.25 7.25C32.473 7.473 32.602 7.777 32.602 8.098V39.398C32.602 40.062 32.062 40.602 31.398 40.602H1.801C1.137 40.602 .602 40.062 .602 39.398ZM.602 39.398"/>
<path transform="matrix(1.53687,0,0,1.53687,45.456,140.33396)" stroke-width="1.2" stroke-linecap="round" stroke-linejoin="round" fill="none" stroke="currentColor" d="M24.602 .602V7.398C24.602 8.062 25.137 8.602 25.801 8.602H32.602"/>
</g>
</g>
<path transform="matrix(1,0,0,-1,70.968,44.942)" d="M-1.83542-129.31703H-37.22772C-39.9789-129.31703-42.2091-131.54724-42.2091-134.29842V-142.08132C-42.2091-144.83249-39.9789-147.0627-37.22772-147.0627H-1.83542C.91574-147.0627 3.14595-144.83249 3.14595-142.08132V-134.29842C3.14595-131.54724 .91574-129.31703-1.83542-129.31703ZM-42.2091-147.0627" fill="var(--green-bg)"/>
<use xlink:href="#font_2_10" transform="matrix(11.9552,0,0,-11.9552,40.725004,187.022)" fill="var(--green-fg)"/>
<use xlink:href="#font_2_5" transform="matrix(11.9552,0,0,-11.9552,47.21668,187.022)" fill="var(--green-fg)"/>
<use xlink:href="#font_2_4" transform="matrix(11.9552,0,0,-11.9552,56.135259,187.022)" fill="var(--green-fg)"/>
<path transform="matrix(1,0,0,-1,70.968,44.942)" d="M54.032-165.26648H-54.032C-57.88365-165.26648-61.00594-168.38877-61.00594-172.24042V-181.00965C-61.00594-184.8613-57.88365-187.98358-54.032-187.98358H54.032C57.88365-187.98358 61.00594-184.8613 61.00594-181.00965V-172.24042C61.00594-168.38877 57.88365-165.26648 54.032-165.26648ZM-61.00594-187.98358" fill="#eceeee"/>
<g fill="#2b2b2b">
<use xlink:href="#font_2_6" transform="matrix(11.9552,0,0,-11.9552,16.937005,225.806)"/>
<use xlink:href="#font_2_7" transform="matrix(11.9552,0,0,-11.9552,25.006764,225.806)"/>
<use xlink:href="#font_2_3" transform="matrix(11.9552,0,0,-11.9552,32.108156,225.806)"/>
<use xlink:href="#font_2_27" transform="matrix(11.9552,0,0,-11.9552,35.50343,225.806)"/>
<use xlink:href="#font_2_1" transform="matrix(11.9552,0,0,-11.9552,39.36496,225.806)"/>
<use xlink:href="#font_2_10" transform="matrix(11.9552,0,0,-11.9552,48.450914,225.806)"/>
<use xlink:href="#font_2_5" transform="matrix(11.9552,0,0,-11.9552,54.942586,225.806)"/>
<use xlink:href="#font_2_4" transform="matrix(11.9552,0,0,-11.9552,63.861166,225.806)"/>
<use xlink:href="#font_2_13" transform="matrix(11.9552,0,0,-11.9552,72.26567,225.806)"/>
<use xlink:href="#font_2_21" transform="matrix(11.9552,0,0,-11.9552,79.020359,225.806)"/>
<use xlink:href="#font_2_12" transform="matrix(11.9552,0,0,-11.9552,85.58377,225.806)"/>
<use xlink:href="#font_2_26" transform="matrix(11.9552,0,0,-11.9552,91.10707,225.806)"/>
<use xlink:href="#font_2_19" transform="matrix(11.9552,0,0,-11.9552,97.778079,225.806)"/>
<use xlink:href="#font_2_14" transform="matrix(11.9552,0,0,-11.9552,107.88022,225.806)"/>
<use xlink:href="#font_2_20" transform="matrix(11.9552,0,0,-11.9552,113.95346,225.806)"/>
<use xlink:href="#font_2_25" transform="matrix(11.9552,0,0,-11.9552,120.660327,225.806)"/>
</g>
<g>
<g clip-path="url(#clip_4)">
<g opacity=".786318">
<g clip-path="url(#clip_5)">
<path transform="matrix(1.65135,0,0,1.65135,267.24403,76.099079)" d="M25.891 .492C18.562 .5 11.238 .492 3.914 .516 2.129 .848 .602 2.434 .5 4.273 .461 5.539 .449 6.812 .484 8.074 .523 8.566 1.055 8.801 1.5 8.734 14.328 8.734 27.156 8.734 39.984 8.734 40.488 8.727 40.809 8.223 40.734 7.75 40.711 6.461 40.785 5.168 40.66 3.887 40.359 2.145 38.812 .641 37.027 .527 33.629 .457 30.23 .504 26.832 .488 26.516 .488 26.203 .492 25.891 .492ZM18.52 4.098C18.82 4.059 19.172 4.273 19.105 4.613 19.156 5.047 18.543 5.297 18.254 4.988 17.938 4.688 18.121 4.215 18.52 4.098ZM12.652 4.098C13.102 4.09 13.281 4.734 12.938 4.996 12.633 5.305 12.039 5.008 12.098 4.578 12.117 4.301 12.375 4.082 12.652 4.098ZM6.645 4.102C6.945 4.102 7.188 4.402 7.098 4.699 7.082 5.133 6.383 5.281 6.18 4.898 5.953 4.555 6.227 4.07 6.645 4.102ZM6.645 4.102" fill="#e8eaeb"/>
</g>
</g>
<path transform="matrix(1.65135,0,0,1.65135,267.24403,76.099079)" stroke-width="1.2" stroke-linecap="round" stroke-miterlimit="4" stroke-linejoin="miter" fill="none" stroke="currentColor" d="M22.602 36.602H4.602C2.391 36.602 .602 34.809 .602 32.602V4.602C.602 2.391 2.391 .602 4.602 .602H36.602C38.809 .602 40.602 2.391 40.602 4.602V22.602"/>
<path transform="matrix(1.65135,0,0,1.65135,267.24403,76.099079)" stroke-width="1.2" stroke-linecap="round" stroke-linejoin="round" fill="none" stroke="currentColor" d="M.602 8.602H40.602"/>
<path transform="matrix(1.65135,0,0,1.65135,267.24403,76.099079)" d="M6.602 4.621 6.621 4.598" fill="#00ca4e"/>
<path transform="matrix(1.65135,0,0,1.65135,267.24403,76.099079)" stroke-width="2.475" stroke-linecap="round" stroke-linejoin="round" fill="none" stroke="#ff605c" d="M6.602 4.621 6.621 4.598"/>
<path transform="matrix(1.65135,0,0,1.65135,267.24403,76.099079)" stroke-width="2.475" stroke-linecap="round" stroke-linejoin="round" fill="none" stroke="#ffbd44" d="M12.602 4.621 12.621 4.598"/>
<path transform="matrix(1.65135,0,0,1.65135,267.24403,76.099079)" stroke-width="2.475" stroke-linecap="round" stroke-linejoin="round" fill="none" stroke="#00ca4e" d="M18.602 4.621 18.621 4.598"/>
<path transform="matrix(1.65135,0,0,1.65135,267.24403,76.099079)" stroke-width="1.2" stroke-linecap="round" stroke-linejoin="round" fill="none" stroke="currentColor" d="M36.848 34.836C37.93 33.75 38.602 32.254 38.602 30.602 38.602 27.285 35.914 24.602 32.602 24.602 29.285 24.602 26.602 27.285 26.602 30.602 26.602 33.914 29.285 36.602 32.602 36.602 34.262 36.602 35.762 35.926 36.848 34.836ZM36.848 34.836 40.602 38.602"/>
<path transform="matrix(1.65135,0,0,1.65135,267.24403,76.099079)" stroke-width="1.147816" stroke-linecap="round" stroke-linejoin="round" fill="none" stroke="currentColor" d="M17.977 12.5 13.883 27.125"/>
<path transform="matrix(1.65135,0,0,1.65135,267.24403,76.099079)" stroke-width="1.147816" stroke-linecap="round" stroke-linejoin="round" fill="none" stroke="currentColor" d="M9.789 15.426 5.695 19.52 9.789 23.613"/>
<path transform="matrix(1.65135,0,0,1.65135,267.24403,76.099079)" stroke-width="1.147816" stroke-linecap="round" stroke-linejoin="round" fill="none" stroke="currentColor" d="M22.656 15.426 26.75 19.52 22.656 23.613"/>
</g>
</g>
<path transform="matrix(1,0,0,-1,70.968,44.942)" d="M284.28453-102.64458H176.30425C172.4526-102.64458 169.3303-105.76686 169.3303-109.61852V-120.83858C169.3303-124.69022 172.4526-127.81252 176.30425-127.81252H284.28453C288.13618-127.81252 291.25846-124.69022 291.25846-120.83858V-109.61852C291.25846-105.76686 288.13618-102.64458 284.28453-102.64458ZM169.3303-127.81252" fill="#eceeee"/>
<use xlink:href="#font_2_9" transform="matrix(11.9552,0,0,-11.9552,247.27,163.185)" fill="#2b2b2b"/>
<use xlink:href="#font_2_11" transform="matrix(11.9552,0,0,-11.9552,253.35521,163.185)" fill="#2b2b2b"/>
<use xlink:href="#font_2_18" transform="matrix(11.9552,0,0,-11.9552,259.52409,163.185)" fill="#2b2b2b"/>
<use xlink:href="#font_2_17" transform="matrix(11.9552,0,0,-11.9552,262.77589,163.185)" fill="#2b2b2b"/>
<use xlink:href="#font_2_13" transform="matrix(11.9552,0,0,-11.9552,265.9201,163.185)" fill="#2b2b2b"/>
<use xlink:href="#font_2_11" transform="matrix(11.9552,0,0,-11.9552,272.6748,163.185)" fill="#2b2b2b"/>
<use xlink:href="#font_2_25" transform="matrix(11.9552,0,0,-11.9552,278.6524,163.185)" fill="#2b2b2b"/>
<use xlink:href="#font_2_17" transform="matrix(11.9552,0,0,-11.9552,282.99217,163.185)" fill="#2b2b2b"/>
<use xlink:href="#font_2_14" transform="matrix(11.9552,0,0,-11.9552,286.13639,163.185)" fill="#2b2b2b"/>
<use xlink:href="#font_2_22" transform="matrix(11.9552,0,0,-11.9552,294.60069,163.185)" fill="#2b2b2b"/>
<use xlink:href="#font_2_23" transform="matrix(11.9552,0,0,-11.9552,301.35539,163.185)" fill="#2b2b2b"/>
<use xlink:href="#font_2_21" transform="matrix(11.9552,0,0,-11.9552,305.731,163.185)" fill="#2b2b2b"/>
<use xlink:href="#font_2_15" transform="matrix(11.9552,0,0,-11.9552,312.2944,163.185)" fill="#2b2b2b"/>
<use xlink:href="#font_2_23" transform="matrix(11.9552,0,0,-11.9552,318.52308,163.185)" fill="#2b2b2b"/>
<use xlink:href="#font_2_11" transform="matrix(11.9552,0,0,-11.9552,322.7074,163.185)" fill="#2b2b2b"/>
<use xlink:href="#font_2_19" transform="matrix(11.9552,0,0,-11.9552,328.87629,163.185)" fill="#2b2b2b"/>
<use xlink:href="#font_2_19" transform="matrix(11.9552,0,0,-11.9552,338.97843,163.185)" fill="#2b2b2b"/>
<use xlink:href="#font_2_11" transform="matrix(11.9552,0,0,-11.9552,349.08058,163.185)" fill="#2b2b2b"/>
<path transform="matrix(1,0,0,-1,70.968,44.942)" d="M439.51237-52.16783H346.0698C342.21815-52.16783 339.09587-55.29012 339.09587-59.14177V-67.911C339.09587-71.76265 342.21815-74.88493 346.0698-74.88493H439.51237C443.364-74.88493 446.4863-71.76265 446.4863-67.911V-59.14177C446.4863-55.29012 443.364-52.16783 439.51237-52.16783ZM339.09587-74.88493" fill="#eceeee"/>
<use xlink:href="#font_2_9" transform="matrix(11.9552,0,0,-11.9552,417.03303,112.709)" fill="#2b2b2b"/>
<use xlink:href="#font_2_11" transform="matrix(11.9552,0,0,-11.9552,423.1182,112.709)" fill="#2b2b2b"/>
<use xlink:href="#font_2_18" transform="matrix(11.9552,0,0,-11.9552,429.28709,112.709)" fill="#2b2b2b"/>
<use xlink:href="#font_2_17" transform="matrix(11.9552,0,0,-11.9552,432.53889,112.709)" fill="#2b2b2b"/>
<use xlink:href="#font_2_13" transform="matrix(11.9552,0,0,-11.9552,435.6831,112.709)" fill="#2b2b2b"/>
<use xlink:href="#font_2_11" transform="matrix(11.9552,0,0,-11.9552,442.4378,112.709)" fill="#2b2b2b"/>
<use xlink:href="#font_2_25" transform="matrix(11.9552,0,0,-11.9552,448.4154,112.709)" fill="#2b2b2b"/>
<use xlink:href="#font_2_17" transform="matrix(11.9552,0,0,-11.9552,452.75517,112.709)" fill="#2b2b2b"/>
<use xlink:href="#font_2_14" transform="matrix(11.9552,0,0,-11.9552,455.89939,112.709)" fill="#2b2b2b"/>
<use xlink:href="#font_2_23" transform="matrix(11.9552,0,0,-11.9552,464.36369,112.709)" fill="#2b2b2b"/>
<use xlink:href="#font_2_14" transform="matrix(11.9552,0,0,-11.9552,468.7393,112.709)" fill="#2b2b2b"/>
<use xlink:href="#font_2_24" transform="matrix(11.9552,0,0,-11.9552,474.81254,112.709)" fill="#2b2b2b"/>
<use xlink:href="#font_2_26" transform="matrix(11.9552,0,0,-11.9552,479.97718,112.709)" fill="#2b2b2b"/>
<use xlink:href="#font_2_18" transform="matrix(11.9552,0,0,-11.9552,486.64817,112.709)" fill="#2b2b2b"/>
<use xlink:href="#font_2_25" transform="matrix(11.9552,0,0,-11.9552,489.89997,112.709)" fill="#2b2b2b"/>
<use xlink:href="#font_2_11" transform="matrix(11.9552,0,0,-11.9552,493.98866,112.709)" fill="#2b2b2b"/>
<use xlink:href="#font_2_11" transform="matrix(11.9552,0,0,-11.9552,500.15754,112.709)" fill="#2b2b2b"/>
<use xlink:href="#font_2_25" transform="matrix(11.9552,0,0,-11.9552,506.13514,112.709)" fill="#2b2b2b"/>
<g>
<g clip-path="url(#clip_6)">
<g clip-path="url(#clip_7)">
<path transform="matrix(1.33344,0,0,1.33344,429.92799,132.04685)" d="M10.629 0C4.758 0 0 4.758 0 10.629 0 16.5 4.758 21.262 10.629 21.262 16.5 21.262 21.262 16.5 21.262 10.629 21.262 4.758 16.5 0 10.629 0ZM6.211 10.598C5.922 10.312 5.449 10.312 5.164 10.598 4.871 10.887 4.871 11.359 5.164 11.648L8.129 14.617C8.418 14.906 8.887 14.906 9.176 14.617L16.098 7.695C16.391 7.406 16.391 6.934 16.098 6.645 15.809 6.355 15.34 6.355 15.051 6.645L8.652 13.043ZM6.211 10.598" fill="#0f704b" fill-rule="evenodd"/>
</g>
</g>
</g>
<g>
<g clip-path="url(#clip_8)">
<g clip-path="url(#clip_9)">
<path transform="matrix(1.33344,0,0,1.33344,467.24098,132.04685)" d="M10.629 0C4.758 0 0 4.758 0 10.629 0 16.5 4.758 21.262 10.629 21.262 16.5 21.262 21.262 16.5 21.262 10.629 21.262 4.758 16.5 0 10.629 0ZM8.355 7.309C8.066 7.02 7.598 7.02 7.309 7.309 7.02 7.598 7.02 8.066 7.309 8.355L9.582 10.629 7.309 12.902C7.02 13.191 7.02 13.664 7.309 13.953 7.598 14.242 8.066 14.242 8.355 13.953L10.629 11.68 12.902 13.953C13.191 14.242 13.664 14.242 13.953 13.953 14.242 13.664 14.242 13.191 13.953 12.902L11.68 10.629 13.953 8.355C14.242 8.066 14.242 7.598 13.953 7.309 13.664 7.02 13.191 7.02 12.902 7.309L10.629 9.582ZM8.355 7.309" fill="#671717" fill-rule="evenodd"/>
</g>
</g>
</g>
<path transform="matrix(1,0,0,-1,70.968,44.942)" stroke-width="1.99255" stroke-linecap="butt" stroke-miterlimit="10" stroke-linejoin="miter" fill="none" stroke="currentColor" d="M29.03198 0H107.51875V-63.52638H189.9025"/>
<path transform="matrix(1,0,0,-1,250.52806,108.46838)" stroke-width="1.99255" stroke-linecap="butt" stroke-miterlimit="10" stroke-linejoin="miter" fill="none" stroke="currentColor" d="M0 8.50403 11.33871 0 0-8.50403"/>
<path transform="matrix(1,0,0,-1,70.968,44.942)" stroke-width="1.99255" stroke-linecap="butt" stroke-miterlimit="10" stroke-linejoin="miter" fill="none" stroke="currentColor" d="M29.03198-127.0528H107.51875V-63.52638H189.9025"/>
<path transform="matrix(1,0,0,-1,250.52806,108.46838)" stroke-width="1.99255" stroke-linecap="butt" stroke-miterlimit="10" stroke-linejoin="miter" fill="none" stroke="currentColor" d="M0 8.50403 11.33871 0 0-8.50403"/>
<path transform="matrix(1,0,0,-1,70.968,44.942)" stroke-width="1.99255" stroke-linecap="butt" stroke-miterlimit="10" stroke-linejoin="miter" fill="none" stroke="currentColor" d="M270.8644-63.52638H333.40504"/>
<path transform="matrix(1,0,0,-1,394.03059,108.46838)" stroke-width="1.99255" stroke-linecap="butt" stroke-miterlimit="10" stroke-linejoin="miter" fill="none" stroke="currentColor" d="M0 8.50403 11.33871 0 0-8.50403"/>
</g>
</svg>
